<svg xmlns="http://www.w3.org/2000/svg" xmlns:xlink="http://www.w3.org/1999/xlink" width="500" zoomAndPan="magnify" viewBox="0 0 375 374.999991" height="500" preserveAspectRatio="xMidYMid meet" version="1.0"><defs><g/><clipPath id="a416685180"><rect x="0" width="284" y="0" height="375"/></clipPath><clipPath id="480a80347b"><path d="M 0 254.171875 L 375 254.171875 L 375 375 L 0 375 Z M 0 254.171875 " clip-rule="nonzero"/></clipPath><clipPath id="d59755779b"><path d="M 0 0.171875 L 375 0.171875 L 375 121 L 0 121 Z M 0 0.171875 " clip-rule="nonzero"/></clipPath><clipPath id="8d97bcefca"><rect x="0" width="375" y="0" height="121"/></clipPath><clipPath id="8909e23dc3"><rect x="0" width="147" y="0" height="75"/></clipPath></defs><g transform="matrix(1, 0, 0, 1, 46, 0)"><g clip-path="url(#a416685180)"><g fill="#036147" fill-opacity="1"><g transform="translate(0.47356, 328.858505)"><g><path d="M 104.953125 5 C 79.628906 5 58.625 -1.613281 41.9375 -14.84375 C 25.257812 -28.070312 16.921875 -47.804688 16.921875 -74.046875 C 16.921875 -93.835938 21.578125 -109.375 30.890625 -120.65625 C 40.210938 -131.9375 52.441406 -140.191406 67.578125 -145.421875 C 82.710938 -150.660156 99.023438 -154.085938 116.515625 -155.703125 C 139.523438 -158.003906 155.976562 -160.421875 165.875 -162.953125 C 175.769531 -165.484375 180.71875 -171.003906 180.71875 -179.515625 L 180.71875 -180.546875 C 180.71875 -191.484375 177.296875 -199.941406 170.453125 -205.921875 C 163.609375 -211.910156 153.914062 -214.90625 141.375 -214.90625 C 128.132812 -214.90625 117.601562 -212.023438 109.78125 -206.265625 C 101.957031 -200.515625 96.78125 -193.207031 94.25 -184.34375 L 26.234375 -189.875 C 31.296875 -214.039062 43.867188 -233.195312 63.953125 -247.34375 C 84.035156 -261.5 109.957031 -268.578125 141.71875 -268.578125 C 161.394531 -268.578125 179.804688 -265.46875 196.953125 -259.25 C 214.097656 -253.039062 227.9375 -243.347656 238.46875 -230.171875 C 249 -217.003906 254.265625 -199.890625 254.265625 -178.828125 L 254.265625 0 L 184.515625 0 L 184.515625 -36.765625 L 182.453125 -36.765625 C 176.003906 -24.453125 166.363281 -14.410156 153.53125 -6.640625 C 140.707031 1.117188 124.515625 5 104.953125 5 Z M 126 -45.75 C 142.113281 -45.75 155.347656 -50.4375 165.703125 -59.8125 C 176.066406 -69.1875 181.25 -80.835938 181.25 -94.765625 L 181.25 -122.90625 C 178.363281 -120.945312 173.898438 -119.21875 167.859375 -117.71875 C 161.816406 -116.226562 155.375 -114.9375 148.53125 -113.84375 C 141.6875 -112.75 135.5625 -111.796875 130.15625 -110.984375 C 117.257812 -109.148438 106.867188 -105.523438 98.984375 -100.109375 C 91.109375 -94.703125 87.171875 -86.820312 87.171875 -76.46875 C 87.171875 -66.34375 90.820312 -58.691406 98.125 -53.515625 C 105.4375 -48.335938 114.726562 -45.75 126 -45.75 Z M 126 -45.75 "/></g></g></g></g></g><g clip-path="url(#480a80347b)"><g transform="matrix(1, 0, 0, 1, 0, 254)"><g clip-path="url(#8d97bcefca)"><g clip-path="url(#d59755779b)"><path fill="#f6f3ee" d="M -20.539062 0.171875 L 395.488281 0.171875 L 395.488281 203.421875 L -20.539062 203.421875 Z M -20.539062 0.171875 " fill-opacity="1" fill-rule="nonzero"/></g></g></g></g><g transform="matrix(1, 0, 0, 1, 158, 254)"><g clip-path="url(#8909e23dc3)"><g fill="#036147" fill-opacity="1"><g transform="translate(55.494784, 33.214242)"><g/></g></g><g fill="#036147" fill-opacity="1"><g transform="translate(63.1918, 33.214242)"><g><path d="M 7.15625 0.34375 C 5.425781 0.34375 3.992188 -0.101562 2.859375 -1 C 1.722656 -1.90625 1.15625 -3.253906 1.15625 -5.046875 C 1.15625 -6.398438 1.472656 -7.457031 2.109375 -8.21875 C 2.742188 -8.988281 3.578125 -9.550781 4.609375 -9.90625 C 5.640625 -10.269531 6.75 -10.503906 7.9375 -10.609375 C 9.507812 -10.765625 10.632812 -10.929688 11.3125 -11.109375 C 11.988281 -11.285156 12.328125 -11.660156 12.328125 -12.234375 L 12.328125 -12.3125 C 12.328125 -13.050781 12.09375 -13.625 11.625 -14.03125 C 11.15625 -14.445312 10.492188 -14.65625 9.640625 -14.65625 C 8.734375 -14.65625 8.015625 -14.457031 7.484375 -14.0625 C 6.953125 -13.664062 6.597656 -13.164062 6.421875 -12.5625 L 1.78125 -12.953125 C 2.132812 -14.597656 2.992188 -15.898438 4.359375 -16.859375 C 5.722656 -17.828125 7.488281 -18.3125 9.65625 -18.3125 C 11 -18.3125 12.253906 -18.097656 13.421875 -17.671875 C 14.597656 -17.253906 15.539062 -16.59375 16.25 -15.6875 C 16.96875 -14.789062 17.328125 -13.625 17.328125 -12.1875 L 17.328125 0 L 12.578125 0 L 12.578125 -2.5 L 12.4375 -2.5 C 12 -1.664062 11.34375 -0.984375 10.46875 -0.453125 C 9.59375 0.078125 8.488281 0.34375 7.15625 0.34375 Z M 8.59375 -3.125 C 9.6875 -3.125 10.585938 -3.441406 11.296875 -4.078125 C 12.003906 -4.710938 12.359375 -5.507812 12.359375 -6.46875 L 12.359375 -8.375 C 12.160156 -8.238281 11.851562 -8.117188 11.4375 -8.015625 C 11.03125 -7.921875 10.59375 -7.835938 10.125 -7.765625 C 9.65625 -7.691406 9.238281 -7.625 8.875 -7.5625 C 8 -7.4375 7.289062 -7.1875 6.75 -6.8125 C 6.207031 -6.445312 5.9375 -5.914062 5.9375 -5.21875 C 5.9375 -4.519531 6.1875 -3.992188 6.6875 -3.640625 C 7.1875 -3.296875 7.820312 -3.125 8.59375 -3.125 Z M 8.59375 -3.125 "/></g></g></g><g fill="#036147" fill-opacity="1"><g transform="translate(82.417747, 33.214242)"><g><path d="M 7.015625 -10.453125 L 7.015625 0 L 2 0 L 2 -18.078125 L 6.78125 -18.078125 L 6.78125 -14.890625 L 6.984375 -14.890625 C 7.398438 -15.941406 8.078125 -16.773438 9.015625 -17.390625 C 9.953125 -18.003906 11.085938 -18.3125 12.421875 -18.3125 C 14.304688 -18.3125 15.816406 -17.703125 16.953125 -16.484375 C 18.097656 -15.273438 18.671875 -13.617188 18.671875 -11.515625 L 18.671875 0 L 13.65625 0 L 13.65625 -10.609375 C 13.65625 -11.722656 13.367188 -12.585938 12.796875 -13.203125 C 12.222656 -13.828125 11.4375 -14.140625 10.4375 -14.140625 C 9.425781 -14.140625 8.601562 -13.816406 7.96875 -13.171875 C 7.34375 -12.523438 7.023438 -11.617188 7.015625 -10.453125 Z M 7.015625 -10.453125 "/></g></g></g><g fill="#036147" fill-opacity="1"><g transform="translate(103.020339, 33.214242)"><g><path d="M 2 0 L 2 -18.078125 L 7.015625 -18.078125 L 7.015625 0 Z M 4.515625 -20.40625 C 3.773438 -20.40625 3.140625 -20.65625 2.609375 -21.15625 C 2.078125 -21.65625 1.8125 -22.253906 1.8125 -22.953125 C 1.8125 -23.648438 2.078125 -24.242188 2.609375 -24.734375 C 3.140625 -25.234375 3.773438 -25.484375 4.515625 -25.484375 C 5.253906 -25.484375 5.890625 -25.234375 6.421875 -24.734375 C 6.960938 -24.242188 7.234375 -23.648438 7.234375 -22.953125 C 7.234375 -22.253906 6.960938 -21.65625 6.421875 -21.15625 C 5.890625 -20.65625 5.253906 -20.40625 4.515625 -20.40625 Z M 4.515625 -20.40625 "/></g></g></g><g fill="#036147" fill-opacity="1"><g transform="translate(112.033238, 33.214242)"><g><path d="M 11.609375 -18.078125 L 11.609375 -14.3125 L 8.21875 -14.3125 L 8.21875 -5.5625 C 8.21875 -4.863281 8.375 -4.394531 8.6875 -4.15625 C 9 -3.914062 9.40625 -3.796875 9.90625 -3.796875 C 10.144531 -3.796875 10.378906 -3.816406 10.609375 -3.859375 C 10.847656 -3.898438 11.03125 -3.929688 11.15625 -3.953125 L 11.9375 -0.21875 C 11.6875 -0.144531 11.332031 -0.0546875 10.875 0.046875 C 10.425781 0.160156 9.878906 0.226562 9.234375 0.25 C 7.410156 0.320312 5.945312 -0.0703125 4.84375 -0.9375 C 3.738281 -1.800781 3.191406 -3.117188 3.203125 -4.890625 L 3.203125 -14.3125 L 0.734375 -14.3125 L 0.734375 -18.078125 L 3.203125 -18.078125 L 3.203125 -22.40625 L 8.21875 -22.40625 L 8.21875 -18.078125 Z M 11.609375 -18.078125 "/></g></g></g><g fill="#036147" fill-opacity="1"><g transform="translate(124.905455, 33.214242)"><g><path d="M 7.15625 0.34375 C 5.425781 0.34375 3.992188 -0.101562 2.859375 -1 C 1.722656 -1.90625 1.15625 -3.253906 1.15625 -5.046875 C 1.15625 -6.398438 1.472656 -7.457031 2.109375 -8.21875 C 2.742188 -8.988281 3.578125 -9.550781 4.609375 -9.90625 C 5.640625 -10.269531 6.75 -10.503906 7.9375 -10.609375 C 9.507812 -10.765625 10.632812 -10.929688 11.3125 -11.109375 C 11.988281 -11.285156 12.328125 -11.660156 12.328125 -12.234375 L 12.328125 -12.3125 C 12.328125 -13.050781 12.09375 -13.625 11.625 -14.03125 C 11.15625 -14.445312 10.492188 -14.65625 9.640625 -14.65625 C 8.734375 -14.65625 8.015625 -14.457031 7.484375 -14.0625 C 6.953125 -13.664062 6.597656 -13.164062 6.421875 -12.5625 L 1.78125 -12.953125 C 2.132812 -14.597656 2.992188 -15.898438 4.359375 -16.859375 C 5.722656 -17.828125 7.488281 -18.3125 9.65625 -18.3125 C 11 -18.3125 12.253906 -18.097656 13.421875 -17.671875 C 14.597656 -17.253906 15.539062 -16.59375 16.25 -15.6875 C 16.96875 -14.789062 17.328125 -13.625 17.328125 -12.1875 L 17.328125 0 L 12.578125 0 L 12.578125 -2.5 L 12.4375 -2.5 C 12 -1.664062 11.34375 -0.984375 10.46875 -0.453125 C 9.59375 0.078125 8.488281 0.34375 7.15625 0.34375 Z M 8.59375 -3.125 C 9.6875 -3.125 10.585938 -3.441406 11.296875 -4.078125 C 12.003906 -4.710938 12.359375 -5.507812 12.359375 -6.46875 L 12.359375 -8.375 C 12.160156 -8.238281 11.851562 -8.117188 11.4375 -8.015625 C 11.03125 -7.921875 10.59375 -7.835938 10.125 -7.765625 C 9.65625 -7.691406 9.238281 -7.625 8.875 -7.5625 C 8 -7.4375 7.289062 -7.1875 6.75 -6.8125 C 6.207031 -6.445312 5.9375 -5.914062 5.9375 -5.21875 C 5.9375 -4.519531 6.1875 -3.992188 6.6875 -3.640625 C 7.1875 -3.296875 7.820312 -3.125 8.59375 -3.125 Z M 8.59375 -3.125 "/></g></g></g><g fill="#036147" fill-opacity="1"><g transform="translate(0.660056, 66.573772)"><g><path d="M 8.65625 0.296875 C 7.289062 0.296875 6.050781 -0.0546875 4.9375 -0.765625 C 3.832031 -1.472656 2.953125 -2.519531 2.296875 -3.90625 C 1.648438 -5.289062 1.328125 -6.992188 1.328125 -9.015625 C 1.328125 -11.085938 1.660156 -12.8125 2.328125 -14.1875 C 3.003906 -15.5625 3.894531 -16.59375 5 -17.28125 C 6.113281 -17.96875 7.332031 -18.3125 8.65625 -18.3125 C 9.664062 -18.3125 10.507812 -18.140625 11.1875 -17.796875 C 11.863281 -17.453125 12.410156 -17.03125 12.828125 -16.53125 C 13.253906 -16.03125 13.578125 -15.535156 13.796875 -15.046875 L 13.953125 -15.046875 L 13.953125 -24.109375 L 18.953125 -24.109375 L 18.953125 0 L 14 0 L 14 -2.890625 L 13.796875 -2.890625 C 13.566406 -2.390625 13.234375 -1.894531 12.796875 -1.40625 C 12.367188 -0.914062 11.816406 -0.507812 11.140625 -0.1875 C 10.460938 0.132812 9.632812 0.296875 8.65625 0.296875 Z M 10.25 -3.703125 C 11.457031 -3.703125 12.390625 -4.1875 13.046875 -5.15625 C 13.710938 -6.132812 14.046875 -7.425781 14.046875 -9.03125 C 14.046875 -10.65625 13.71875 -11.941406 13.0625 -12.890625 C 12.40625 -13.847656 11.46875 -14.328125 10.25 -14.328125 C 9.007812 -14.328125 8.066406 -13.835938 7.421875 -12.859375 C 6.773438 -11.878906 6.453125 -10.601562 6.453125 -9.03125 C 6.453125 -7.457031 6.773438 -6.175781 7.421875 -5.1875 C 8.078125 -4.195312 9.019531 -3.703125 10.25 -3.703125 Z M 10.25 -3.703125 "/></g></g></g><g fill="#036147" fill-opacity="1"><g transform="translate(21.709776, 66.573772)"><g><path d="M 10.234375 0.359375 C 8.390625 0.359375 6.796875 -0.0195312 5.453125 -0.78125 C 4.109375 -1.539062 3.070312 -2.613281 2.34375 -4 C 1.625 -5.394531 1.265625 -7.046875 1.265625 -8.953125 C 1.265625 -10.816406 1.625 -12.445312 2.34375 -13.84375 C 3.070312 -15.25 4.09375 -16.34375 5.40625 -17.125 C 6.71875 -17.914062 8.257812 -18.3125 10.03125 -18.3125 C 11.625 -18.3125 13.0625 -17.972656 14.34375 -17.296875 C 15.632812 -16.617188 16.65625 -15.597656 17.40625 -14.234375 C 18.15625 -12.878906 18.53125 -11.175781 18.53125 -9.125 L 18.53125 -7.75 L 6.21875 -7.75 C 6.21875 -6.394531 6.585938 -5.328125 7.328125 -4.546875 C 8.066406 -3.773438 9.066406 -3.390625 10.328125 -3.390625 C 11.160156 -3.390625 11.882812 -3.566406 12.5 -3.921875 C 13.113281 -4.273438 13.546875 -4.796875 13.796875 -5.484375 L 18.421875 -5.171875 C 18.078125 -3.492188 17.1875 -2.148438 15.75 -1.140625 C 14.3125 -0.140625 12.472656 0.359375 10.234375 0.359375 Z M 6.21875 -10.859375 L 13.8125 -10.859375 C 13.800781 -11.929688 13.453125 -12.816406 12.765625 -13.515625 C 12.085938 -14.210938 11.207031 -14.5625 10.125 -14.5625 C 9.007812 -14.5625 8.09375 -14.203125 7.375 -13.484375 C 6.664062 -12.765625 6.28125 -11.890625 6.21875 -10.859375 Z M 6.21875 -10.859375 "/></g></g></g><g fill="#036147" fill-opacity="1"><g transform="translate(41.51228, 66.573772)"><g><path d="M 7.015625 -24.109375 L 7.015625 0 L 2 0 L 2 -24.109375 Z M 7.015625 -24.109375 "/></g></g></g><g fill="#036147" fill-opacity="1"><g transform="translate(50.52518, 66.573772)"><g><path d="M 7.015625 -24.109375 L 7.015625 0 L 2 0 L 2 -24.109375 Z M 7.015625 -24.109375 "/></g></g></g><g fill="#036147" fill-opacity="1"><g transform="translate(59.53808, 66.573772)"><g><path d="M 2 0 L 2 -18.078125 L 7.015625 -18.078125 L 7.015625 0 Z M 4.515625 -20.40625 C 3.773438 -20.40625 3.140625 -20.65625 2.609375 -21.15625 C 2.078125 -21.65625 1.8125 -22.253906 1.8125 -22.953125 C 1.8125 -23.648438 2.078125 -24.242188 2.609375 -24.734375 C 3.140625 -25.234375 3.773438 -25.484375 4.515625 -25.484375 C 5.253906 -25.484375 5.890625 -25.234375 6.421875 -24.734375 C 6.960938 -24.242188 7.234375 -23.648438 7.234375 -22.953125 C 7.234375 -22.253906 6.960938 -21.65625 6.421875 -21.15625 C 5.890625 -20.65625 5.253906 -20.40625 4.515625 -20.40625 Z M 4.515625 -20.40625 "/></g></g></g><g fill="#036147" fill-opacity="1"><g transform="translate(68.55098, 66.573772)"><g><path d="M 7.015625 -10.453125 L 7.015625 0 L 2 0 L 2 -18.078125 L 6.78125 -18.078125 L 6.78125 -14.890625 L 6.984375 -14.890625 C 7.398438 -15.941406 8.078125 -16.773438 9.015625 -17.390625 C 9.953125 -18.003906 11.085938 -18.3125 12.421875 -18.3125 C 14.304688 -18.3125 15.816406 -17.703125 16.953125 -16.484375 C 18.097656 -15.273438 18.671875 -13.617188 18.671875 -11.515625 L 18.671875 0 L 13.65625 0 L 13.65625 -10.609375 C 13.65625 -11.722656 13.367188 -12.585938 12.796875 -13.203125 C 12.222656 -13.828125 11.4375 -14.140625 10.4375 -14.140625 C 9.425781 -14.140625 8.601562 -13.816406 7.96875 -13.171875 C 7.34375 -12.523438 7.023438 -11.617188 7.015625 -10.453125 Z M 7.015625 -10.453125 "/></g></g></g><g fill="#036147" fill-opacity="1"><g transform="translate(89.153571, 66.573772)"><g><path d="M 10.140625 7.03125 C 7.710938 7.03125 5.800781 6.550781 4.40625 5.59375 C 3.019531 4.644531 2.179688 3.488281 1.890625 2.125 L 6.515625 1.5 C 6.722656 1.976562 7.125 2.421875 7.71875 2.828125 C 8.3125 3.234375 9.160156 3.4375 10.265625 3.4375 C 11.347656 3.4375 12.242188 3.175781 12.953125 2.65625 C 13.671875 2.144531 14.03125 1.296875 14.03125 0.109375 L 14.03125 -3.203125 L 13.8125 -3.203125 C 13.488281 -2.453125 12.910156 -1.773438 12.078125 -1.171875 C 11.242188 -0.566406 10.101562 -0.265625 8.65625 -0.265625 C 7.300781 -0.265625 6.066406 -0.582031 4.953125 -1.21875 C 3.847656 -1.851562 2.96875 -2.820312 2.3125 -4.125 C 1.65625 -5.425781 1.328125 -7.078125 1.328125 -9.078125 C 1.328125 -11.128906 1.660156 -12.835938 2.328125 -14.203125 C 3.003906 -15.566406 3.894531 -16.59375 5 -17.28125 C 6.113281 -17.96875 7.332031 -18.3125 8.65625 -18.3125 C 9.664062 -18.3125 10.507812 -18.140625 11.1875 -17.796875 C 11.875 -17.453125 12.425781 -17.03125 12.84375 -16.53125 C 13.269531 -16.03125 13.59375 -15.535156 13.8125 -15.046875 L 14 -15.046875 L 14 -18.078125 L 18.984375 -18.078125 L 18.984375 0.171875 C 18.984375 1.671875 18.601562 2.929688 17.84375 3.953125 C 17.09375 4.972656 16.050781 5.738281 14.71875 6.25 C 13.394531 6.769531 11.867188 7.03125 10.140625 7.03125 Z M 10.25 -4.03125 C 11.457031 -4.03125 12.390625 -4.472656 13.046875 -5.359375 C 13.710938 -6.253906 14.046875 -7.5 14.046875 -9.09375 C 14.046875 -10.675781 13.71875 -11.941406 13.0625 -12.890625 C 12.40625 -13.847656 11.46875 -14.328125 10.25 -14.328125 C 9.007812 -14.328125 8.066406 -13.835938 7.421875 -12.859375 C 6.773438 -11.890625 6.453125 -10.632812 6.453125 -9.09375 C 6.453125 -7.53125 6.773438 -6.296875 7.421875 -5.390625 C 8.078125 -4.484375 9.019531 -4.03125 10.25 -4.03125 Z M 10.25 -4.03125 "/></g></g></g><g fill="#036147" fill-opacity="1"><g transform="translate(110.132689, 66.573772)"><g><path d="M 10.234375 0.359375 C 8.390625 0.359375 6.796875 -0.0195312 5.453125 -0.78125 C 4.109375 -1.539062 3.070312 -2.613281 2.34375 -4 C 1.625 -5.394531 1.265625 -7.046875 1.265625 -8.953125 C 1.265625 -10.816406 1.625 -12.445312 2.34375 -13.84375 C 3.070312 -15.25 4.09375 -16.34375 5.40625 -17.125 C 6.71875 -17.914062 8.257812 -18.3125 10.03125 -18.3125 C 11.625 -18.3125 13.0625 -17.972656 14.34375 -17.296875 C 15.632812 -16.617188 16.65625 -15.597656 17.40625 -14.234375 C 18.15625 -12.878906 18.53125 -11.175781 18.53125 -9.125 L 18.53125 -7.75 L 6.21875 -7.75 C 6.21875 -6.394531 6.585938 -5.328125 7.328125 -4.546875 C 8.066406 -3.773438 9.066406 -3.390625 10.328125 -3.390625 C 11.160156 -3.390625 11.882812 -3.566406 12.5 -3.921875 C 13.113281 -4.273438 13.546875 -4.796875 13.796875 -5.484375 L 18.421875 -5.171875 C 18.078125 -3.492188 17.1875 -2.148438 15.75 -1.140625 C 14.3125 -0.140625 12.472656 0.359375 10.234375 0.359375 Z M 6.21875 -10.859375 L 13.8125 -10.859375 C 13.800781 -11.929688 13.453125 -12.816406 12.765625 -13.515625 C 12.085938 -14.210938 11.207031 -14.5625 10.125 -14.5625 C 9.007812 -14.5625 8.09375 -14.203125 7.375 -13.484375 C 6.664062 -12.765625 6.28125 -11.890625 6.21875 -10.859375 Z M 6.21875 -10.859375 "/></g></g></g><g fill="#036147" fill-opacity="1"><g transform="translate(129.935193, 66.573772)"><g><path d="M 2 0 L 2 -18.078125 L 6.859375 -18.078125 L 6.859375 -14.921875 L 7.046875 -14.921875 C 7.378906 -16.046875 7.929688 -16.894531 8.703125 -17.46875 C 9.472656 -18.039062 10.367188 -18.328125 11.390625 -18.328125 C 11.878906 -18.328125 12.332031 -18.269531 12.75 -18.15625 C 13.164062 -18.039062 13.535156 -17.878906 13.859375 -17.671875 L 12.359375 -13.53125 C 12.117188 -13.644531 11.859375 -13.742188 11.578125 -13.828125 C 11.304688 -13.910156 11 -13.953125 10.65625 -13.953125 C 9.632812 -13.953125 8.773438 -13.609375 8.078125 -12.921875 C 7.378906 -12.234375 7.023438 -11.335938 7.015625 -10.234375 L 7.015625 0 Z M 2 0 "/></g></g></g></g></g></svg>