<svg xmlns="http://www.w3.org/2000/svg" xmlns:xlink="http://www.w3.org/1999/xlink" width="500" zoomAndPan="magnify" viewBox="0 0 375 374.999991" height="500" preserveAspectRatio="xMidYMid meet" version="1.0"><defs><g/><clipPath id="79817dad83"><path d="M 86.375 86.375 L 288.625 86.375 L 288.625 288.625 L 86.375 288.625 Z M 86.375 86.375 " clip-rule="nonzero"/></clipPath><clipPath id="dbfc20818e"><path d="M 187.5 86.375 C 131.648438 86.375 86.375 131.648438 86.375 187.5 C 86.375 243.351562 131.648438 288.625 187.5 288.625 C 243.351562 288.625 288.625 243.351562 288.625 187.5 C 288.625 131.648438 243.351562 86.375 187.5 86.375 Z M 187.5 86.375 " clip-rule="nonzero"/></clipPath><clipPath id="c56fb8cd8a"><path d="M 0.375 0.375 L 202.625 0.375 L 202.625 202.625 L 0.375 202.625 Z M 0.375 0.375 " clip-rule="nonzero"/></clipPath><clipPath id="7ded45073a"><path d="M 101.5 0.375 C 45.648438 0.375 0.375 45.648438 0.375 101.5 C 0.375 157.351562 45.648438 202.625 101.5 202.625 C 157.351562 202.625 202.625 157.351562 202.625 101.5 C 202.625 45.648438 157.351562 0.375 101.5 0.375 Z M 101.5 0.375 " clip-rule="nonzero"/></clipPath><clipPath id="7e1b7b1095"><rect x="0" width="203" y="0" height="203"/></clipPath><clipPath id="8479918e34"><path d="M 86.375 86.375 L 288.617188 86.375 L 288.617188 288.617188 L 86.375 288.617188 Z M 86.375 86.375 " clip-rule="nonzero"/></clipPath><clipPath id="5cb32d9582"><path d="M 187.496094 86.375 C 131.648438 86.375 86.375 131.648438 86.375 187.496094 C 86.375 243.34375 131.648438 288.617188 187.496094 288.617188 C 243.34375 288.617188 288.617188 243.34375 288.617188 187.496094 C 288.617188 131.648438 243.34375 86.375 187.496094 86.375 Z M 187.496094 86.375 " clip-rule="nonzero"/></clipPath><clipPath id="086413e7ef"><path d="M 148 149 L 227 149 L 227 216.597656 L 148 216.597656 Z M 148 149 " clip-rule="nonzero"/></clipPath><clipPath id="442cbef60f"><path d="M 100.582031 199 L 130 199 L 130 207 L 100.582031 207 Z M 100.582031 199 " clip-rule="nonzero"/></clipPath><clipPath id="2c05eadb3f"><path d="M 131 208 L 157 208 L 157 216.597656 L 131 216.597656 Z M 131 208 " clip-rule="nonzero"/></clipPath><clipPath id="d08bc2afca"><path d="M 117 202 L 153 202 L 153 216.597656 L 117 216.597656 Z M 117 202 " clip-rule="nonzero"/></clipPath><clipPath id="a5e9af489e"><path d="M 133 214 L 162 214 L 162 216.597656 L 133 216.597656 Z M 133 214 " clip-rule="nonzero"/></clipPath><clipPath id="420a67b1b1"><path d="M 213 215 L 241 215 L 241 216.597656 L 213 216.597656 Z M 213 215 " clip-rule="nonzero"/></clipPath><clipPath id="a8ecfb21b1"><path d="M 218 209 L 237 209 L 237 216.597656 L 218 216.597656 Z M 218 209 " clip-rule="nonzero"/></clipPath><clipPath id="a3f562e83c"><path d="M 245 171 L 274.582031 171 L 274.582031 179 L 245 179 Z M 245 171 " clip-rule="nonzero"/></clipPath><clipPath id="cec64e7216"><path d="M 221 202 L 257 202 L 257 216.597656 L 221 216.597656 Z M 221 202 " clip-rule="nonzero"/></clipPath><clipPath id="cb23c05bda"><path d="M 170 101.847656 L 178 101.847656 L 178 131 L 170 131 Z M 170 101.847656 " clip-rule="nonzero"/></clipPath><clipPath id="6f8f38f4c8"><rect x="0" width="137" y="0" height="37"/></clipPath></defs><g clip-path="url(#79817dad83)"><g clip-path="url(#dbfc20818e)"><g transform="matrix(1, 0, 0, 1, 86, 86)"><g clip-path="url(#7e1b7b1095)"><g clip-path="url(#c56fb8cd8a)"><g clip-path="url(#7ded45073a)"><path fill="#ffffff" d="M 0.375 0.375 L 202.625 0.375 L 202.625 202.625 L 0.375 202.625 Z M 0.375 0.375 " fill-opacity="1" fill-rule="nonzero"/></g></g></g></g></g></g><g clip-path="url(#8479918e34)"><g clip-path="url(#5cb32d9582)"><path stroke-linecap="butt" transform="matrix(0.75, 0, 0, 0.75, 86.37314, 86.373136)" fill="none" stroke-linejoin="miter" d="M 134.830613 0.00248543 C 60.367067 0.00248543 0.00247943 60.367073 0.00247943 134.830619 C 0.00247943 209.294166 60.367067 269.658753 134.830613 269.658753 C 209.29416 269.658753 269.658747 209.294166 269.658747 134.830619 C 269.658747 60.367073 209.29416 0.00248543 134.830613 0.00248543 Z M 134.830613 0.00248543 " stroke="#2a5711" stroke-width="4" stroke-opacity="1" stroke-miterlimit="4"/></g></g><g clip-path="url(#086413e7ef)"><path fill="#2a5711" d="M 166.441406 219.769531 C 183.515625 231.382812 206.855469 226.933594 218.46875 209.855469 C 224.09375 201.585938 226.160156 191.617188 224.285156 181.789062 C 222.414062 171.964844 216.828125 163.453125 208.554688 157.828125 C 200.28125 152.203125 190.316406 150.136719 180.488281 152.011719 C 170.660156 153.882812 162.152344 159.46875 156.527344 167.742188 C 144.917969 184.820312 149.363281 208.160156 166.441406 219.769531 Z M 187.4375 227.910156 C 179.867188 227.910156 172.21875 225.722656 165.5 221.152344 C 147.660156 209.023438 143.011719 184.640625 155.144531 166.800781 C 161.019531 158.160156 169.910156 152.324219 180.175781 150.367188 C 190.441406 148.410156 200.851562 150.570312 209.496094 156.445312 C 218.136719 162.320312 223.972656 171.210938 225.929688 181.476562 C 227.886719 191.742188 225.726562 202.15625 219.851562 210.796875 C 212.289062 221.917969 199.96875 227.910156 187.4375 227.910156 " fill-opacity="1" fill-rule="nonzero"/></g><path fill="#2a5711" d="M 155.835938 168.109375 C 155.671875 168.109375 155.507812 168.0625 155.363281 167.964844 L 138.890625 156.765625 C 138.511719 156.503906 138.410156 155.984375 138.671875 155.601562 C 138.929688 155.21875 139.449219 155.121094 139.832031 155.378906 L 156.304688 166.578125 C 156.6875 166.839844 156.785156 167.359375 156.527344 167.742188 C 156.363281 167.980469 156.101562 168.109375 155.835938 168.109375 " fill-opacity="1" fill-rule="nonzero"/><path fill="#2a5711" d="M 134.824219 153.824219 C 134.664062 153.824219 134.5 153.777344 134.355469 153.679688 L 107.921875 135.707031 C 107.539062 135.445312 107.4375 134.925781 107.699219 134.542969 C 107.957031 134.160156 108.480469 134.0625 108.863281 134.320312 L 135.296875 152.296875 C 135.679688 152.554688 135.777344 153.074219 135.515625 153.457031 C 135.355469 153.695312 135.09375 153.824219 134.824219 153.824219 " fill-opacity="1" fill-rule="nonzero"/><path fill="#2a5711" d="M 135.472656 199.546875 C 135.078125 199.546875 134.730469 199.269531 134.652344 198.867188 C 134.566406 198.414062 134.863281 197.976562 135.316406 197.890625 L 149.730469 195.144531 C 150.183594 195.058594 150.621094 195.355469 150.707031 195.808594 C 150.792969 196.261719 150.496094 196.703125 150.042969 196.789062 L 135.632812 199.535156 C 135.578125 199.542969 135.523438 199.546875 135.472656 199.546875 " fill-opacity="1" fill-rule="nonzero"/><g clip-path="url(#442cbef60f)"><path fill="#2a5711" d="M 101.496094 206.023438 C 101.101562 206.023438 100.75 205.742188 100.675781 205.34375 C 100.585938 204.886719 100.886719 204.449219 101.339844 204.363281 L 128.300781 199.226562 C 128.757812 199.140625 129.191406 199.4375 129.28125 199.890625 C 129.367188 200.347656 129.070312 200.785156 128.613281 200.871094 L 101.652344 206.007812 C 101.601562 206.015625 101.546875 206.023438 101.496094 206.023438 " fill-opacity="1" fill-rule="nonzero"/></g><path fill="#2a5711" d="M 150.007812 181.863281 C 149.949219 181.863281 149.894531 181.859375 149.835938 181.847656 L 122.625 176.203125 C 122.171875 176.109375 121.882812 175.667969 121.976562 175.214844 C 122.066406 174.761719 122.511719 174.46875 122.964844 174.566406 L 150.175781 180.207031 C 150.628906 180.300781 150.917969 180.746094 150.824219 181.195312 C 150.746094 181.59375 150.394531 181.863281 150.007812 181.863281 " fill-opacity="1" fill-rule="nonzero"/><g clip-path="url(#2c05eadb3f)"><path fill="#2a5711" d="M 132.261719 225.902344 C 131.988281 225.902344 131.722656 225.769531 131.5625 225.523438 C 131.308594 225.140625 131.414062 224.621094 131.800781 224.367188 L 155.03125 209.113281 C 155.417969 208.859375 155.9375 208.96875 156.191406 209.355469 C 156.445312 209.742188 156.335938 210.257812 155.949219 210.511719 L 132.71875 225.765625 C 132.578125 225.859375 132.417969 225.902344 132.261719 225.902344 " fill-opacity="1" fill-rule="nonzero"/></g><path fill="#2a5711" d="M 152.242188 174.699219 C 152.132812 174.699219 152.023438 174.679688 151.917969 174.632812 L 118.878906 160.632812 C 118.453125 160.453125 118.253906 159.964844 118.433594 159.539062 C 118.613281 159.113281 119.105469 158.914062 119.53125 159.09375 L 152.570312 173.09375 C 152.996094 173.273438 153.195312 173.761719 153.015625 174.1875 C 152.878906 174.507812 152.570312 174.699219 152.242188 174.699219 " fill-opacity="1" fill-rule="nonzero"/><path fill="#2a5711" d="M 116.410156 159.515625 C 116.300781 159.515625 116.191406 159.496094 116.082031 159.449219 L 112.492188 157.929688 C 112.066406 157.746094 111.867188 157.257812 112.046875 156.832031 C 112.226562 156.40625 112.71875 156.207031 113.144531 156.386719 L 116.738281 157.910156 C 117.164062 158.089844 117.359375 158.582031 117.179688 159.007812 C 117.046875 159.324219 116.734375 159.515625 116.410156 159.515625 " fill-opacity="1" fill-rule="nonzero"/><path fill="#2a5711" d="M 149.210938 189.328125 C 149.207031 189.328125 149.207031 189.328125 149.203125 189.328125 L 113.324219 189.039062 C 112.859375 189.035156 112.488281 188.65625 112.492188 188.195312 C 112.496094 187.734375 112.859375 187.335938 113.335938 187.363281 L 149.21875 187.652344 C 149.679688 187.65625 150.050781 188.035156 150.046875 188.496094 C 150.042969 188.957031 149.671875 189.328125 149.210938 189.328125 " fill-opacity="1" fill-rule="nonzero"/><path fill="#2a5711" d="M 110.296875 189.011719 C 110.292969 189.011719 110.289062 189.011719 110.289062 189.011719 L 106.386719 188.980469 C 105.921875 188.976562 105.550781 188.601562 105.554688 188.136719 C 105.558594 187.679688 105.933594 187.308594 106.390625 187.308594 C 106.394531 187.308594 106.398438 187.308594 106.398438 187.308594 L 110.300781 187.339844 C 110.761719 187.34375 111.136719 187.71875 111.132812 188.183594 C 111.128906 188.640625 110.753906 189.011719 110.296875 189.011719 " fill-opacity="1" fill-rule="nonzero"/><g clip-path="url(#d08bc2afca)"><path fill="#2a5711" d="M 118.746094 217.464844 C 118.414062 217.464844 118.101562 217.269531 117.972656 216.941406 C 117.796875 216.515625 118.003906 216.027344 118.433594 215.851562 L 151.691406 202.390625 C 152.121094 202.21875 152.609375 202.421875 152.78125 202.851562 C 152.957031 203.28125 152.75 203.765625 152.320312 203.941406 L 119.058594 217.40625 C 118.957031 217.445312 118.851562 217.464844 118.746094 217.464844 " fill-opacity="1" fill-rule="nonzero"/></g><g clip-path="url(#a5e9af489e)"><path fill="#2a5711" d="M 134.628906 241.65625 C 134.414062 241.65625 134.199219 241.574219 134.035156 241.40625 C 133.707031 241.078125 133.714844 240.546875 134.042969 240.222656 L 159.621094 215.058594 C 159.949219 214.734375 160.476562 214.738281 160.800781 215.066406 C 161.125 215.394531 161.121094 215.925781 160.792969 216.25 L 135.214844 241.417969 C 135.054688 241.578125 134.84375 241.65625 134.628906 241.65625 " fill-opacity="1" fill-rule="nonzero"/></g><g clip-path="url(#420a67b1b1)"><path fill="#2a5711" d="M 239.519531 242.503906 C 239.300781 242.503906 239.085938 242.421875 238.921875 242.253906 L 213.753906 216.675781 C 213.429688 216.347656 213.433594 215.820312 213.765625 215.496094 C 214.09375 215.171875 214.625 215.175781 214.949219 215.503906 L 240.113281 241.082031 C 240.4375 241.410156 240.433594 241.9375 240.105469 242.261719 C 239.941406 242.425781 239.730469 242.503906 239.519531 242.503906 " fill-opacity="1" fill-rule="nonzero"/></g><g clip-path="url(#a8ecfb21b1)"><path fill="#2a5711" d="M 235.628906 222.363281 C 235.46875 222.363281 235.304688 222.316406 235.160156 222.21875 L 218.6875 211.019531 C 218.304688 210.757812 218.207031 210.238281 218.46875 209.855469 C 218.726562 209.472656 219.246094 209.375 219.628906 209.636719 L 236.101562 220.835938 C 236.484375 221.09375 236.582031 221.617188 236.324219 221.996094 C 236.160156 222.234375 235.898438 222.363281 235.628906 222.363281 " fill-opacity="1" fill-rule="nonzero"/></g><path fill="#2a5711" d="M 225.105469 182.46875 C 224.710938 182.46875 224.363281 182.191406 224.285156 181.789062 C 224.199219 181.335938 224.496094 180.898438 224.953125 180.8125 L 239.363281 178.066406 C 239.816406 177.980469 240.253906 178.277344 240.339844 178.730469 C 240.429688 179.1875 240.128906 179.625 239.675781 179.710938 L 225.265625 182.457031 C 225.210938 182.464844 225.15625 182.46875 225.105469 182.46875 " fill-opacity="1" fill-rule="nonzero"/><g clip-path="url(#a3f562e83c)"><path fill="#2a5711" d="M 246.535156 178.386719 C 246.140625 178.386719 245.792969 178.109375 245.714844 177.707031 C 245.628906 177.253906 245.925781 176.816406 246.378906 176.730469 L 273.34375 171.59375 C 273.796875 171.507812 274.234375 171.804688 274.320312 172.257812 C 274.40625 172.710938 274.109375 173.148438 273.652344 173.234375 L 246.691406 178.371094 C 246.640625 178.382812 246.585938 178.386719 246.535156 178.386719 " fill-opacity="1" fill-rule="nonzero"/></g><path fill="#2a5711" d="M 252.199219 203.050781 C 252.144531 203.050781 252.085938 203.046875 252.03125 203.03125 L 224.816406 197.390625 C 224.363281 197.296875 224.074219 196.855469 224.167969 196.402344 C 224.261719 195.949219 224.703125 195.660156 225.15625 195.753906 L 252.371094 201.394531 C 252.824219 201.488281 253.113281 201.929688 253.019531 202.382812 C 252.9375 202.777344 252.589844 203.050781 252.199219 203.050781 " fill-opacity="1" fill-rule="nonzero"/><path fill="#2a5711" d="M 219.503906 168.621094 C 219.230469 168.621094 218.964844 168.488281 218.804688 168.246094 C 218.550781 167.859375 218.65625 167.339844 219.042969 167.085938 L 242.273438 151.832031 C 242.660156 151.578125 243.179688 151.6875 243.433594 152.074219 C 243.6875 152.460938 243.578125 152.980469 243.191406 153.234375 L 219.960938 168.484375 C 219.820312 168.578125 219.660156 168.621094 219.503906 168.621094 " fill-opacity="1" fill-rule="nonzero"/><g clip-path="url(#cec64e7216)"><path fill="#2a5711" d="M 255.789062 218.570312 C 255.679688 218.570312 255.570312 218.550781 255.460938 218.503906 L 222.421875 204.507812 C 222 204.328125 221.800781 203.835938 221.980469 203.410156 C 222.160156 202.984375 222.652344 202.785156 223.078125 202.964844 L 256.113281 216.964844 C 256.539062 217.144531 256.738281 217.636719 256.558594 218.0625 C 256.425781 218.382812 256.113281 218.570312 255.789062 218.570312 " fill-opacity="1" fill-rule="nonzero"/></g><path fill="#2a5711" d="M 261.664062 190.234375 C 261.664062 190.234375 261.660156 190.234375 261.65625 190.234375 L 225.777344 189.945312 C 225.316406 189.941406 224.941406 189.5625 224.945312 189.101562 C 224.949219 188.640625 225.324219 188.273438 225.78125 188.273438 C 225.785156 188.273438 225.789062 188.273438 225.789062 188.273438 L 261.671875 188.5625 C 262.132812 188.566406 262.503906 188.941406 262.5 189.40625 C 262.496094 189.863281 262.125 190.234375 261.664062 190.234375 " fill-opacity="1" fill-rule="nonzero"/><path fill="#2a5711" d="M 268.601562 190.292969 C 268.601562 190.292969 268.597656 190.292969 268.59375 190.292969 L 264.691406 190.257812 C 264.230469 190.257812 263.859375 189.878906 263.863281 189.417969 C 263.867188 188.953125 264.253906 188.585938 264.707031 188.585938 L 268.609375 188.617188 C 269.070312 188.621094 269.441406 189 269.4375 189.460938 C 269.433594 189.921875 269.0625 190.292969 268.601562 190.292969 " fill-opacity="1" fill-rule="nonzero"/><path fill="#2a5711" d="M 222.988281 175.269531 C 222.65625 175.269531 222.34375 175.074219 222.210938 174.746094 C 222.039062 174.320312 222.246094 173.832031 222.671875 173.660156 L 255.933594 160.195312 C 256.363281 160.023438 256.851562 160.226562 257.023438 160.65625 C 257.195312 161.085938 256.988281 161.574219 256.5625 161.746094 L 223.300781 175.210938 C 223.199219 175.25 223.09375 175.269531 222.988281 175.269531 " fill-opacity="1" fill-rule="nonzero"/><path fill="#2a5711" d="M 259.0625 160.667969 C 258.730469 160.667969 258.417969 160.472656 258.285156 160.144531 C 258.113281 159.71875 258.320312 159.230469 258.746094 159.054688 L 262.363281 157.589844 C 262.792969 157.417969 263.28125 157.625 263.453125 158.054688 C 263.628906 158.480469 263.421875 158.96875 262.992188 159.144531 L 259.375 160.605469 C 259.273438 160.648438 259.167969 160.667969 259.0625 160.667969 " fill-opacity="1" fill-rule="nonzero"/><path fill="#2a5711" d="M 214.789062 162.78125 C 214.570312 162.78125 214.355469 162.699219 214.191406 162.53125 C 213.867188 162.203125 213.871094 161.675781 214.199219 161.347656 L 239.777344 136.183594 C 240.105469 135.859375 240.636719 135.863281 240.960938 136.191406 C 241.285156 136.523438 241.28125 137.050781 240.953125 137.375 L 215.375 162.542969 C 215.210938 162.703125 215 162.78125 214.789062 162.78125 " fill-opacity="1" fill-rule="nonzero"/><path fill="#2a5711" d="M 242.527344 135.488281 C 242.3125 135.488281 242.09375 135.402344 241.933594 135.238281 C 241.609375 134.90625 241.613281 134.378906 241.941406 134.054688 L 244.722656 131.316406 C 245.054688 130.992188 245.582031 130.996094 245.90625 131.328125 C 246.230469 131.65625 246.226562 132.1875 245.894531 132.511719 L 243.113281 135.246094 C 242.953125 135.40625 242.738281 135.488281 242.527344 135.488281 " fill-opacity="1" fill-rule="nonzero"/><path fill="#2a5711" d="M 209.023438 157.976562 C 208.863281 157.976562 208.699219 157.929688 208.554688 157.828125 C 208.171875 157.570312 208.074219 157.050781 208.332031 156.667969 L 219.53125 140.195312 C 219.792969 139.8125 220.3125 139.714844 220.695312 139.972656 C 221.078125 140.234375 221.175781 140.753906 220.917969 141.136719 L 209.714844 157.609375 C 209.554688 157.847656 209.292969 157.976562 209.023438 157.976562 " fill-opacity="1" fill-rule="nonzero"/><path fill="#2a5711" d="M 223.308594 136.964844 C 223.148438 136.964844 222.984375 136.917969 222.839844 136.820312 C 222.457031 136.558594 222.359375 136.039062 222.617188 135.65625 L 240.589844 109.222656 C 240.851562 108.839844 241.371094 108.742188 241.753906 109 C 242.136719 109.261719 242.234375 109.78125 241.976562 110.164062 L 224 136.597656 C 223.839844 136.835938 223.578125 136.964844 223.308594 136.964844 " fill-opacity="1" fill-rule="nonzero"/><path fill="#2a5711" d="M 180.328125 152.027344 C 179.9375 152.027344 179.585938 151.746094 179.507812 151.347656 L 176.761719 136.933594 C 176.675781 136.480469 176.976562 136.039062 177.429688 135.957031 C 177.882812 135.871094 178.320312 136.167969 178.40625 136.621094 L 181.152344 151.03125 C 181.238281 151.488281 180.941406 151.925781 180.488281 152.011719 C 180.433594 152.019531 180.382812 152.027344 180.328125 152.027344 " fill-opacity="1" fill-rule="nonzero"/><g clip-path="url(#cb23c05bda)"><path fill="#2a5711" d="M 176.246094 130.597656 C 175.855469 130.597656 175.503906 130.320312 175.425781 129.917969 L 170.289062 102.957031 C 170.203125 102.5 170.5 102.0625 170.953125 101.976562 C 171.40625 101.890625 171.847656 102.1875 171.933594 102.644531 L 177.070312 129.605469 C 177.15625 130.058594 176.859375 130.496094 176.40625 130.582031 C 176.351562 130.59375 176.300781 130.597656 176.246094 130.597656 " fill-opacity="1" fill-rule="nonzero"/></g><path fill="#2a5711" d="M 195.269531 152.148438 C 195.214844 152.148438 195.15625 152.140625 195.097656 152.128906 C 194.648438 152.035156 194.355469 151.59375 194.449219 151.140625 L 200.09375 123.925781 C 200.1875 123.476562 200.628906 123.183594 201.082031 123.277344 C 201.535156 123.371094 201.824219 123.816406 201.730469 124.265625 L 196.089844 151.480469 C 196.007812 151.875 195.660156 152.148438 195.269531 152.148438 " fill-opacity="1" fill-rule="nonzero"/><path fill="#2a5711" d="M 166.484375 157.628906 C 166.210938 157.628906 165.945312 157.5 165.785156 157.253906 L 150.53125 134.019531 C 150.277344 133.636719 150.386719 133.117188 150.769531 132.863281 C 151.160156 132.609375 151.675781 132.714844 151.929688 133.101562 L 167.183594 156.335938 C 167.4375 156.722656 167.328125 157.238281 166.941406 157.492188 C 166.800781 157.585938 166.640625 157.628906 166.484375 157.628906 " fill-opacity="1" fill-rule="nonzero"/><path fill="#2a5711" d="M 202.433594 154.382812 C 202.324219 154.382812 202.214844 154.363281 202.109375 154.316406 C 201.683594 154.136719 201.484375 153.644531 201.664062 153.222656 L 215.660156 120.183594 C 215.84375 119.753906 216.335938 119.558594 216.757812 119.738281 C 217.183594 119.917969 217.382812 120.410156 217.203125 120.832031 L 203.203125 153.871094 C 203.070312 154.191406 202.761719 154.382812 202.433594 154.382812 " fill-opacity="1" fill-rule="nonzero"/><path fill="#2a5711" d="M 217.617188 118.550781 C 217.507812 118.550781 217.398438 118.527344 217.289062 118.484375 C 216.863281 118.304688 216.667969 117.8125 216.847656 117.386719 L 218.371094 113.792969 C 218.550781 113.367188 219.042969 113.167969 219.464844 113.347656 C 219.890625 113.527344 220.089844 114.019531 219.910156 114.445312 L 218.386719 118.039062 C 218.253906 118.359375 217.941406 118.550781 217.617188 118.550781 " fill-opacity="1" fill-rule="nonzero"/><path fill="#2a5711" d="M 187.808594 151.347656 C 187.804688 151.347656 187.800781 151.347656 187.800781 151.347656 C 187.335938 151.347656 186.964844 150.96875 186.96875 150.507812 L 187.257812 114.625 C 187.261719 114.164062 187.65625 113.785156 188.101562 113.796875 C 188.566406 113.800781 188.9375 114.175781 188.933594 114.640625 L 188.644531 150.519531 C 188.640625 150.980469 188.265625 151.347656 187.808594 151.347656 " fill-opacity="1" fill-rule="nonzero"/><path fill="#2a5711" d="M 188.121094 112.433594 C 188.117188 112.433594 188.117188 112.433594 188.113281 112.433594 C 187.652344 112.429688 187.28125 112.054688 187.285156 111.589844 L 187.316406 107.6875 C 187.320312 107.226562 187.691406 106.859375 188.152344 106.859375 C 188.152344 106.859375 188.15625 106.859375 188.160156 106.859375 C 188.621094 106.863281 188.992188 107.238281 188.988281 107.703125 L 188.957031 111.605469 C 188.953125 112.0625 188.578125 112.433594 188.121094 112.433594 " fill-opacity="1" fill-rule="nonzero"/><path fill="#2a5711" d="M 173.132812 154.144531 C 172.800781 154.144531 172.488281 153.949219 172.355469 153.625 L 158.890625 120.363281 C 158.71875 119.933594 158.925781 119.445312 159.355469 119.273438 C 159.78125 119.101562 160.269531 119.308594 160.445312 119.734375 L 173.90625 152.996094 C 174.078125 153.421875 173.875 153.910156 173.445312 154.085938 C 173.34375 154.125 173.234375 154.144531 173.132812 154.144531 " fill-opacity="1" fill-rule="nonzero"/><path fill="#2a5711" d="M 158.527344 118.074219 C 158.199219 118.074219 157.886719 117.875 157.753906 117.550781 L 156.289062 113.933594 C 156.117188 113.503906 156.324219 113.015625 156.75 112.84375 C 157.179688 112.671875 157.667969 112.875 157.839844 113.304688 L 159.304688 116.921875 C 159.476562 117.351562 159.269531 117.835938 158.84375 118.011719 C 158.738281 118.050781 158.632812 118.074219 158.527344 118.074219 " fill-opacity="1" fill-rule="nonzero"/><path fill="#2a5711" d="M 160.644531 162.34375 C 160.425781 162.34375 160.210938 162.261719 160.046875 162.09375 L 134.878906 136.519531 C 134.554688 136.191406 134.558594 135.660156 134.890625 135.335938 C 135.21875 135.011719 135.75 135.015625 136.074219 135.34375 L 161.238281 160.921875 C 161.5625 161.25 161.558594 161.78125 161.230469 162.105469 C 161.066406 162.265625 160.855469 162.34375 160.644531 162.34375 " fill-opacity="1" fill-rule="nonzero"/><path fill="#2a5711" d="M 133.347656 134.605469 C 133.132812 134.605469 132.914062 134.523438 132.75 134.355469 L 130.015625 131.574219 C 129.691406 131.246094 129.695312 130.714844 130.023438 130.390625 C 130.351562 130.066406 130.882812 130.070312 131.207031 130.398438 L 133.945312 133.183594 C 134.269531 133.511719 134.265625 134.039062 133.933594 134.363281 C 133.773438 134.527344 133.558594 134.605469 133.347656 134.605469 " fill-opacity="1" fill-rule="nonzero"/><path stroke-linecap="butt" transform="matrix(0.75, 0, 0, 0.75, 91.649163, 215.997612)" fill="none" stroke-linejoin="miter" d="M -0.000967709 0.997975 L 255.603216 0.997975 " stroke="#2a5711" stroke-width="2" stroke-opacity="1" stroke-miterlimit="4"/><g transform="matrix(1, 0, 0, 1, 119, 224)"><g clip-path="url(#6f8f38f4c8)"><g fill="#2a5711" fill-opacity="1"><g transform="translate(1.102608, 25.605371)"><g><path d="M 16.203125 -1.21875 C 16.179688 -0.445312 16.335938 -0.0078125 16.671875 0.09375 C 16.804688 0.125 16.984375 0.140625 17.203125 0.140625 L 17.203125 -5.609375 L 16.3125 -5.609375 C 15.476562 -2.617188 13.894531 -0.957031 11.5625 -0.625 C 11.226562 -0.582031 10.894531 -0.5625 10.5625 -0.5625 C 7 -0.601562 5.207031 -3.410156 5.1875 -8.984375 C 5.1875 -13.316406 6.394531 -15.957031 8.8125 -16.90625 C 9.40625 -17.125 10.046875 -17.234375 10.734375 -17.234375 C 12.972656 -17.234375 14.585938 -16.132812 15.578125 -13.9375 C 15.796875 -13.425781 15.992188 -12.851562 16.171875 -12.21875 L 17.109375 -12.21875 L 17.03125 -17.953125 C 16.53125 -17.953125 16.234375 -17.78125 16.140625 -17.4375 C 16.097656 -17.238281 16.078125 -16.953125 16.078125 -16.578125 C 14.429688 -17.585938 12.53125 -18.09375 10.375 -18.09375 C 7.113281 -18.09375 4.625 -16.9375 2.90625 -14.625 C 1.675781 -12.957031 1.0625 -11.054688 1.0625 -8.921875 C 1.0625 -6.359375 1.882812 -4.207031 3.53125 -2.46875 C 5.269531 -0.625 7.550781 0.296875 10.375 0.296875 C 12.414062 0.273438 14.359375 -0.226562 16.203125 -1.21875 Z M 16.203125 -1.21875 "/></g></g></g><g fill="#2a5711" fill-opacity="1"><g transform="translate(19.130147, 25.605371)"><g><path d="M 10.53125 -18.09375 C 7.976562 -18.09375 5.8125 -17.28125 4.03125 -15.65625 C 2.15625 -13.9375 1.21875 -11.710938 1.21875 -8.984375 C 1.21875 -5.835938 2.332031 -3.394531 4.5625 -1.65625 C 6.25 -0.351562 8.207031 0.296875 10.4375 0.296875 C 12.96875 0.296875 15.113281 -0.523438 16.875 -2.171875 C 18.738281 -3.910156 19.671875 -6.144531 19.671875 -8.875 C 19.671875 -12.113281 18.519531 -14.582031 16.21875 -16.28125 C 14.601562 -17.488281 12.707031 -18.09375 10.53125 -18.09375 Z M 10.53125 -0.5625 C 8.082031 -0.5625 6.507812 -1.859375 5.8125 -4.453125 C 5.5 -5.660156 5.34375 -7.132812 5.34375 -8.875 C 5.34375 -14.15625 6.851562 -16.929688 9.875 -17.203125 C 10.070312 -17.222656 10.257812 -17.234375 10.4375 -17.234375 C 13.09375 -17.234375 14.707031 -15.625 15.28125 -12.40625 C 15.457031 -11.414062 15.546875 -10.273438 15.546875 -8.984375 C 15.546875 -4.117188 14.316406 -1.363281 11.859375 -0.71875 C 11.453125 -0.613281 11.007812 -0.5625 10.53125 -0.5625 Z M 10.53125 -0.5625 "/></g></g></g><g fill="#2a5711" fill-opacity="1"><g transform="translate(40.004139, 25.605371)"><g><path d="M 9.171875 0 L 9.171875 -0.796875 L 6.796875 -0.796875 L 6.796875 -8.125 L 8.6875 -8.125 L 13.203125 0.03125 L 18.1875 0 C 18.1875 -0.4375 18.054688 -0.679688 17.796875 -0.734375 C 17.679688 -0.753906 17.5625 -0.765625 17.4375 -0.765625 L 16.8125 -0.765625 L 12.15625 -8.453125 C 14.175781 -8.984375 15.460938 -10.050781 16.015625 -11.65625 C 16.171875 -12.15625 16.25 -12.648438 16.25 -13.140625 C 16.25 -14.617188 15.597656 -15.804688 14.296875 -16.703125 C 13.210938 -17.429688 11.890625 -17.796875 10.328125 -17.796875 L 0.765625 -17.796875 L 0.765625 -17 L 3.140625 -17 L 3.140625 -0.796875 L 0.765625 -0.796875 L 0.765625 0 Z M 8.84375 -17 C 10.445312 -17 11.523438 -16.253906 12.078125 -14.765625 C 12.273438 -14.234375 12.375 -13.660156 12.375 -13.046875 C 12.375 -11.460938 11.867188 -10.304688 10.859375 -9.578125 C 10.328125 -9.203125 9.710938 -9.015625 9.015625 -9.015625 L 6.796875 -9.015625 L 6.796875 -17 Z M 8.84375 -17 "/></g></g></g><g fill="#2a5711" fill-opacity="1"><g transform="translate(58.179931, 25.605371)"><g><path d="M 0.765625 -17.796875 L 0.765625 -17 L 3.140625 -17 L 3.140625 -0.796875 L 0.765625 -0.796875 L 0.765625 0 L 9.40625 0 C 12.113281 0 14.347656 -0.828125 16.109375 -2.484375 C 17.847656 -4.128906 18.71875 -6.257812 18.71875 -8.875 C 18.71875 -12.195312 17.484375 -14.65625 15.015625 -16.25 C 13.410156 -17.28125 11.53125 -17.796875 9.375 -17.796875 Z M 9.40625 -17 C 11.8125 -17 13.382812 -15.832031 14.125 -13.5 C 14.476562 -12.3125 14.65625 -10.804688 14.65625 -8.984375 C 14.65625 -4.453125 13.5 -1.8125 11.1875 -1.0625 C 10.644531 -0.882812 10.050781 -0.796875 9.40625 -0.796875 L 6.796875 -0.796875 L 6.796875 -17 Z M 9.40625 -17 "/></g></g></g><g fill="#2a5711" fill-opacity="1"><g transform="translate(78.134756, 25.605371)"><g><path d="M 10.53125 -18.09375 C 7.976562 -18.09375 5.8125 -17.28125 4.03125 -15.65625 C 2.15625 -13.9375 1.21875 -11.710938 1.21875 -8.984375 C 1.21875 -5.835938 2.332031 -3.394531 4.5625 -1.65625 C 6.25 -0.351562 8.207031 0.296875 10.4375 0.296875 C 12.96875 0.296875 15.113281 -0.523438 16.875 -2.171875 C 18.738281 -3.910156 19.671875 -6.144531 19.671875 -8.875 C 19.671875 -12.113281 18.519531 -14.582031 16.21875 -16.28125 C 14.601562 -17.488281 12.707031 -18.09375 10.53125 -18.09375 Z M 10.53125 -0.5625 C 8.082031 -0.5625 6.507812 -1.859375 5.8125 -4.453125 C 5.5 -5.660156 5.34375 -7.132812 5.34375 -8.875 C 5.34375 -14.15625 6.851562 -16.929688 9.875 -17.203125 C 10.070312 -17.222656 10.257812 -17.234375 10.4375 -17.234375 C 13.09375 -17.234375 14.707031 -15.625 15.28125 -12.40625 C 15.457031 -11.414062 15.546875 -10.273438 15.546875 -8.984375 C 15.546875 -4.117188 14.316406 -1.363281 11.859375 -0.71875 C 11.453125 -0.613281 11.007812 -0.5625 10.53125 -0.5625 Z M 10.53125 -0.5625 "/></g></g></g><g fill="#2a5711" fill-opacity="1"><g transform="translate(99.008748, 25.605371)"><g><path d="M 15.8125 -13.796875 C 15.8125 -15.472656 14.941406 -16.640625 13.203125 -17.296875 C 12.285156 -17.628906 11.21875 -17.796875 10 -17.796875 L 0.765625 -17.796875 L 0.765625 -17 L 3.140625 -17 L 3.140625 -0.796875 L 0.765625 -0.796875 L 0.765625 0 L 10.375 0 C 13.03125 0 14.953125 -0.800781 16.140625 -2.40625 C 16.753906 -3.238281 17.0625 -4.15625 17.0625 -5.15625 C 17.0625 -7.132812 16.0625 -8.488281 14.0625 -9.21875 C 13.53125 -9.414062 12.945312 -9.566406 12.3125 -9.671875 C 13.96875 -10.222656 15.054688 -11.171875 15.578125 -12.515625 C 15.734375 -12.953125 15.8125 -13.378906 15.8125 -13.796875 Z M 8.625 -17 C 10.863281 -16.957031 11.992188 -15.8125 12.015625 -13.5625 C 12.015625 -11.9375 11.429688 -10.867188 10.265625 -10.359375 C 9.828125 -10.160156 9.332031 -10.0625 8.78125 -10.0625 L 6.796875 -10.0625 L 6.796875 -17 Z M 9.46875 -9.21875 C 11.125 -9.21875 12.226562 -8.476562 12.78125 -7 C 12.976562 -6.488281 13.078125 -5.914062 13.078125 -5.28125 C 13.078125 -3.238281 12.40625 -1.875 11.0625 -1.1875 C 10.53125 -0.925781 9.914062 -0.796875 9.21875 -0.796875 L 6.796875 -0.796875 L 6.796875 -9.21875 Z M 9.46875 -9.21875 "/></g></g></g><g fill="#2a5711" fill-opacity="1"><g transform="translate(117.006636, 25.605371)"><g><path d="M 18.859375 0 C 18.859375 -0.457031 18.722656 -0.710938 18.453125 -0.765625 C 18.367188 -0.785156 18.257812 -0.796875 18.125 -0.796875 L 17.203125 -0.796875 L 10.265625 -17.796875 L 8.421875 -17.796875 L 1.90625 -0.796875 L 0 -0.796875 L 0 0 L 5.40625 0 C 5.40625 -0.457031 5.265625 -0.710938 4.984375 -0.765625 C 4.878906 -0.785156 4.769531 -0.796875 4.65625 -0.796875 L 3.078125 -0.796875 L 5.25 -6.5 L 11.25 -6.5 L 13.46875 -0.796875 L 11.421875 -0.796875 L 11.421875 0 Z M 10.890625 -7.390625 L 5.578125 -7.390625 L 8.21875 -14.328125 Z M 10.890625 -7.390625 "/></g></g></g></g></g><g fill="#292929" fill-opacity="1"><g transform="translate(146.617524, 261.503596)"><g><path d="M 3.765625 0.046875 C 3.140625 0.046875 2.578125 -0.0859375 2.078125 -0.359375 C 1.578125 -0.640625 1.179688 -1.019531 0.890625 -1.5 C 0.609375 -1.988281 0.46875 -2.539062 0.46875 -3.15625 C 0.46875 -3.757812 0.609375 -4.304688 0.890625 -4.796875 C 1.179688 -5.285156 1.578125 -5.664062 2.078125 -5.9375 C 2.578125 -6.21875 3.140625 -6.359375 3.765625 -6.359375 C 4.234375 -6.359375 4.664062 -6.28125 5.0625 -6.125 C 5.457031 -5.96875 5.796875 -5.738281 6.078125 -5.4375 L 5.65625 -5.015625 C 5.15625 -5.515625 4.53125 -5.765625 3.78125 -5.765625 C 3.289062 -5.765625 2.835938 -5.648438 2.421875 -5.421875 C 2.015625 -5.191406 1.695312 -4.878906 1.46875 -4.484375 C 1.238281 -4.085938 1.125 -3.644531 1.125 -3.15625 C 1.125 -2.65625 1.238281 -2.207031 1.46875 -1.8125 C 1.695312 -1.414062 2.015625 -1.101562 2.421875 -0.875 C 2.835938 -0.65625 3.289062 -0.546875 3.78125 -0.546875 C 4.539062 -0.546875 5.164062 -0.796875 5.65625 -1.296875 L 6.078125 -0.875 C 5.796875 -0.570312 5.457031 -0.34375 5.0625 -0.1875 C 4.664062 -0.03125 4.234375 0.046875 3.765625 0.046875 Z M 3.765625 0.046875 "/></g></g></g><g fill="#292929" fill-opacity="1"><g transform="translate(155.086563, 261.503596)"><g><path d="M 6.296875 -6.296875 L 6.296875 0 L 5.640625 0 L 5.640625 -2.90625 L 1.6875 -2.90625 L 1.6875 0 L 1.03125 0 L 1.03125 -6.296875 L 1.6875 -6.296875 L 1.6875 -3.484375 L 5.640625 -3.484375 L 5.640625 -6.296875 Z M 6.296875 -6.296875 "/></g></g></g><g fill="#292929" fill-opacity="1"><g transform="translate(164.401607, 261.503596)"><g><path d="M 4.984375 -1.6875 L 1.46875 -1.6875 L 0.71875 0 L 0.015625 0 L 2.890625 -6.296875 L 3.5625 -6.296875 L 6.4375 0 L 5.734375 0 Z M 4.734375 -2.21875 L 3.21875 -5.609375 L 1.703125 -2.21875 Z M 4.734375 -2.21875 "/></g></g></g><g fill="#292929" fill-opacity="1"><g transform="translate(172.852645, 261.503596)"><g><path d="M 7.5625 -6.296875 L 7.5625 0 L 6.9375 0 L 6.9375 -5.046875 L 4.453125 -0.796875 L 4.140625 -0.796875 L 1.671875 -5.015625 L 1.671875 0 L 1.03125 0 L 1.03125 -6.296875 L 1.578125 -6.296875 L 4.3125 -1.625 L 7.015625 -6.296875 Z M 7.5625 -6.296875 "/></g></g></g><g fill="#292929" fill-opacity="1"><g transform="translate(183.445696, 261.503596)"><g><path d="M 5 -3.25 C 5.40625 -3.15625 5.722656 -2.972656 5.953125 -2.703125 C 6.179688 -2.441406 6.296875 -2.101562 6.296875 -1.6875 C 6.296875 -1.144531 6.09375 -0.726562 5.6875 -0.4375 C 5.289062 -0.144531 4.703125 0 3.921875 0 L 1.03125 0 L 1.03125 -6.296875 L 3.75 -6.296875 C 4.445312 -6.296875 4.988281 -6.15625 5.375 -5.875 C 5.757812 -5.59375 5.953125 -5.195312 5.953125 -4.6875 C 5.953125 -4.332031 5.863281 -4.03125 5.6875 -3.78125 C 5.519531 -3.539062 5.289062 -3.363281 5 -3.25 Z M 1.6875 -5.75 L 1.6875 -3.46875 L 3.703125 -3.46875 C 4.210938 -3.46875 4.601562 -3.5625 4.875 -3.75 C 5.15625 -3.945312 5.296875 -4.234375 5.296875 -4.609375 C 5.296875 -4.984375 5.15625 -5.265625 4.875 -5.453125 C 4.601562 -5.648438 4.210938 -5.75 3.703125 -5.75 Z M 3.921875 -0.546875 C 4.484375 -0.546875 4.90625 -0.640625 5.1875 -0.828125 C 5.476562 -1.023438 5.625 -1.328125 5.625 -1.734375 C 5.625 -2.523438 5.054688 -2.921875 3.921875 -2.921875 L 1.6875 -2.921875 L 1.6875 -0.546875 Z M 3.921875 -0.546875 "/></g></g></g><g fill="#292929" fill-opacity="1"><g transform="translate(192.229734, 261.503596)"><g><path d="M 5.484375 -0.578125 L 5.484375 0 L 1.03125 0 L 1.03125 -6.296875 L 5.34375 -6.296875 L 5.34375 -5.71875 L 1.6875 -5.71875 L 1.6875 -3.484375 L 4.953125 -3.484375 L 4.953125 -2.921875 L 1.6875 -2.921875 L 1.6875 -0.578125 Z M 5.484375 -0.578125 "/></g></g></g><g fill="#292929" fill-opacity="1"><g transform="translate(200.248769, 261.503596)"><g><path d="M 5.328125 0 L 3.890625 -2.03125 C 3.722656 -2.007812 3.554688 -2 3.390625 -2 L 1.6875 -2 L 1.6875 0 L 1.03125 0 L 1.03125 -6.296875 L 3.390625 -6.296875 C 4.191406 -6.296875 4.816406 -6.101562 5.265625 -5.71875 C 5.722656 -5.332031 5.953125 -4.804688 5.953125 -4.140625 C 5.953125 -3.648438 5.828125 -3.234375 5.578125 -2.890625 C 5.335938 -2.554688 4.984375 -2.3125 4.515625 -2.15625 L 6.0625 0 Z M 3.359375 -2.5625 C 3.984375 -2.5625 4.460938 -2.695312 4.796875 -2.96875 C 5.128906 -3.25 5.296875 -3.640625 5.296875 -4.140625 C 5.296875 -4.648438 5.128906 -5.039062 4.796875 -5.3125 C 4.460938 -5.582031 3.984375 -5.71875 3.359375 -5.71875 L 1.6875 -5.71875 L 1.6875 -2.5625 Z M 3.359375 -2.5625 "/></g></g></g><g fill="#292929" fill-opacity="1"><g transform="translate(208.7538, 261.503596)"><g/></g></g><g fill="#292929" fill-opacity="1"><g transform="translate(213.10981, 261.503596)"><g><path d="M 3.78125 0.046875 C 3.15625 0.046875 2.585938 -0.0859375 2.078125 -0.359375 C 1.578125 -0.640625 1.179688 -1.019531 0.890625 -1.5 C 0.609375 -1.988281 0.46875 -2.539062 0.46875 -3.15625 C 0.46875 -3.757812 0.609375 -4.300781 0.890625 -4.78125 C 1.179688 -5.269531 1.578125 -5.65625 2.078125 -5.9375 C 2.585938 -6.21875 3.15625 -6.359375 3.78125 -6.359375 C 4.40625 -6.359375 4.96875 -6.21875 5.46875 -5.9375 C 5.96875 -5.664062 6.359375 -5.285156 6.640625 -4.796875 C 6.929688 -4.304688 7.078125 -3.757812 7.078125 -3.15625 C 7.078125 -2.539062 6.929688 -1.988281 6.640625 -1.5 C 6.359375 -1.019531 5.96875 -0.640625 5.46875 -0.359375 C 4.96875 -0.0859375 4.40625 0.046875 3.78125 0.046875 Z M 3.78125 -0.546875 C 4.28125 -0.546875 4.726562 -0.65625 5.125 -0.875 C 5.53125 -1.101562 5.847656 -1.414062 6.078125 -1.8125 C 6.304688 -2.207031 6.421875 -2.65625 6.421875 -3.15625 C 6.421875 -3.644531 6.304688 -4.085938 6.078125 -4.484375 C 5.847656 -4.878906 5.53125 -5.191406 5.125 -5.421875 C 4.726562 -5.648438 4.28125 -5.765625 3.78125 -5.765625 C 3.28125 -5.765625 2.828125 -5.648438 2.421875 -5.421875 C 2.015625 -5.191406 1.695312 -4.878906 1.46875 -4.484375 C 1.238281 -4.085938 1.125 -3.644531 1.125 -3.15625 C 1.125 -2.65625 1.238281 -2.207031 1.46875 -1.8125 C 1.695312 -1.414062 2.015625 -1.101562 2.421875 -0.875 C 2.828125 -0.65625 3.28125 -0.546875 3.78125 -0.546875 Z M 3.78125 -0.546875 "/></g></g></g><g fill="#292929" fill-opacity="1"><g transform="translate(222.658851, 261.503596)"><g><path d="M 1.6875 -5.71875 L 1.6875 -3.25 L 4.953125 -3.25 L 4.953125 -2.671875 L 1.6875 -2.671875 L 1.6875 0 L 1.03125 0 L 1.03125 -6.296875 L 5.34375 -6.296875 L 5.34375 -5.71875 Z M 1.6875 -5.71875 "/></g></g></g><g fill="#292929" fill-opacity="1"><g transform="translate(152.383149, 273.503596)"><g><path d="M 3.765625 0.046875 C 3.140625 0.046875 2.578125 -0.0859375 2.078125 -0.359375 C 1.578125 -0.640625 1.179688 -1.019531 0.890625 -1.5 C 0.609375 -1.988281 0.46875 -2.539062 0.46875 -3.15625 C 0.46875 -3.757812 0.609375 -4.304688 0.890625 -4.796875 C 1.179688 -5.285156 1.578125 -5.664062 2.078125 -5.9375 C 2.578125 -6.21875 3.140625 -6.359375 3.765625 -6.359375 C 4.234375 -6.359375 4.664062 -6.28125 5.0625 -6.125 C 5.457031 -5.96875 5.796875 -5.738281 6.078125 -5.4375 L 5.65625 -5.015625 C 5.15625 -5.515625 4.53125 -5.765625 3.78125 -5.765625 C 3.289062 -5.765625 2.835938 -5.648438 2.421875 -5.421875 C 2.015625 -5.191406 1.695312 -4.878906 1.46875 -4.484375 C 1.238281 -4.085938 1.125 -3.644531 1.125 -3.15625 C 1.125 -2.65625 1.238281 -2.207031 1.46875 -1.8125 C 1.695312 -1.414062 2.015625 -1.101562 2.421875 -0.875 C 2.835938 -0.65625 3.289062 -0.546875 3.78125 -0.546875 C 4.539062 -0.546875 5.164062 -0.796875 5.65625 -1.296875 L 6.078125 -0.875 C 5.796875 -0.570312 5.457031 -0.34375 5.0625 -0.1875 C 4.664062 -0.03125 4.234375 0.046875 3.765625 0.046875 Z M 3.765625 0.046875 "/></g></g></g><g fill="#292929" fill-opacity="1"><g transform="translate(160.852188, 273.503596)"><g><path d="M 3.78125 0.046875 C 3.15625 0.046875 2.585938 -0.0859375 2.078125 -0.359375 C 1.578125 -0.640625 1.179688 -1.019531 0.890625 -1.5 C 0.609375 -1.988281 0.46875 -2.539062 0.46875 -3.15625 C 0.46875 -3.757812 0.609375 -4.300781 0.890625 -4.78125 C 1.179688 -5.269531 1.578125 -5.65625 2.078125 -5.9375 C 2.585938 -6.21875 3.15625 -6.359375 3.78125 -6.359375 C 4.40625 -6.359375 4.96875 -6.21875 5.46875 -5.9375 C 5.96875 -5.664062 6.359375 -5.285156 6.640625 -4.796875 C 6.929688 -4.304688 7.078125 -3.757812 7.078125 -3.15625 C 7.078125 -2.539062 6.929688 -1.988281 6.640625 -1.5 C 6.359375 -1.019531 5.96875 -0.640625 5.46875 -0.359375 C 4.96875 -0.0859375 4.40625 0.046875 3.78125 0.046875 Z M 3.78125 -0.546875 C 4.28125 -0.546875 4.726562 -0.65625 5.125 -0.875 C 5.53125 -1.101562 5.847656 -1.414062 6.078125 -1.8125 C 6.304688 -2.207031 6.421875 -2.65625 6.421875 -3.15625 C 6.421875 -3.644531 6.304688 -4.085938 6.078125 -4.484375 C 5.847656 -4.878906 5.53125 -5.191406 5.125 -5.421875 C 4.726562 -5.648438 4.28125 -5.765625 3.78125 -5.765625 C 3.28125 -5.765625 2.828125 -5.648438 2.421875 -5.421875 C 2.015625 -5.191406 1.695312 -4.878906 1.46875 -4.484375 C 1.238281 -4.085938 1.125 -3.644531 1.125 -3.15625 C 1.125 -2.65625 1.238281 -2.207031 1.46875 -1.8125 C 1.695312 -1.414062 2.015625 -1.101562 2.421875 -0.875 C 2.828125 -0.65625 3.28125 -0.546875 3.78125 -0.546875 Z M 3.78125 -0.546875 "/></g></g></g><g fill="#292929" fill-opacity="1"><g transform="translate(170.401229, 273.503596)"><g><path d="M 7.5625 -6.296875 L 7.5625 0 L 6.9375 0 L 6.9375 -5.046875 L 4.453125 -0.796875 L 4.140625 -0.796875 L 1.671875 -5.015625 L 1.671875 0 L 1.03125 0 L 1.03125 -6.296875 L 1.578125 -6.296875 L 4.3125 -1.625 L 7.015625 -6.296875 Z M 7.5625 -6.296875 "/></g></g></g><g fill="#292929" fill-opacity="1"><g transform="translate(180.99428, 273.503596)"><g><path d="M 7.5625 -6.296875 L 7.5625 0 L 6.9375 0 L 6.9375 -5.046875 L 4.453125 -0.796875 L 4.140625 -0.796875 L 1.671875 -5.015625 L 1.671875 0 L 1.03125 0 L 1.03125 -6.296875 L 1.578125 -6.296875 L 4.3125 -1.625 L 7.015625 -6.296875 Z M 7.5625 -6.296875 "/></g></g></g><g fill="#292929" fill-opacity="1"><g transform="translate(191.587331, 273.503596)"><g><path d="M 5.484375 -0.578125 L 5.484375 0 L 1.03125 0 L 1.03125 -6.296875 L 5.34375 -6.296875 L 5.34375 -5.71875 L 1.6875 -5.71875 L 1.6875 -3.484375 L 4.953125 -3.484375 L 4.953125 -2.921875 L 1.6875 -2.921875 L 1.6875 -0.578125 Z M 5.484375 -0.578125 "/></g></g></g><g fill="#292929" fill-opacity="1"><g transform="translate(199.606366, 273.503596)"><g><path d="M 5.328125 0 L 3.890625 -2.03125 C 3.722656 -2.007812 3.554688 -2 3.390625 -2 L 1.6875 -2 L 1.6875 0 L 1.03125 0 L 1.03125 -6.296875 L 3.390625 -6.296875 C 4.191406 -6.296875 4.816406 -6.101562 5.265625 -5.71875 C 5.722656 -5.332031 5.953125 -4.804688 5.953125 -4.140625 C 5.953125 -3.648438 5.828125 -3.234375 5.578125 -2.890625 C 5.335938 -2.554688 4.984375 -2.3125 4.515625 -2.15625 L 6.0625 0 Z M 3.359375 -2.5625 C 3.984375 -2.5625 4.460938 -2.695312 4.796875 -2.96875 C 5.128906 -3.25 5.296875 -3.640625 5.296875 -4.140625 C 5.296875 -4.648438 5.128906 -5.039062 4.796875 -5.3125 C 4.460938 -5.582031 3.984375 -5.71875 3.359375 -5.71875 L 1.6875 -5.71875 L 1.6875 -2.5625 Z M 3.359375 -2.5625 "/></g></g></g><g fill="#292929" fill-opacity="1"><g transform="translate(208.111397, 273.503596)"><g><path d="M 3.765625 0.046875 C 3.140625 0.046875 2.578125 -0.0859375 2.078125 -0.359375 C 1.578125 -0.640625 1.179688 -1.019531 0.890625 -1.5 C 0.609375 -1.988281 0.46875 -2.539062 0.46875 -3.15625 C 0.46875 -3.757812 0.609375 -4.304688 0.890625 -4.796875 C 1.179688 -5.285156 1.578125 -5.664062 2.078125 -5.9375 C 2.578125 -6.21875 3.140625 -6.359375 3.765625 -6.359375 C 4.234375 -6.359375 4.664062 -6.28125 5.0625 -6.125 C 5.457031 -5.96875 5.796875 -5.738281 6.078125 -5.4375 L 5.65625 -5.015625 C 5.15625 -5.515625 4.53125 -5.765625 3.78125 -5.765625 C 3.289062 -5.765625 2.835938 -5.648438 2.421875 -5.421875 C 2.015625 -5.191406 1.695312 -4.878906 1.46875 -4.484375 C 1.238281 -4.085938 1.125 -3.644531 1.125 -3.15625 C 1.125 -2.65625 1.238281 -2.207031 1.46875 -1.8125 C 1.695312 -1.414062 2.015625 -1.101562 2.421875 -0.875 C 2.835938 -0.65625 3.289062 -0.546875 3.78125 -0.546875 C 4.539062 -0.546875 5.164062 -0.796875 5.65625 -1.296875 L 6.078125 -0.875 C 5.796875 -0.570312 5.457031 -0.34375 5.0625 -0.1875 C 4.664062 -0.03125 4.234375 0.046875 3.765625 0.046875 Z M 3.765625 0.046875 "/></g></g></g><g fill="#292929" fill-opacity="1"><g transform="translate(216.580437, 273.503596)"><g><path d="M 5.484375 -0.578125 L 5.484375 0 L 1.03125 0 L 1.03125 -6.296875 L 5.34375 -6.296875 L 5.34375 -5.71875 L 1.6875 -5.71875 L 1.6875 -3.484375 L 4.953125 -3.484375 L 4.953125 -2.921875 L 1.6875 -2.921875 L 1.6875 -0.578125 Z M 5.484375 -0.578125 "/></g></g></g></svg>