<svg xmlns="http://www.w3.org/2000/svg" xmlns:xlink="http://www.w3.org/1999/xlink" width="500" zoomAndPan="magnify" viewBox="0 0 375 374.999991" height="500" preserveAspectRatio="xMidYMid meet" version="1.0"><defs><g/><clipPath id="09c1b267c9"><rect x="0" width="269" y="0" height="44"/></clipPath></defs><rect x="-37.5" width="450" fill="#ffffff" y="-37.499999" height="449.999989" fill-opacity="1"/><rect x="-37.5" width="450" fill="#000000" y="-37.499999" height="449.999989" fill-opacity="1"/><g transform="matrix(1, 0, 0, 1, 55, 156)"><g clip-path="url(#09c1b267c9)"><g fill="#ffffff" fill-opacity="1"><g transform="translate(1.036807, 35.730765)"><g><path d="M 41.71875 -1.484375 C 41.882812 -1.304688 42.050781 -1.128906 42.21875 -0.953125 C 42.394531 -0.785156 42.570312 -0.601562 42.75 -0.40625 C 42.800781 -0.351562 42.84375 -0.300781 42.875 -0.25 C 42.914062 -0.207031 42.925781 -0.148438 42.90625 -0.078125 C 42.875 0.0234375 42.75 0.078125 42.53125 0.078125 L 37 0.078125 C 36.675781 0.078125 36.359375 0.0625 36.046875 0.03125 C 35.742188 0.0078125 35.457031 -0.046875 35.1875 -0.140625 C 34.863281 -0.265625 34.570312 -0.457031 34.3125 -0.71875 C 34.050781 -0.976562 33.800781 -1.234375 33.5625 -1.484375 L 27.765625 -7.75 C 27.398438 -8.164062 27.003906 -8.570312 26.578125 -8.96875 C 26.160156 -9.363281 25.679688 -9.648438 25.140625 -9.828125 C 24.765625 -9.953125 24.390625 -10.023438 24.015625 -10.046875 C 23.648438 -10.066406 23.285156 -10.066406 22.921875 -10.046875 L 20.015625 -10.046875 C 19.253906 -10.023438 18.488281 -10.015625 17.71875 -10.015625 C 16.957031 -10.015625 16.179688 -10.015625 15.390625 -10.015625 C 14.960938 -10.015625 14.539062 -10.003906 14.125 -9.984375 C 13.707031 -9.972656 13.285156 -9.96875 12.859375 -9.96875 C 12.710938 -9.96875 12.484375 -9.984375 12.171875 -10.015625 C 11.867188 -10.054688 11.570312 -10.078125 11.28125 -10.078125 C 11 -10.078125 10.796875 -10.019531 10.671875 -9.90625 C 10.628906 -9.851562 10.597656 -9.78125 10.578125 -9.6875 C 10.566406 -9.601562 10.5625 -9.523438 10.5625 -9.453125 C 10.59375 -9.203125 10.609375 -8.953125 10.609375 -8.703125 C 10.609375 -8.460938 10.609375 -8.207031 10.609375 -7.9375 C 10.628906 -7.539062 10.640625 -7.148438 10.640625 -6.765625 C 10.640625 -6.378906 10.648438 -5.988281 10.671875 -5.59375 C 10.703125 -4.851562 10.722656 -4.101562 10.734375 -3.34375 C 10.742188 -2.59375 10.75 -1.835938 10.75 -1.078125 C 10.78125 -0.828125 10.765625 -0.570312 10.703125 -0.3125 C 10.640625 -0.0507812 10.484375 0.125 10.234375 0.21875 C 10.128906 0.25 10.007812 0.25 9.875 0.21875 C 9.738281 0.195312 9.609375 0.171875 9.484375 0.140625 C 8.796875 -0.00390625 8.097656 -0.0820312 7.390625 -0.09375 C 6.691406 -0.101562 5.992188 -0.0351562 5.296875 0.109375 C 5.097656 0.128906 4.898438 0.160156 4.703125 0.203125 C 4.503906 0.242188 4.304688 0.238281 4.109375 0.1875 C 3.816406 0.0820312 3.644531 -0.0820312 3.59375 -0.3125 C 3.539062 -0.550781 3.546875 -0.8125 3.609375 -1.09375 C 3.671875 -1.375 3.703125 -1.628906 3.703125 -1.859375 L 3.703125 -5.1875 C 3.703125 -6.28125 3.703125 -7.378906 3.703125 -8.484375 C 3.703125 -9.597656 3.703125 -10.710938 3.703125 -11.828125 L 3.703125 -25.140625 C 3.703125 -25.234375 3.707031 -25.335938 3.71875 -25.453125 C 3.738281 -25.566406 3.785156 -25.660156 3.859375 -25.734375 C 3.929688 -25.828125 4.03125 -25.878906 4.15625 -25.890625 C 4.28125 -25.910156 4.40625 -25.921875 4.53125 -25.921875 C 8.75 -26.015625 12.976562 -26.0625 17.21875 -26.0625 C 21.457031 -26.0625 25.691406 -26 29.921875 -25.875 C 30.835938 -25.851562 31.75 -25.816406 32.65625 -25.765625 C 33.570312 -25.710938 34.476562 -25.578125 35.375 -25.359375 C 36.238281 -25.140625 37.082031 -24.8125 37.90625 -24.375 C 38.738281 -23.945312 39.4375 -23.382812 40 -22.6875 C 40.644531 -21.945312 41.082031 -21.09375 41.3125 -20.125 C 41.550781 -19.164062 41.601562 -18.191406 41.46875 -17.203125 C 41.332031 -16.210938 41.019531 -15.296875 40.53125 -14.453125 C 40.53125 -14.234375 40.351562 -13.957031 40 -13.625 C 39.65625 -13.289062 39.421875 -13.050781 39.296875 -12.90625 C 39.054688 -12.65625 38.796875 -12.429688 38.515625 -12.234375 C 38.242188 -12.035156 37.972656 -11.847656 37.703125 -11.671875 C 37.359375 -11.453125 36.988281 -11.273438 36.59375 -11.140625 C 36.195312 -11.003906 35.800781 -10.875 35.40625 -10.75 C 35.3125 -10.726562 35.085938 -10.695312 34.734375 -10.65625 C 34.390625 -10.625 34.066406 -10.566406 33.765625 -10.484375 C 33.472656 -10.410156 33.316406 -10.316406 33.296875 -10.203125 C 33.273438 -10.117188 33.3125 -10.003906 33.40625 -9.859375 C 33.675781 -9.492188 34.003906 -9.171875 34.390625 -8.890625 C 34.773438 -8.617188 35.128906 -8.328125 35.453125 -8.015625 C 35.796875 -7.660156 36.128906 -7.296875 36.453125 -6.921875 C 36.773438 -6.554688 37.109375 -6.203125 37.453125 -5.859375 C 38.140625 -5.117188 38.84375 -4.382812 39.5625 -3.65625 C 40.28125 -2.925781 41 -2.203125 41.71875 -1.484375 Z M 22.625 -14.828125 C 24.15625 -14.804688 25.6875 -14.8125 27.21875 -14.84375 C 28.75 -14.882812 30.234375 -15.066406 31.671875 -15.390625 C 31.984375 -15.460938 32.285156 -15.546875 32.578125 -15.640625 C 32.878906 -15.742188 33.164062 -15.882812 33.4375 -16.0625 C 33.71875 -16.226562 33.960938 -16.4375 34.171875 -16.6875 C 34.378906 -16.9375 34.507812 -17.207031 34.5625 -17.5 C 34.6875 -17.945312 34.632812 -18.390625 34.40625 -18.828125 C 34.1875 -19.273438 33.890625 -19.625 33.515625 -19.875 C 33.148438 -20.144531 32.742188 -20.347656 32.296875 -20.484375 C 31.847656 -20.617188 31.398438 -20.722656 30.953125 -20.796875 C 29.941406 -20.972656 28.921875 -21.066406 27.890625 -21.078125 C 26.867188 -21.085938 25.851562 -21.09375 24.84375 -21.09375 C 23.207031 -21.09375 21.578125 -21.097656 19.953125 -21.109375 C 18.335938 -21.128906 16.71875 -21.125 15.09375 -21.09375 L 13.15625 -21.09375 C 12.914062 -21.070312 12.679688 -21.070312 12.453125 -21.09375 C 12.234375 -21.125 12.015625 -21.140625 11.796875 -21.140625 C 11.640625 -21.140625 11.460938 -21.148438 11.265625 -21.171875 C 11.066406 -21.191406 10.910156 -21.15625 10.796875 -21.0625 C 10.640625 -20.957031 10.554688 -20.765625 10.546875 -20.484375 C 10.535156 -20.203125 10.546875 -19.90625 10.578125 -19.59375 C 10.617188 -19.28125 10.640625 -19.039062 10.640625 -18.875 C 10.660156 -18.300781 10.671875 -17.726562 10.671875 -17.15625 C 10.671875 -16.59375 10.671875 -16.03125 10.671875 -15.46875 C 10.671875 -15.21875 10.75 -15.054688 10.90625 -14.984375 C 11.070312 -14.910156 11.269531 -14.875 11.5 -14.875 C 13.082031 -14.875 14.65625 -14.875 16.21875 -14.875 C 17.789062 -14.875 19.367188 -14.859375 20.953125 -14.828125 Z M 22.625 -14.828125 "/></g></g></g><g fill="#ffffff" fill-opacity="1"><g transform="translate(50.275331, 35.730765)"><g><path d="M 3.703125 0 L 3.78125 0.078125 C 3.976562 0.242188 4.210938 0.296875 4.484375 0.234375 C 4.753906 0.171875 5.015625 0.117188 5.265625 0.078125 C 5.535156 0.00390625 5.804688 -0.0351562 6.078125 -0.046875 C 6.347656 -0.0664062 6.609375 -0.0625 6.859375 -0.03125 C 12.023438 0.0625 17.1875 0.078125 22.34375 0.015625 C 27.5 -0.046875 32.644531 -0.078125 37.78125 -0.078125 C 38.28125 -0.078125 38.601562 -0.0664062 38.75 -0.046875 C 38.894531 -0.0351562 39.203125 -0.03125 39.671875 -0.03125 C 39.941406 -0.03125 40.203125 0.015625 40.453125 0.109375 C 40.703125 0.210938 40.941406 0.253906 41.171875 0.234375 C 41.410156 0.222656 41.613281 0.0546875 41.78125 -0.265625 C 41.957031 -0.535156 42.023438 -0.859375 41.984375 -1.234375 C 41.953125 -1.617188 41.898438 -2.003906 41.828125 -2.390625 C 41.753906 -2.773438 41.71875 -3.113281 41.71875 -3.40625 C 41.71875 -3.875 41.726562 -4.253906 41.75 -4.546875 C 41.769531 -4.847656 41.6875 -5.078125 41.5 -5.234375 C 41.320312 -5.398438 40.910156 -5.484375 40.265625 -5.484375 C 35.492188 -5.460938 30.71875 -5.4375 25.9375 -5.40625 C 21.15625 -5.382812 16.363281 -5.363281 11.5625 -5.34375 C 10.945312 -5.34375 10.601562 -5.546875 10.53125 -5.953125 C 10.457031 -6.359375 10.394531 -6.796875 10.34375 -7.265625 C 10.289062 -7.679688 10.238281 -8.15625 10.1875 -8.6875 C 10.144531 -9.21875 10.234375 -9.679688 10.453125 -10.078125 C 10.597656 -10.328125 10.828125 -10.457031 11.140625 -10.46875 C 11.453125 -10.488281 11.742188 -10.457031 12.015625 -10.375 C 12.429688 -10.257812 12.835938 -10.191406 13.234375 -10.171875 C 13.628906 -10.160156 14.050781 -10.15625 14.5 -10.15625 C 18.84375 -10.15625 23.207031 -10.15625 27.59375 -10.15625 C 31.988281 -10.15625 36.375 -10.171875 40.75 -10.203125 C 40.84375 -10.203125 40.9375 -10.207031 41.03125 -10.21875 C 41.132812 -10.226562 41.226562 -10.269531 41.3125 -10.34375 C 41.40625 -10.445312 41.453125 -10.609375 41.453125 -10.828125 L 41.78125 -13.90625 C 41.851562 -14.5 41.691406 -14.910156 41.296875 -15.140625 C 40.910156 -15.378906 40.40625 -15.503906 39.78125 -15.515625 C 39.164062 -15.523438 38.554688 -15.5 37.953125 -15.4375 C 37.347656 -15.375 36.867188 -15.34375 36.515625 -15.34375 C 35.304688 -15.320312 34.085938 -15.3125 32.859375 -15.3125 C 31.640625 -15.3125 30.414062 -15.300781 29.1875 -15.28125 C 26.738281 -15.28125 24.289062 -15.269531 21.84375 -15.25 C 19.394531 -15.238281 16.945312 -15.234375 14.5 -15.234375 C 14.03125 -15.234375 13.453125 -15.179688 12.765625 -15.078125 C 12.085938 -14.984375 11.539062 -14.988281 11.125 -15.09375 C 10.851562 -15.144531 10.648438 -15.3125 10.515625 -15.59375 C 10.378906 -15.875 10.320312 -16.148438 10.34375 -16.421875 C 10.34375 -16.867188 10.328125 -17.332031 10.296875 -17.8125 C 10.273438 -18.300781 10.289062 -18.753906 10.34375 -19.171875 C 10.394531 -19.585938 10.539062 -19.929688 10.78125 -20.203125 C 11.03125 -20.472656 11.441406 -20.609375 12.015625 -20.609375 C 14.628906 -20.585938 17.242188 -20.578125 19.859375 -20.578125 C 22.484375 -20.578125 25.109375 -20.566406 27.734375 -20.546875 C 29.046875 -20.515625 30.367188 -20.5 31.703125 -20.5 C 33.035156 -20.5 34.359375 -20.488281 35.671875 -20.46875 C 36.234375 -20.46875 36.785156 -20.472656 37.328125 -20.484375 C 37.878906 -20.492188 38.425781 -20.476562 38.96875 -20.4375 C 39.363281 -20.40625 39.796875 -20.367188 40.265625 -20.328125 C 40.734375 -20.296875 41.128906 -20.414062 41.453125 -20.6875 C 41.648438 -20.832031 41.757812 -21.019531 41.78125 -21.25 C 41.8125 -21.488281 41.828125 -21.722656 41.828125 -21.953125 L 41.71875 -24.578125 C 41.71875 -24.753906 41.703125 -24.921875 41.671875 -25.078125 C 41.648438 -25.242188 41.585938 -25.390625 41.484375 -25.515625 C 41.335938 -25.710938 41.144531 -25.828125 40.90625 -25.859375 C 40.675781 -25.898438 40.4375 -25.921875 40.1875 -25.921875 L 4.703125 -26.03125 C 4.234375 -26.03125 3.910156 -25.832031 3.734375 -25.4375 C 3.566406 -25.039062 3.484375 -24.550781 3.484375 -23.96875 C 3.484375 -23.382812 3.519531 -22.816406 3.59375 -22.265625 C 3.664062 -21.710938 3.703125 -21.257812 3.703125 -20.90625 C 3.734375 -19.332031 3.75 -17.757812 3.75 -16.1875 C 3.75 -14.613281 3.75 -13.035156 3.75 -11.453125 C 3.75 -10.335938 3.75 -9.226562 3.75 -8.125 C 3.75 -7.03125 3.734375 -5.941406 3.703125 -4.859375 C 3.703125 -4.140625 3.644531 -3.425781 3.53125 -2.71875 C 3.425781 -2.019531 3.421875 -1.3125 3.515625 -0.59375 C 3.546875 -0.488281 3.570312 -0.382812 3.59375 -0.28125 C 3.625 -0.1875 3.660156 -0.09375 3.703125 0 Z M 3.703125 0 "/></g></g></g><g fill="#ffffff" fill-opacity="1"><g transform="translate(99.958781, 35.730765)"><g><path d="M 3.640625 -26.03125 C 3.460938 -25.832031 3.390625 -25.476562 3.421875 -24.96875 C 3.460938 -24.46875 3.535156 -23.953125 3.640625 -23.421875 C 3.753906 -22.890625 3.8125 -22.472656 3.8125 -22.171875 C 3.84375 -21.429688 3.832031 -20.679688 3.78125 -19.921875 C 3.726562 -19.171875 3.691406 -18.414062 3.671875 -17.65625 C 3.671875 -16.4375 3.675781 -15.234375 3.6875 -14.046875 C 3.695312 -12.859375 3.71875 -11.660156 3.75 -10.453125 C 3.789062 -8.921875 3.816406 -7.378906 3.828125 -5.828125 C 3.847656 -4.285156 3.757812 -2.75 3.5625 -1.21875 C 3.53125 -1.050781 3.507812 -0.878906 3.5 -0.703125 C 3.488281 -0.523438 3.519531 -0.351562 3.59375 -0.1875 C 3.695312 0.0625 3.863281 0.195312 4.09375 0.21875 C 4.332031 0.25 4.585938 0.234375 4.859375 0.171875 C 5.128906 0.109375 5.363281 0.0625 5.5625 0.03125 C 5.976562 -0.0078125 6.398438 -0.015625 6.828125 0.015625 C 7.265625 0.0546875 7.679688 0.0976562 8.078125 0.140625 C 8.304688 0.171875 8.59375 0.207031 8.9375 0.25 C 9.28125 0.300781 9.617188 0.304688 9.953125 0.265625 C 10.285156 0.234375 10.523438 0.0976562 10.671875 -0.140625 C 10.796875 -0.367188 10.828125 -0.632812 10.765625 -0.9375 C 10.703125 -1.25 10.660156 -1.519531 10.640625 -1.75 C 10.585938 -2.21875 10.566406 -2.703125 10.578125 -3.203125 C 10.597656 -3.710938 10.609375 -4.203125 10.609375 -4.671875 L 10.5 -10.53125 C 10.46875 -12.476562 10.445312 -14.425781 10.4375 -16.375 C 10.425781 -18.332031 10.46875 -20.289062 10.5625 -22.25 C 10.59375 -22.539062 10.644531 -22.914062 10.71875 -23.375 C 10.789062 -23.832031 10.84375 -24.285156 10.875 -24.734375 C 10.914062 -25.179688 10.863281 -25.523438 10.71875 -25.765625 C 10.570312 -26.035156 10.378906 -26.171875 10.140625 -26.171875 C 9.898438 -26.171875 9.648438 -26.132812 9.390625 -26.0625 C 9.140625 -25.988281 8.890625 -25.941406 8.640625 -25.921875 C 8.390625 -25.890625 8.140625 -25.882812 7.890625 -25.90625 C 7.648438 -25.9375 7.40625 -25.953125 7.15625 -25.953125 C 6.863281 -25.953125 6.5 -26.003906 6.0625 -26.109375 C 5.625 -26.222656 5.203125 -26.3125 4.796875 -26.375 C 4.390625 -26.4375 4.050781 -26.367188 3.78125 -26.171875 C 3.757812 -26.148438 3.734375 -26.125 3.703125 -26.09375 C 3.679688 -26.070312 3.660156 -26.050781 3.640625 -26.03125 Z M 3.640625 -26.03125 "/></g></g></g><g fill="#ffffff" fill-opacity="1"><g transform="translate(118.683141, 35.730765)"><g><path d="M 2.453125 -1.859375 C 2.453125 -1.859375 2.425781 -1.878906 2.375 -1.921875 C 2.34375 -1.972656 2.320312 -2.035156 2.3125 -2.109375 C 2.300781 -2.179688 2.285156 -2.253906 2.265625 -2.328125 C 2.117188 -4.285156 2.082031 -6.265625 2.15625 -8.265625 C 3.539062 -7.179688 5.046875 -6.296875 6.671875 -5.609375 C 8.304688 -4.929688 9.988281 -4.421875 11.71875 -4.078125 C 13.445312 -3.753906 15.1875 -3.550781 16.9375 -3.46875 C 18.695312 -3.382812 20.441406 -3.351562 22.171875 -3.375 C 23.484375 -3.425781 24.800781 -3.492188 26.125 -3.578125 C 27.445312 -3.660156 28.75 -3.851562 30.03125 -4.15625 C 30.695312 -4.300781 31.351562 -4.546875 32 -4.890625 C 32.644531 -5.234375 33.050781 -5.742188 33.21875 -6.421875 C 33.34375 -6.960938 33.253906 -7.484375 32.953125 -7.984375 C 32.660156 -8.492188 32.269531 -8.882812 31.78125 -9.15625 C 31.3125 -9.425781 30.800781 -9.609375 30.25 -9.703125 C 29.707031 -9.804688 29.164062 -9.882812 28.625 -9.9375 C 25.925781 -10.132812 23.234375 -10.234375 20.546875 -10.234375 C 17.867188 -10.234375 15.195312 -10.320312 12.53125 -10.5 C 11.539062 -10.570312 10.546875 -10.675781 9.546875 -10.8125 C 8.546875 -10.945312 7.578125 -11.1875 6.640625 -11.53125 C 5.722656 -11.875 4.847656 -12.34375 4.015625 -12.9375 C 3.191406 -13.53125 2.535156 -14.257812 2.046875 -15.125 C 1.347656 -16.3125 1.070312 -17.617188 1.21875 -19.046875 C 1.375 -20.484375 1.894531 -21.710938 2.78125 -22.734375 C 3.5 -23.523438 4.332031 -24.144531 5.28125 -24.59375 C 6.238281 -25.050781 7.222656 -25.414062 8.234375 -25.6875 C 10.554688 -26.332031 12.925781 -26.726562 15.34375 -26.875 C 17.769531 -27.03125 20.179688 -27.082031 22.578125 -27.03125 C 25.148438 -27.007812 27.722656 -26.847656 30.296875 -26.546875 C 32.867188 -26.253906 35.316406 -25.5625 37.640625 -24.46875 C 37.785156 -24.394531 37.929688 -24.3125 38.078125 -24.21875 C 38.222656 -24.132812 38.332031 -24.019531 38.40625 -23.875 C 38.457031 -23.75 38.488281 -23.617188 38.5 -23.484375 C 38.519531 -23.347656 38.53125 -23.207031 38.53125 -23.0625 C 38.5 -22.144531 38.476562 -21.234375 38.46875 -20.328125 C 38.457031 -19.429688 38.453125 -18.523438 38.453125 -17.609375 C 37.710938 -18.347656 36.882812 -18.972656 35.96875 -19.484375 C 35.050781 -19.992188 34.097656 -20.421875 33.109375 -20.765625 C 32.617188 -20.929688 32.113281 -21.085938 31.59375 -21.234375 C 31.070312 -21.390625 30.539062 -21.515625 30 -21.609375 C 29.675781 -21.710938 29.359375 -21.8125 29.046875 -21.90625 C 28.742188 -22.007812 28.414062 -22.085938 28.0625 -22.140625 C 27.75 -22.179688 27.4375 -22.191406 27.125 -22.171875 C 26.8125 -22.148438 26.484375 -22.148438 26.140625 -22.171875 C 24.554688 -22.316406 22.960938 -22.390625 21.359375 -22.390625 C 19.753906 -22.421875 18.144531 -22.367188 16.53125 -22.234375 C 14.925781 -22.097656 13.347656 -21.851562 11.796875 -21.5 C 11.367188 -21.40625 10.9375 -21.289062 10.5 -21.15625 C 10.070312 -21.019531 9.6875 -20.816406 9.34375 -20.546875 C 9 -20.296875 8.710938 -19.96875 8.484375 -19.5625 C 8.265625 -19.15625 8.179688 -18.738281 8.234375 -18.3125 C 8.328125 -17.570312 8.726562 -17.015625 9.4375 -16.640625 C 10.144531 -16.273438 10.851562 -16.019531 11.5625 -15.875 C 13.8125 -15.445312 16.085938 -15.207031 18.390625 -15.15625 C 20.691406 -15.113281 22.988281 -15.082031 25.28125 -15.0625 C 27.582031 -15.050781 29.859375 -14.863281 32.109375 -14.5 C 32.972656 -14.375 33.820312 -14.1875 34.65625 -13.9375 C 35.5 -13.695312 36.304688 -13.351562 37.078125 -12.90625 C 37.816406 -12.4375 38.46875 -11.851562 39.03125 -11.15625 C 39.601562 -10.46875 39.96875 -9.691406 40.125 -8.828125 C 40.21875 -8.285156 40.234375 -7.75 40.171875 -7.21875 C 40.109375 -6.6875 40.015625 -6.160156 39.890625 -5.640625 C 39.796875 -5.171875 39.660156 -4.707031 39.484375 -4.25 C 39.316406 -3.789062 39.082031 -3.363281 38.78125 -2.96875 C 38.363281 -2.375 37.828125 -1.894531 37.171875 -1.53125 C 36.515625 -1.175781 35.84375 -0.863281 35.15625 -0.59375 C 32.4375 0.394531 29.617188 0.960938 26.703125 1.109375 C 23.785156 1.253906 20.878906 1.28125 17.984375 1.1875 C 15.410156 1.082031 12.828125 0.863281 10.234375 0.53125 C 7.640625 0.195312 5.164062 -0.507812 2.8125 -1.59375 C 2.613281 -1.695312 2.492188 -1.785156 2.453125 -1.859375 Z M 2.453125 -1.859375 "/></g></g></g><g fill="#ffffff" fill-opacity="1"><g transform="translate(164.695996, 35.730765)"><g><path d="M 40.671875 -18.015625 C 40.398438 -17.972656 40.0625 -18.09375 39.65625 -18.375 C 39.25 -18.65625 38.851562 -18.96875 38.46875 -19.3125 C 38.082031 -19.664062 37.789062 -19.890625 37.59375 -19.984375 C 36.726562 -20.453125 35.804688 -20.847656 34.828125 -21.171875 C 33.859375 -21.492188 32.878906 -21.753906 31.890625 -21.953125 C 30.523438 -22.222656 29.039062 -22.410156 27.4375 -22.515625 C 25.832031 -22.628906 24.203125 -22.617188 22.546875 -22.484375 C 20.890625 -22.347656 19.273438 -22.054688 17.703125 -21.609375 C 16.128906 -21.171875 14.6875 -20.539062 13.375 -19.71875 C 12.070312 -18.90625 10.960938 -17.859375 10.046875 -16.578125 C 9.234375 -15.441406 8.832031 -14.242188 8.84375 -12.984375 C 8.851562 -11.722656 9.265625 -10.519531 10.078125 -9.375 C 11.117188 -7.914062 12.429688 -6.765625 14.015625 -5.921875 C 15.597656 -5.085938 17.289062 -4.476562 19.09375 -4.09375 C 20.894531 -3.707031 22.640625 -3.46875 24.328125 -3.375 C 26.597656 -3.25 28.867188 -3.382812 31.140625 -3.78125 C 33.421875 -4.175781 35.570312 -4.90625 37.59375 -5.96875 C 37.914062 -6.113281 38.210938 -6.285156 38.484375 -6.484375 C 38.753906 -6.679688 39.015625 -6.867188 39.265625 -7.046875 C 39.535156 -7.242188 39.804688 -7.457031 40.078125 -7.6875 C 40.347656 -7.925781 40.632812 -8.082031 40.9375 -8.15625 C 41.101562 -7.269531 41.144531 -6.316406 41.0625 -5.296875 C 40.976562 -4.285156 40.910156 -3.320312 40.859375 -2.40625 C 40.859375 -2.1875 40.8125 -2.015625 40.71875 -1.890625 C 40.539062 -1.597656 40.191406 -1.351562 39.671875 -1.15625 C 39.148438 -0.957031 38.609375 -0.796875 38.046875 -0.671875 C 37.492188 -0.546875 37.0625 -0.429688 36.75 -0.328125 C 35.90625 -0.0859375 35.054688 0.132812 34.203125 0.34375 C 33.347656 0.5625 32.488281 0.734375 31.625 0.859375 C 31.300781 0.878906 30.976562 0.890625 30.65625 0.890625 C 30.34375 0.890625 30.023438 0.914062 29.703125 0.96875 C 27.773438 1.132812 25.863281 1.175781 23.96875 1.09375 C 22.082031 1.007812 20.1875 0.78125 18.28125 0.40625 C 17.957031 0.351562 17.640625 0.296875 17.328125 0.234375 C 17.023438 0.171875 16.710938 0.101562 16.390625 0.03125 C 16.066406 -0.0390625 15.753906 -0.117188 15.453125 -0.203125 C 15.160156 -0.285156 14.867188 -0.378906 14.578125 -0.484375 C 12.992188 -0.972656 11.414062 -1.59375 9.84375 -2.34375 C 8.269531 -3.101562 6.851562 -4.046875 5.59375 -5.171875 C 4.332031 -6.296875 3.34375 -7.660156 2.625 -9.265625 C 2.507812 -9.566406 2.390625 -9.863281 2.265625 -10.15625 C 2.140625 -10.457031 2.039062 -10.753906 1.96875 -11.046875 C 1.695312 -12.304688 1.726562 -13.578125 2.0625 -14.859375 C 2.394531 -16.148438 2.90625 -17.300781 3.59375 -18.3125 C 3.789062 -18.5625 3.984375 -18.804688 4.171875 -19.046875 C 4.359375 -19.296875 4.5625 -19.546875 4.78125 -19.796875 C 5.425781 -20.460938 6.128906 -21.101562 6.890625 -21.71875 C 7.660156 -22.34375 8.453125 -22.878906 9.265625 -23.328125 C 11.460938 -24.554688 13.832031 -25.445312 16.375 -26 C 18.925781 -26.5625 21.453125 -26.894531 23.953125 -27 C 24.273438 -27.019531 24.585938 -27.039062 24.890625 -27.0625 C 25.203125 -27.09375 25.519531 -27.109375 25.84375 -27.109375 C 26.1875 -27.109375 26.515625 -27.085938 26.828125 -27.046875 C 27.140625 -27.015625 27.453125 -26.984375 27.765625 -26.953125 C 28.117188 -26.929688 28.445312 -26.925781 28.75 -26.9375 C 29.0625 -26.945312 29.378906 -26.925781 29.703125 -26.875 C 30.660156 -26.800781 31.609375 -26.675781 32.546875 -26.5 C 33.492188 -26.332031 34.4375 -26.140625 35.375 -25.921875 C 35.695312 -25.816406 36.007812 -25.738281 36.3125 -25.6875 C 36.625 -25.644531 36.925781 -25.570312 37.21875 -25.46875 C 37.539062 -25.375 37.859375 -25.289062 38.171875 -25.21875 C 38.484375 -25.144531 38.785156 -25.046875 39.078125 -24.921875 C 39.304688 -24.847656 39.625 -24.75 40.03125 -24.625 C 40.4375 -24.5 40.703125 -24.3125 40.828125 -24.0625 C 40.921875 -23.84375 40.96875 -23.554688 40.96875 -23.203125 C 41 -22.535156 41.023438 -21.875 41.046875 -21.21875 C 41.066406 -20.570312 41.09375 -19.914062 41.125 -19.25 C 41.144531 -18.851562 41.109375 -18.5625 41.015625 -18.375 C 40.929688 -18.1875 40.816406 -18.066406 40.671875 -18.015625 Z M 40.671875 -18.015625 "/></g></g></g><g fill="#ffffff" fill-opacity="1"><g transform="translate(211.821148, 35.730765)"><g><path d="M 3.5625 0.03125 C 3.65625 0.132812 3.753906 0.210938 3.859375 0.265625 C 3.953125 0.285156 4.0625 0.296875 4.1875 0.296875 C 4.3125 0.296875 4.425781 0.296875 4.53125 0.296875 C 5.019531 0.242188 5.507812 0.191406 6 0.140625 C 6.5 0.0976562 6.984375 0.0625 7.453125 0.03125 C 7.867188 0.03125 8.300781 0.0703125 8.75 0.15625 C 9.195312 0.25 9.617188 0.285156 10.015625 0.265625 C 10.378906 0.210938 10.585938 0.0546875 10.640625 -0.203125 C 10.691406 -0.460938 10.671875 -0.753906 10.578125 -1.078125 C 10.492188 -1.398438 10.453125 -1.671875 10.453125 -1.890625 C 10.453125 -2.660156 10.46875 -3.429688 10.5 -4.203125 C 10.539062 -4.984375 10.523438 -5.742188 10.453125 -6.484375 C 10.453125 -6.753906 10.390625 -7.078125 10.265625 -7.453125 C 10.140625 -7.828125 10.066406 -8.191406 10.046875 -8.546875 C 10.023438 -8.898438 10.125 -9.203125 10.34375 -9.453125 C 10.5625 -9.703125 10.863281 -9.773438 11.25 -9.671875 C 11.632812 -9.578125 11.960938 -9.515625 12.234375 -9.484375 C 14.429688 -9.296875 16.632812 -9.25 18.84375 -9.34375 C 21.0625 -9.4375 23.269531 -9.484375 25.46875 -9.484375 C 27.820312 -9.460938 30.171875 -9.457031 32.515625 -9.46875 C 34.867188 -9.476562 37.207031 -9.484375 39.53125 -9.484375 C 39.96875 -9.484375 40.34375 -9.507812 40.65625 -9.5625 C 40.96875 -9.613281 41.207031 -9.554688 41.375 -9.390625 C 41.550781 -9.234375 41.648438 -8.859375 41.671875 -8.265625 C 41.722656 -7.148438 41.703125 -6.007812 41.609375 -4.84375 C 41.523438 -3.6875 41.410156 -2.566406 41.265625 -1.484375 C 41.242188 -1.210938 41.242188 -0.859375 41.265625 -0.421875 C 41.296875 0.00390625 41.519531 0.234375 41.9375 0.265625 C 42.601562 0.285156 43.265625 0.242188 43.921875 0.140625 C 44.578125 0.046875 45.238281 0.0078125 45.90625 0.03125 C 46.226562 0.03125 46.546875 0.0859375 46.859375 0.203125 C 47.179688 0.316406 47.503906 0.347656 47.828125 0.296875 C 48.003906 0.273438 48.171875 0.207031 48.328125 0.09375 C 48.492188 -0.0195312 48.585938 -0.160156 48.609375 -0.328125 C 48.679688 -0.679688 48.65625 -1.101562 48.53125 -1.59375 C 48.40625 -2.082031 48.34375 -2.523438 48.34375 -2.921875 C 48.34375 -3.867188 48.335938 -5.082031 48.328125 -6.5625 C 48.316406 -8.039062 48.3125 -9.644531 48.3125 -11.375 C 48.3125 -13.113281 48.3125 -14.832031 48.3125 -16.53125 C 48.3125 -18.238281 48.316406 -19.796875 48.328125 -21.203125 C 48.335938 -22.617188 48.351562 -23.738281 48.375 -24.5625 C 48.40625 -25.394531 48.4375 -25.785156 48.46875 -25.734375 C 48.363281 -25.953125 48.238281 -26.078125 48.09375 -26.109375 C 47.945312 -26.148438 47.773438 -26.148438 47.578125 -26.109375 C 46.859375 -25.953125 46.117188 -25.867188 45.359375 -25.859375 C 44.609375 -25.847656 43.863281 -25.890625 43.125 -25.984375 C 42.925781 -26.015625 42.691406 -26.0625 42.421875 -26.125 C 42.148438 -26.1875 41.898438 -26.191406 41.671875 -26.140625 C 41.453125 -26.085938 41.304688 -25.898438 41.234375 -25.578125 C 41.128906 -25.160156 41.132812 -24.628906 41.25 -23.984375 C 41.363281 -23.347656 41.429688 -22.796875 41.453125 -22.328125 C 41.503906 -21.285156 41.519531 -20.242188 41.5 -19.203125 C 41.488281 -18.171875 41.523438 -17.125 41.609375 -16.0625 C 41.609375 -15.957031 41.613281 -15.851562 41.625 -15.75 C 41.632812 -15.65625 41.628906 -15.5625 41.609375 -15.46875 C 41.609375 -15.21875 41.546875 -15.019531 41.421875 -14.875 C 41.242188 -14.644531 40.90625 -14.535156 40.40625 -14.546875 C 39.914062 -14.566406 39.410156 -14.617188 38.890625 -14.703125 C 38.367188 -14.785156 37.972656 -14.828125 37.703125 -14.828125 C 35.535156 -14.898438 33.363281 -14.945312 31.1875 -14.96875 C 29.007812 -15 26.832031 -15.003906 24.65625 -14.984375 C 23.539062 -14.984375 22.429688 -14.972656 21.328125 -14.953125 C 20.234375 -14.941406 19.128906 -14.9375 18.015625 -14.9375 C 17.078125 -14.914062 16.09375 -14.9375 15.0625 -15 C 14.039062 -15.0625 13.0625 -15.003906 12.125 -14.828125 C 11.800781 -14.773438 11.445312 -14.707031 11.0625 -14.625 C 10.6875 -14.539062 10.421875 -14.722656 10.265625 -15.171875 C 10.171875 -15.515625 10.175781 -15.921875 10.28125 -16.390625 C 10.394531 -16.859375 10.46875 -17.265625 10.5 -17.609375 C 10.519531 -18.546875 10.507812 -19.484375 10.46875 -20.421875 C 10.4375 -21.367188 10.445312 -22.296875 10.5 -23.203125 C 10.5 -23.597656 10.566406 -24 10.703125 -24.40625 C 10.835938 -24.820312 10.84375 -25.226562 10.71875 -25.625 C 10.613281 -25.96875 10.40625 -26.160156 10.09375 -26.203125 C 9.789062 -26.253906 9.457031 -26.238281 9.09375 -26.15625 C 8.738281 -26.070312 8.4375 -26.015625 8.1875 -25.984375 C 7.519531 -25.941406 6.832031 -25.976562 6.125 -26.09375 C 5.425781 -26.21875 4.753906 -26.234375 4.109375 -26.140625 C 3.890625 -26.085938 3.734375 -25.710938 3.640625 -25.015625 C 3.554688 -24.328125 3.503906 -23.429688 3.484375 -22.328125 C 3.460938 -21.234375 3.460938 -20.0625 3.484375 -18.8125 C 3.503906 -17.5625 3.535156 -16.363281 3.578125 -15.21875 C 3.617188 -14.070312 3.640625 -13.101562 3.640625 -12.3125 C 3.640625 -11.320312 3.640625 -10.335938 3.640625 -9.359375 C 3.640625 -8.378906 3.648438 -7.398438 3.671875 -6.421875 C 3.671875 -5.546875 3.675781 -4.65625 3.6875 -3.75 C 3.695312 -2.851562 3.601562 -1.972656 3.40625 -1.109375 C 3.363281 -0.941406 3.347656 -0.742188 3.359375 -0.515625 C 3.367188 -0.296875 3.4375 -0.113281 3.5625 0.03125 Z M 3.5625 0.03125 "/></g></g></g></g></g><g fill="#ffffff" fill-opacity="1"><g transform="translate(108.706397, 216.436392)"><g><path d="M 0.921875 0.015625 C 0.929688 0.015625 0.941406 0.015625 0.953125 0.015625 C 0.972656 0.0234375 0.992188 0.0351562 1.015625 0.046875 C 1.046875 0.0546875 1.082031 0.0625 1.125 0.0625 C 1.164062 0.0625 1.207031 0.0625 1.25 0.0625 C 1.863281 0.0078125 2.484375 -0.0078125 3.109375 0 C 3.742188 0 4.375 0.00390625 5 0.015625 C 5.632812 0.0234375 6.265625 0.015625 6.890625 -0.015625 C 7.515625 -0.046875 8.125 -0.125 8.71875 -0.25 C 8.800781 -0.257812 8.878906 -0.269531 8.953125 -0.28125 C 9.035156 -0.300781 9.117188 -0.320312 9.203125 -0.34375 C 9.285156 -0.363281 9.363281 -0.382812 9.4375 -0.40625 C 9.519531 -0.425781 9.597656 -0.445312 9.671875 -0.46875 C 10.003906 -0.582031 10.328125 -0.722656 10.640625 -0.890625 C 10.960938 -1.054688 11.257812 -1.253906 11.53125 -1.484375 C 11.800781 -1.722656 12.019531 -2 12.1875 -2.3125 C 12.363281 -2.613281 12.460938 -2.941406 12.484375 -3.296875 C 12.503906 -3.648438 12.453125 -3.992188 12.328125 -4.328125 C 12.203125 -4.660156 12.015625 -4.953125 11.765625 -5.203125 C 11.710938 -5.253906 11.648438 -5.300781 11.578125 -5.34375 C 11.515625 -5.394531 11.445312 -5.445312 11.375 -5.5 C 10.84375 -5.882812 10.242188 -6.164062 9.578125 -6.34375 C 8.910156 -6.53125 8.25 -6.648438 7.59375 -6.703125 C 6.726562 -6.765625 5.859375 -6.785156 4.984375 -6.765625 C 4.117188 -6.742188 3.253906 -6.734375 2.390625 -6.734375 C 2.265625 -6.734375 2.117188 -6.75 1.953125 -6.78125 C 1.785156 -6.8125 1.625 -6.828125 1.46875 -6.828125 C 1.3125 -6.828125 1.175781 -6.785156 1.0625 -6.703125 C 0.945312 -6.617188 0.890625 -6.503906 0.890625 -6.359375 C 0.890625 -6.222656 0.894531 -6.085938 0.90625 -5.953125 C 0.90625 -5.679688 0.90625 -5.410156 0.90625 -5.140625 C 0.90625 -4.867188 0.90625 -4.597656 0.90625 -4.328125 L 0.90625 -3.84375 C 0.90625 -3.539062 0.90625 -3.234375 0.90625 -2.921875 C 0.914062 -2.617188 0.925781 -2.316406 0.9375 -2.015625 C 0.9375 -1.867188 0.929688 -1.71875 0.921875 -1.5625 C 0.921875 -1.40625 0.921875 -1.253906 0.921875 -1.109375 C 0.921875 -1.015625 0.929688 -0.921875 0.953125 -0.828125 C 0.972656 -0.734375 0.976562 -0.644531 0.96875 -0.5625 C 0.96875 -0.5 0.953125 -0.429688 0.921875 -0.359375 C 0.890625 -0.296875 0.867188 -0.226562 0.859375 -0.15625 C 0.847656 -0.09375 0.867188 -0.0351562 0.921875 0.015625 Z M 2.71875 -1.265625 C 2.71875 -1.265625 2.710938 -1.265625 2.703125 -1.265625 C 2.671875 -1.304688 2.65625 -1.363281 2.65625 -1.4375 C 2.664062 -1.519531 2.675781 -1.601562 2.6875 -1.6875 C 2.707031 -1.78125 2.71875 -1.851562 2.71875 -1.90625 L 2.71875 -3.59375 C 2.71875 -3.71875 2.71875 -3.796875 2.71875 -3.828125 C 2.71875 -3.867188 2.71875 -3.945312 2.71875 -4.0625 C 2.71875 -4.175781 2.710938 -4.253906 2.703125 -4.296875 C 2.703125 -4.335938 2.703125 -4.414062 2.703125 -4.53125 C 2.703125 -4.644531 2.707031 -4.722656 2.71875 -4.765625 C 2.726562 -4.804688 2.734375 -4.882812 2.734375 -5 C 2.734375 -5.113281 2.722656 -5.203125 2.703125 -5.265625 C 2.691406 -5.335938 2.703125 -5.390625 2.734375 -5.421875 C 2.773438 -5.460938 2.875 -5.484375 3.03125 -5.484375 L 4.734375 -5.484375 C 5.210938 -5.484375 5.703125 -5.484375 6.203125 -5.484375 C 6.710938 -5.492188 7.21875 -5.472656 7.71875 -5.421875 C 8.21875 -5.378906 8.703125 -5.28125 9.171875 -5.125 C 9.398438 -5.039062 9.613281 -4.9375 9.8125 -4.8125 C 10.019531 -4.695312 10.207031 -4.546875 10.375 -4.359375 C 10.425781 -4.285156 10.472656 -4.21875 10.515625 -4.15625 C 10.554688 -4.09375 10.585938 -4.019531 10.609375 -3.9375 C 10.734375 -3.613281 10.738281 -3.304688 10.625 -3.015625 C 10.507812 -2.722656 10.328125 -2.46875 10.078125 -2.25 C 9.828125 -2.03125 9.554688 -1.867188 9.265625 -1.765625 C 8.773438 -1.566406 8.265625 -1.429688 7.734375 -1.359375 C 7.210938 -1.296875 6.6875 -1.257812 6.15625 -1.25 C 5.632812 -1.238281 5.109375 -1.238281 4.578125 -1.25 C 4.046875 -1.257812 3.519531 -1.242188 3 -1.203125 C 2.957031 -1.191406 2.90625 -1.1875 2.84375 -1.1875 C 2.789062 -1.195312 2.75 -1.222656 2.71875 -1.265625 Z M 2.71875 -1.265625 "/></g></g></g><g fill="#ffffff" fill-opacity="1"><g transform="translate(123.383833, 216.436392)"><g><path d="M 0.28125 -0.015625 C 0.238281 -0.0546875 0.238281 -0.113281 0.28125 -0.1875 C 0.320312 -0.269531 0.378906 -0.359375 0.453125 -0.453125 C 0.535156 -0.546875 0.613281 -0.628906 0.6875 -0.703125 C 0.757812 -0.773438 0.8125 -0.828125 0.84375 -0.859375 C 1.457031 -1.773438 2.070312 -2.695312 2.6875 -3.625 C 3.300781 -4.550781 3.914062 -5.476562 4.53125 -6.40625 C 4.613281 -6.53125 4.734375 -6.617188 4.890625 -6.671875 C 5.054688 -6.722656 5.234375 -6.753906 5.421875 -6.765625 C 5.617188 -6.785156 5.8125 -6.796875 6 -6.796875 C 6.1875 -6.796875 6.347656 -6.800781 6.484375 -6.8125 C 6.554688 -6.820312 6.628906 -6.828125 6.703125 -6.828125 C 6.785156 -6.828125 6.863281 -6.816406 6.9375 -6.796875 C 7.082031 -6.753906 7.207031 -6.671875 7.3125 -6.546875 C 7.414062 -6.421875 7.503906 -6.289062 7.578125 -6.15625 C 8.191406 -5.132812 8.828125 -4.128906 9.484375 -3.140625 C 10.148438 -2.160156 10.835938 -1.191406 11.546875 -0.234375 C 11.578125 -0.203125 11.597656 -0.160156 11.609375 -0.109375 C 11.628906 -0.0546875 11.617188 -0.015625 11.578125 0.015625 C 11.554688 0.0234375 11.519531 0.03125 11.46875 0.03125 C 11.332031 0.03125 11.1875 0.03125 11.03125 0.03125 C 10.882812 0.0390625 10.738281 0.0507812 10.59375 0.0625 C 10.457031 0.0625 10.3125 0.0507812 10.15625 0.03125 C 10.007812 0.0195312 9.878906 -0.0351562 9.765625 -0.140625 C 9.671875 -0.222656 9.59375 -0.332031 9.53125 -0.46875 C 9.476562 -0.613281 9.414062 -0.75 9.34375 -0.875 C 9.28125 -1 9.179688 -1.078125 9.046875 -1.109375 C 8.847656 -1.148438 8.625 -1.15625 8.375 -1.125 C 8.132812 -1.09375 7.910156 -1.070312 7.703125 -1.0625 C 7.453125 -1.0625 7.191406 -1.054688 6.921875 -1.046875 C 6.660156 -1.046875 6.398438 -1.046875 6.140625 -1.046875 C 5.617188 -1.046875 5.09375 -1.046875 4.5625 -1.046875 C 4.039062 -1.054688 3.519531 -1.0625 3 -1.0625 C 2.832031 -1.0625 2.703125 -1.015625 2.609375 -0.921875 C 2.523438 -0.828125 2.453125 -0.710938 2.390625 -0.578125 C 2.335938 -0.453125 2.273438 -0.332031 2.203125 -0.21875 C 2.128906 -0.101562 2.023438 -0.0234375 1.890625 0.015625 C 1.648438 0.0976562 1.40625 0.125 1.15625 0.09375 C 0.90625 0.0625 0.65625 0.0390625 0.40625 0.03125 C 0.382812 0.03125 0.363281 0.0234375 0.34375 0.015625 C 0.320312 0.015625 0.300781 0.00390625 0.28125 -0.015625 Z M 3.765625 -2.484375 C 3.796875 -2.429688 3.851562 -2.394531 3.9375 -2.375 C 3.976562 -2.351562 4.023438 -2.34375 4.078125 -2.34375 C 4.128906 -2.351562 4.179688 -2.359375 4.234375 -2.359375 C 4.671875 -2.421875 5.113281 -2.460938 5.5625 -2.484375 C 6.007812 -2.515625 6.453125 -2.507812 6.890625 -2.46875 C 6.941406 -2.46875 7.03125 -2.453125 7.15625 -2.421875 C 7.289062 -2.398438 7.429688 -2.378906 7.578125 -2.359375 C 7.734375 -2.347656 7.863281 -2.351562 7.96875 -2.375 C 8.082031 -2.394531 8.148438 -2.445312 8.171875 -2.53125 C 8.171875 -2.5625 8.160156 -2.59375 8.140625 -2.625 C 8.128906 -2.664062 8.109375 -2.703125 8.078125 -2.734375 C 7.867188 -3.003906 7.660156 -3.28125 7.453125 -3.5625 C 7.253906 -3.84375 7.0625 -4.128906 6.875 -4.421875 C 6.832031 -4.484375 6.769531 -4.59375 6.6875 -4.75 C 6.613281 -4.90625 6.523438 -5.066406 6.421875 -5.234375 C 6.328125 -5.410156 6.226562 -5.554688 6.125 -5.671875 C 6.03125 -5.785156 5.941406 -5.828125 5.859375 -5.796875 C 5.816406 -5.785156 5.765625 -5.722656 5.703125 -5.609375 C 5.640625 -5.492188 5.582031 -5.375 5.53125 -5.25 C 5.476562 -5.132812 5.4375 -5.054688 5.40625 -5.015625 C 5.320312 -4.890625 5.238281 -4.757812 5.15625 -4.625 C 5.070312 -4.5 4.988281 -4.367188 4.90625 -4.234375 C 4.738281 -3.984375 4.566406 -3.738281 4.390625 -3.5 C 4.210938 -3.257812 4.03125 -3.023438 3.84375 -2.796875 C 3.820312 -2.765625 3.800781 -2.734375 3.78125 -2.703125 C 3.757812 -2.671875 3.742188 -2.632812 3.734375 -2.59375 C 3.734375 -2.5625 3.742188 -2.523438 3.765625 -2.484375 Z M 3.765625 -2.484375 "/></g></g></g><g fill="#ffffff" fill-opacity="1"><g transform="translate(136.899945, 216.436392)"><g><path d="M 0.640625 -0.484375 C 0.640625 -0.484375 0.628906 -0.488281 0.609375 -0.5 C 0.609375 -0.507812 0.601562 -0.523438 0.59375 -0.546875 C 0.59375 -0.566406 0.59375 -0.585938 0.59375 -0.609375 C 0.550781 -1.109375 0.539062 -1.617188 0.5625 -2.140625 C 0.914062 -1.859375 1.300781 -1.628906 1.71875 -1.453125 C 2.144531 -1.273438 2.582031 -1.144531 3.03125 -1.0625 C 3.476562 -0.976562 3.929688 -0.921875 4.390625 -0.890625 C 4.847656 -0.867188 5.300781 -0.863281 5.75 -0.875 C 6.082031 -0.882812 6.421875 -0.898438 6.765625 -0.921875 C 7.109375 -0.953125 7.445312 -1.003906 7.78125 -1.078125 C 7.957031 -1.117188 8.128906 -1.179688 8.296875 -1.265625 C 8.460938 -1.359375 8.566406 -1.488281 8.609375 -1.65625 C 8.640625 -1.800781 8.613281 -1.9375 8.53125 -2.0625 C 8.457031 -2.195312 8.359375 -2.300781 8.234375 -2.375 C 8.109375 -2.445312 7.972656 -2.492188 7.828125 -2.515625 C 7.691406 -2.546875 7.554688 -2.566406 7.421875 -2.578125 C 6.722656 -2.628906 6.023438 -2.65625 5.328125 -2.65625 C 4.628906 -2.65625 3.9375 -2.675781 3.25 -2.71875 C 2.988281 -2.738281 2.726562 -2.765625 2.46875 -2.796875 C 2.207031 -2.835938 1.957031 -2.898438 1.71875 -2.984375 C 1.476562 -3.078125 1.25 -3.195312 1.03125 -3.34375 C 0.820312 -3.5 0.65625 -3.691406 0.53125 -3.921875 C 0.351562 -4.222656 0.28125 -4.5625 0.3125 -4.9375 C 0.351562 -5.3125 0.488281 -5.628906 0.71875 -5.890625 C 0.90625 -6.097656 1.117188 -6.257812 1.359375 -6.375 C 1.609375 -6.488281 1.867188 -6.582031 2.140625 -6.65625 C 2.734375 -6.820312 3.34375 -6.925781 3.96875 -6.96875 C 4.601562 -7.007812 5.234375 -7.019531 5.859375 -7 C 6.515625 -7 7.175781 -6.957031 7.84375 -6.875 C 8.507812 -6.800781 9.144531 -6.625 9.75 -6.34375 C 9.789062 -6.320312 9.828125 -6.300781 9.859375 -6.28125 C 9.898438 -6.257812 9.929688 -6.226562 9.953125 -6.1875 C 9.960938 -6.15625 9.96875 -6.117188 9.96875 -6.078125 C 9.976562 -6.046875 9.984375 -6.015625 9.984375 -5.984375 C 9.972656 -5.742188 9.96875 -5.503906 9.96875 -5.265625 C 9.96875 -5.035156 9.96875 -4.800781 9.96875 -4.5625 C 9.769531 -4.757812 9.550781 -4.921875 9.3125 -5.046875 C 9.082031 -5.179688 8.835938 -5.289062 8.578125 -5.375 C 8.453125 -5.425781 8.320312 -5.46875 8.1875 -5.5 C 8.050781 -5.539062 7.914062 -5.578125 7.78125 -5.609375 C 7.695312 -5.628906 7.613281 -5.648438 7.53125 -5.671875 C 7.445312 -5.703125 7.363281 -5.722656 7.28125 -5.734375 C 7.195312 -5.742188 7.113281 -5.742188 7.03125 -5.734375 C 6.945312 -5.734375 6.863281 -5.738281 6.78125 -5.75 C 6.363281 -5.78125 5.945312 -5.796875 5.53125 -5.796875 C 5.113281 -5.804688 4.695312 -5.789062 4.28125 -5.75 C 3.863281 -5.71875 3.457031 -5.660156 3.0625 -5.578125 C 2.945312 -5.546875 2.832031 -5.507812 2.71875 -5.46875 C 2.613281 -5.4375 2.515625 -5.390625 2.421875 -5.328125 C 2.328125 -5.265625 2.25 -5.175781 2.1875 -5.0625 C 2.132812 -4.957031 2.117188 -4.851562 2.140625 -4.75 C 2.160156 -4.550781 2.257812 -4.40625 2.4375 -4.3125 C 2.625 -4.21875 2.8125 -4.148438 3 -4.109375 C 3.582031 -4.003906 4.171875 -3.941406 4.765625 -3.921875 C 5.359375 -3.910156 5.953125 -3.90625 6.546875 -3.90625 C 7.148438 -3.90625 7.742188 -3.851562 8.328125 -3.75 C 8.546875 -3.71875 8.765625 -3.671875 8.984375 -3.609375 C 9.203125 -3.546875 9.410156 -3.457031 9.609375 -3.34375 C 9.796875 -3.21875 9.960938 -3.066406 10.109375 -2.890625 C 10.265625 -2.710938 10.359375 -2.507812 10.390625 -2.28125 C 10.421875 -2.144531 10.425781 -2.003906 10.40625 -1.859375 C 10.394531 -1.722656 10.375 -1.585938 10.34375 -1.453125 C 10.3125 -1.335938 10.273438 -1.21875 10.234375 -1.09375 C 10.191406 -0.976562 10.128906 -0.867188 10.046875 -0.765625 C 9.941406 -0.609375 9.800781 -0.484375 9.625 -0.390625 C 9.457031 -0.304688 9.285156 -0.226562 9.109375 -0.15625 C 8.398438 0.101562 7.664062 0.25 6.90625 0.28125 C 6.15625 0.320312 5.40625 0.332031 4.65625 0.3125 C 3.988281 0.28125 3.316406 0.222656 2.640625 0.140625 C 1.972656 0.0546875 1.335938 -0.125 0.734375 -0.40625 C 0.679688 -0.4375 0.648438 -0.460938 0.640625 -0.484375 Z M 0.640625 -0.484375 "/></g></g></g><g fill="#ffffff" fill-opacity="1"><g transform="translate(149.331524, 216.436392)"><g/></g></g><g fill="#ffffff" fill-opacity="1"><g transform="translate(155.793361, 216.436392)"><g><path d="M 0.28125 -0.015625 C 0.238281 -0.0546875 0.238281 -0.113281 0.28125 -0.1875 C 0.320312 -0.269531 0.378906 -0.359375 0.453125 -0.453125 C 0.535156 -0.546875 0.613281 -0.628906 0.6875 -0.703125 C 0.757812 -0.773438 0.8125 -0.828125 0.84375 -0.859375 C 1.457031 -1.773438 2.070312 -2.695312 2.6875 -3.625 C 3.300781 -4.550781 3.914062 -5.476562 4.53125 -6.40625 C 4.613281 -6.53125 4.734375 -6.617188 4.890625 -6.671875 C 5.054688 -6.722656 5.234375 -6.753906 5.421875 -6.765625 C 5.617188 -6.785156 5.8125 -6.796875 6 -6.796875 C 6.1875 -6.796875 6.347656 -6.800781 6.484375 -6.8125 C 6.554688 -6.820312 6.628906 -6.828125 6.703125 -6.828125 C 6.785156 -6.828125 6.863281 -6.816406 6.9375 -6.796875 C 7.082031 -6.753906 7.207031 -6.671875 7.3125 -6.546875 C 7.414062 -6.421875 7.503906 -6.289062 7.578125 -6.15625 C 8.191406 -5.132812 8.828125 -4.128906 9.484375 -3.140625 C 10.148438 -2.160156 10.835938 -1.191406 11.546875 -0.234375 C 11.578125 -0.203125 11.597656 -0.160156 11.609375 -0.109375 C 11.628906 -0.0546875 11.617188 -0.015625 11.578125 0.015625 C 11.554688 0.0234375 11.519531 0.03125 11.46875 0.03125 C 11.332031 0.03125 11.1875 0.03125 11.03125 0.03125 C 10.882812 0.0390625 10.738281 0.0507812 10.59375 0.0625 C 10.457031 0.0625 10.3125 0.0507812 10.15625 0.03125 C 10.007812 0.0195312 9.878906 -0.0351562 9.765625 -0.140625 C 9.671875 -0.222656 9.59375 -0.332031 9.53125 -0.46875 C 9.476562 -0.613281 9.414062 -0.75 9.34375 -0.875 C 9.28125 -1 9.179688 -1.078125 9.046875 -1.109375 C 8.847656 -1.148438 8.625 -1.15625 8.375 -1.125 C 8.132812 -1.09375 7.910156 -1.070312 7.703125 -1.0625 C 7.453125 -1.0625 7.191406 -1.054688 6.921875 -1.046875 C 6.660156 -1.046875 6.398438 -1.046875 6.140625 -1.046875 C 5.617188 -1.046875 5.09375 -1.046875 4.5625 -1.046875 C 4.039062 -1.054688 3.519531 -1.0625 3 -1.0625 C 2.832031 -1.0625 2.703125 -1.015625 2.609375 -0.921875 C 2.523438 -0.828125 2.453125 -0.710938 2.390625 -0.578125 C 2.335938 -0.453125 2.273438 -0.332031 2.203125 -0.21875 C 2.128906 -0.101562 2.023438 -0.0234375 1.890625 0.015625 C 1.648438 0.0976562 1.40625 0.125 1.15625 0.09375 C 0.90625 0.0625 0.65625 0.0390625 0.40625 0.03125 C 0.382812 0.03125 0.363281 0.0234375 0.34375 0.015625 C 0.320312 0.015625 0.300781 0.00390625 0.28125 -0.015625 Z M 3.765625 -2.484375 C 3.796875 -2.429688 3.851562 -2.394531 3.9375 -2.375 C 3.976562 -2.351562 4.023438 -2.34375 4.078125 -2.34375 C 4.128906 -2.351562 4.179688 -2.359375 4.234375 -2.359375 C 4.671875 -2.421875 5.113281 -2.460938 5.5625 -2.484375 C 6.007812 -2.515625 6.453125 -2.507812 6.890625 -2.46875 C 6.941406 -2.46875 7.03125 -2.453125 7.15625 -2.421875 C 7.289062 -2.398438 7.429688 -2.378906 7.578125 -2.359375 C 7.734375 -2.347656 7.863281 -2.351562 7.96875 -2.375 C 8.082031 -2.394531 8.148438 -2.445312 8.171875 -2.53125 C 8.171875 -2.5625 8.160156 -2.59375 8.140625 -2.625 C 8.128906 -2.664062 8.109375 -2.703125 8.078125 -2.734375 C 7.867188 -3.003906 7.660156 -3.28125 7.453125 -3.5625 C 7.253906 -3.84375 7.0625 -4.128906 6.875 -4.421875 C 6.832031 -4.484375 6.769531 -4.59375 6.6875 -4.75 C 6.613281 -4.90625 6.523438 -5.066406 6.421875 -5.234375 C 6.328125 -5.410156 6.226562 -5.554688 6.125 -5.671875 C 6.03125 -5.785156 5.941406 -5.828125 5.859375 -5.796875 C 5.816406 -5.785156 5.765625 -5.722656 5.703125 -5.609375 C 5.640625 -5.492188 5.582031 -5.375 5.53125 -5.25 C 5.476562 -5.132812 5.4375 -5.054688 5.40625 -5.015625 C 5.320312 -4.890625 5.238281 -4.757812 5.15625 -4.625 C 5.070312 -4.5 4.988281 -4.367188 4.90625 -4.234375 C 4.738281 -3.984375 4.566406 -3.738281 4.390625 -3.5 C 4.210938 -3.257812 4.03125 -3.023438 3.84375 -2.796875 C 3.820312 -2.765625 3.800781 -2.734375 3.78125 -2.703125 C 3.757812 -2.671875 3.742188 -2.632812 3.734375 -2.59375 C 3.734375 -2.5625 3.742188 -2.523438 3.765625 -2.484375 Z M 3.765625 -2.484375 "/></g></g></g><g fill="#ffffff" fill-opacity="1"><g transform="translate(169.309473, 216.436392)"><g><path d="M 0.96875 -3.078125 C 0.96875 -3.234375 0.96875 -3.390625 0.96875 -3.546875 C 0.96875 -3.703125 0.972656 -3.863281 0.984375 -4.03125 C 0.992188 -4.425781 0.992188 -4.828125 0.984375 -5.234375 C 0.972656 -5.640625 0.957031 -6.039062 0.9375 -6.4375 C 0.925781 -6.5 0.925781 -6.554688 0.9375 -6.609375 C 0.957031 -6.671875 0.988281 -6.710938 1.03125 -6.734375 C 1.070312 -6.765625 1.132812 -6.765625 1.21875 -6.734375 C 1.476562 -6.679688 1.734375 -6.664062 1.984375 -6.6875 C 2.085938 -6.695312 2.203125 -6.710938 2.328125 -6.734375 C 2.453125 -6.765625 2.554688 -6.765625 2.640625 -6.734375 C 2.722656 -6.710938 2.765625 -6.617188 2.765625 -6.453125 C 2.765625 -6.003906 2.757812 -5.554688 2.75 -5.109375 C 2.75 -4.671875 2.75 -4.226562 2.75 -3.78125 C 2.738281 -3.582031 2.738281 -3.382812 2.75 -3.1875 C 2.757812 -2.988281 2.785156 -2.789062 2.828125 -2.59375 C 2.867188 -2.394531 2.929688 -2.207031 3.015625 -2.03125 C 3.109375 -1.851562 3.226562 -1.695312 3.375 -1.5625 C 3.53125 -1.445312 3.691406 -1.351562 3.859375 -1.28125 C 4.035156 -1.21875 4.210938 -1.171875 4.390625 -1.140625 C 4.859375 -1.035156 5.332031 -0.972656 5.8125 -0.953125 C 6.289062 -0.941406 6.757812 -0.976562 7.21875 -1.0625 C 7.46875 -1.09375 7.710938 -1.148438 7.953125 -1.234375 C 8.203125 -1.316406 8.410156 -1.453125 8.578125 -1.640625 C 8.734375 -1.804688 8.84375 -1.992188 8.90625 -2.203125 C 8.976562 -2.421875 9.019531 -2.644531 9.03125 -2.875 C 9.050781 -3.113281 9.054688 -3.347656 9.046875 -3.578125 C 9.046875 -4.046875 9.039062 -4.515625 9.03125 -4.984375 C 9.019531 -5.460938 9.015625 -5.941406 9.015625 -6.421875 C 9.015625 -6.460938 9.015625 -6.503906 9.015625 -6.546875 C 9.015625 -6.585938 9.03125 -6.617188 9.0625 -6.640625 C 9.09375 -6.679688 9.132812 -6.707031 9.1875 -6.71875 C 9.238281 -6.726562 9.285156 -6.734375 9.328125 -6.734375 L 10.46875 -6.734375 C 10.507812 -6.734375 10.550781 -6.726562 10.59375 -6.71875 C 10.644531 -6.71875 10.6875 -6.703125 10.71875 -6.671875 C 10.78125 -6.628906 10.816406 -6.566406 10.828125 -6.484375 C 10.847656 -6.410156 10.859375 -6.34375 10.859375 -6.28125 C 10.847656 -5.832031 10.835938 -5.382812 10.828125 -4.9375 C 10.828125 -4.5 10.820312 -4.0625 10.8125 -3.625 C 10.8125 -3.332031 10.800781 -3.03125 10.78125 -2.71875 C 10.757812 -2.414062 10.707031 -2.125 10.625 -1.84375 C 10.550781 -1.5625 10.421875 -1.300781 10.234375 -1.0625 C 9.992188 -0.757812 9.691406 -0.523438 9.328125 -0.359375 C 8.960938 -0.203125 8.59375 -0.078125 8.21875 0.015625 C 7.519531 0.191406 6.804688 0.289062 6.078125 0.3125 C 5.359375 0.34375 4.644531 0.273438 3.9375 0.109375 C 3.644531 0.046875 3.359375 -0.0390625 3.078125 -0.15625 C 2.796875 -0.269531 2.53125 -0.414062 2.28125 -0.59375 C 2.03125 -0.757812 1.804688 -0.957031 1.609375 -1.1875 C 1.410156 -1.425781 1.257812 -1.6875 1.15625 -1.96875 C 1.09375 -2.144531 1.046875 -2.328125 1.015625 -2.515625 C 0.992188 -2.703125 0.976562 -2.890625 0.96875 -3.078125 Z M 0.96875 -3.078125 "/></g></g></g><g fill="#ffffff" fill-opacity="1"><g transform="translate(182.739217, 216.436392)"><g><path d="M 0.546875 -5.390625 C 0.535156 -5.398438 0.523438 -5.410156 0.515625 -5.421875 C 0.515625 -5.441406 0.503906 -5.457031 0.484375 -5.46875 C 0.472656 -5.5 0.46875 -5.53125 0.46875 -5.5625 C 0.46875 -5.601562 0.46875 -5.640625 0.46875 -5.671875 C 0.476562 -5.828125 0.484375 -5.972656 0.484375 -6.109375 C 0.484375 -6.253906 0.488281 -6.398438 0.5 -6.546875 C 0.5 -6.609375 0.507812 -6.65625 0.53125 -6.6875 C 0.5625 -6.71875 0.59375 -6.734375 0.625 -6.734375 C 0.65625 -6.734375 0.6875 -6.734375 0.71875 -6.734375 C 2.289062 -6.734375 3.863281 -6.734375 5.4375 -6.734375 C 7.007812 -6.734375 8.582031 -6.726562 10.15625 -6.71875 C 10.175781 -6.71875 10.195312 -6.710938 10.21875 -6.703125 C 10.238281 -6.703125 10.257812 -6.691406 10.28125 -6.671875 C 10.300781 -6.660156 10.3125 -6.625 10.3125 -6.5625 L 10.3125 -5.5625 C 10.3125 -5.519531 10.304688 -5.476562 10.296875 -5.4375 C 10.296875 -5.40625 10.28125 -5.378906 10.25 -5.359375 C 10.226562 -5.328125 10.203125 -5.304688 10.171875 -5.296875 C 10.140625 -5.296875 10.109375 -5.296875 10.078125 -5.296875 C 9.492188 -5.316406 8.914062 -5.328125 8.34375 -5.328125 C 7.769531 -5.335938 7.195312 -5.347656 6.625 -5.359375 C 6.539062 -5.359375 6.457031 -5.347656 6.375 -5.328125 C 6.289062 -5.316406 6.222656 -5.273438 6.171875 -5.203125 C 6.140625 -5.160156 6.117188 -5.109375 6.109375 -5.046875 C 6.109375 -4.992188 6.109375 -4.9375 6.109375 -4.875 C 6.109375 -4.101562 6.113281 -3.328125 6.125 -2.546875 C 6.132812 -1.773438 6.144531 -1 6.15625 -0.21875 C 6.15625 -0.1875 6.148438 -0.15625 6.140625 -0.125 C 6.140625 -0.101562 6.128906 -0.0820312 6.109375 -0.0625 C 6.085938 -0.0390625 6.046875 -0.03125 5.984375 -0.03125 C 5.796875 0 5.601562 0.015625 5.40625 0.015625 C 5.21875 0.015625 5.023438 0.015625 4.828125 0.015625 C 4.742188 0.015625 4.65625 0.00390625 4.5625 -0.015625 C 4.46875 -0.046875 4.394531 -0.101562 4.34375 -0.1875 C 4.320312 -0.226562 4.3125 -0.273438 4.3125 -0.328125 C 4.3125 -0.378906 4.3125 -0.425781 4.3125 -0.46875 C 4.320312 -1.207031 4.332031 -1.945312 4.34375 -2.6875 C 4.363281 -3.425781 4.382812 -4.164062 4.40625 -4.90625 C 4.40625 -4.976562 4.394531 -5.054688 4.375 -5.140625 C 4.351562 -5.222656 4.304688 -5.285156 4.234375 -5.328125 C 4.210938 -5.335938 4.1875 -5.34375 4.15625 -5.34375 C 4.125 -5.34375 4.09375 -5.34375 4.0625 -5.34375 C 3.539062 -5.332031 3.019531 -5.320312 2.5 -5.3125 C 1.976562 -5.3125 1.457031 -5.304688 0.9375 -5.296875 C 0.875 -5.296875 0.804688 -5.300781 0.734375 -5.3125 C 0.660156 -5.320312 0.597656 -5.347656 0.546875 -5.390625 Z M 0.546875 -5.390625 "/></g></g></g><g fill="#ffffff" fill-opacity="1"><g transform="translate(195.161205, 216.436392)"><g><path d="M 0.3125 -3.359375 C 0.34375 -2.984375 0.453125 -2.625 0.640625 -2.28125 C 0.828125 -1.9375 1.066406 -1.617188 1.359375 -1.328125 C 1.660156 -1.046875 1.984375 -0.796875 2.328125 -0.578125 C 2.679688 -0.367188 3.03125 -0.207031 3.375 -0.09375 C 3.925781 0.09375 4.484375 0.210938 5.046875 0.265625 C 5.617188 0.316406 6.191406 0.332031 6.765625 0.3125 C 7.453125 0.289062 8.132812 0.210938 8.8125 0.078125 C 9.488281 -0.0546875 10.132812 -0.269531 10.75 -0.5625 C 11.039062 -0.707031 11.320312 -0.878906 11.59375 -1.078125 C 11.875 -1.273438 12.113281 -1.503906 12.3125 -1.765625 C 12.570312 -2.085938 12.738281 -2.429688 12.8125 -2.796875 C 12.894531 -3.171875 12.882812 -3.546875 12.78125 -3.921875 C 12.6875 -4.296875 12.507812 -4.640625 12.25 -4.953125 C 11.84375 -5.441406 11.34375 -5.828125 10.75 -6.109375 C 10.164062 -6.390625 9.554688 -6.601562 8.921875 -6.75 C 8.191406 -6.914062 7.441406 -7.003906 6.671875 -7.015625 C 5.910156 -7.023438 5.160156 -6.953125 4.421875 -6.796875 C 3.960938 -6.710938 3.5 -6.59375 3.03125 -6.4375 C 2.570312 -6.28125 2.140625 -6.070312 1.734375 -5.8125 C 1.335938 -5.550781 1.003906 -5.222656 0.734375 -4.828125 C 0.566406 -4.578125 0.453125 -4.328125 0.390625 -4.078125 C 0.328125 -3.835938 0.300781 -3.597656 0.3125 -3.359375 Z M 2.109375 -3.34375 C 2.109375 -3.53125 2.132812 -3.71875 2.1875 -3.90625 C 2.25 -4.09375 2.359375 -4.273438 2.515625 -4.453125 C 2.679688 -4.648438 2.878906 -4.816406 3.109375 -4.953125 C 3.335938 -5.085938 3.578125 -5.195312 3.828125 -5.28125 C 4.421875 -5.5 5.03125 -5.644531 5.65625 -5.71875 C 6.289062 -5.800781 6.921875 -5.804688 7.546875 -5.734375 C 8.171875 -5.660156 8.773438 -5.503906 9.359375 -5.265625 C 9.566406 -5.179688 9.765625 -5.082031 9.953125 -4.96875 C 10.148438 -4.863281 10.328125 -4.734375 10.484375 -4.578125 C 10.753906 -4.296875 10.914062 -4.015625 10.96875 -3.734375 C 11.03125 -3.460938 11.003906 -3.191406 10.890625 -2.921875 C 10.773438 -2.648438 10.609375 -2.398438 10.390625 -2.171875 C 10.171875 -1.941406 9.925781 -1.738281 9.65625 -1.5625 C 9.382812 -1.394531 9.113281 -1.257812 8.84375 -1.15625 C 8.3125 -0.976562 7.75 -0.867188 7.15625 -0.828125 C 6.570312 -0.796875 5.992188 -0.828125 5.421875 -0.921875 C 4.847656 -1.023438 4.300781 -1.179688 3.78125 -1.390625 C 3.5 -1.503906 3.234375 -1.660156 2.984375 -1.859375 C 2.734375 -2.054688 2.53125 -2.28125 2.375 -2.53125 C 2.21875 -2.789062 2.128906 -3.0625 2.109375 -3.34375 Z M 2.109375 -3.34375 "/></g></g></g><g fill="#ffffff" fill-opacity="1"><g transform="translate(210.232146, 216.436392)"><g><path d="M 0.921875 0.015625 C 0.953125 0.0351562 0.976562 0.0507812 1 0.0625 C 1.019531 0.0703125 1.046875 0.078125 1.078125 0.078125 C 1.117188 0.078125 1.148438 0.078125 1.171875 0.078125 C 1.296875 0.0664062 1.421875 0.0507812 1.546875 0.03125 C 1.679688 0.0195312 1.8125 0.015625 1.9375 0.015625 C 2.039062 0.015625 2.148438 0.0234375 2.265625 0.046875 C 2.378906 0.0664062 2.488281 0.0703125 2.59375 0.0625 C 2.6875 0.0507812 2.738281 0.015625 2.75 -0.046875 C 2.769531 -0.117188 2.765625 -0.195312 2.734375 -0.28125 C 2.710938 -0.363281 2.703125 -0.429688 2.703125 -0.484375 C 2.703125 -0.679688 2.707031 -0.878906 2.71875 -1.078125 C 2.726562 -1.285156 2.722656 -1.488281 2.703125 -1.6875 C 2.703125 -1.75 2.6875 -1.828125 2.65625 -1.921875 C 2.625 -2.023438 2.601562 -2.125 2.59375 -2.21875 C 2.59375 -2.3125 2.625 -2.390625 2.6875 -2.453125 C 2.738281 -2.515625 2.8125 -2.53125 2.90625 -2.5 C 3.007812 -2.476562 3.097656 -2.460938 3.171875 -2.453125 C 3.742188 -2.410156 4.316406 -2.398438 4.890625 -2.421875 C 5.460938 -2.441406 6.035156 -2.453125 6.609375 -2.453125 C 7.210938 -2.453125 7.816406 -2.453125 8.421875 -2.453125 C 9.035156 -2.453125 9.644531 -2.453125 10.25 -2.453125 C 10.363281 -2.453125 10.457031 -2.457031 10.53125 -2.46875 C 10.613281 -2.488281 10.675781 -2.476562 10.71875 -2.4375 C 10.769531 -2.394531 10.796875 -2.296875 10.796875 -2.140625 C 10.804688 -1.847656 10.800781 -1.550781 10.78125 -1.25 C 10.757812 -0.957031 10.734375 -0.671875 10.703125 -0.390625 C 10.691406 -0.316406 10.6875 -0.222656 10.6875 -0.109375 C 10.695312 0.00390625 10.757812 0.0625 10.875 0.0625 C 11.039062 0.0703125 11.207031 0.0625 11.375 0.03125 C 11.550781 0.0078125 11.722656 0.00390625 11.890625 0.015625 C 11.972656 0.015625 12.054688 0.0234375 12.140625 0.046875 C 12.222656 0.078125 12.304688 0.0859375 12.390625 0.078125 C 12.441406 0.0664062 12.488281 0.046875 12.53125 0.015625 C 12.570312 -0.00390625 12.59375 -0.0390625 12.59375 -0.09375 C 12.613281 -0.175781 12.609375 -0.28125 12.578125 -0.40625 C 12.546875 -0.539062 12.53125 -0.660156 12.53125 -0.765625 C 12.53125 -1.003906 12.523438 -1.316406 12.515625 -1.703125 C 12.515625 -2.085938 12.515625 -2.503906 12.515625 -2.953125 C 12.515625 -3.398438 12.515625 -3.84375 12.515625 -4.28125 C 12.515625 -4.726562 12.515625 -5.132812 12.515625 -5.5 C 12.523438 -5.863281 12.53125 -6.148438 12.53125 -6.359375 C 12.539062 -6.578125 12.550781 -6.679688 12.5625 -6.671875 C 12.53125 -6.722656 12.492188 -6.753906 12.453125 -6.765625 C 12.421875 -6.773438 12.378906 -6.773438 12.328125 -6.765625 C 12.140625 -6.722656 11.945312 -6.703125 11.75 -6.703125 C 11.5625 -6.703125 11.367188 -6.710938 11.171875 -6.734375 C 11.117188 -6.742188 11.054688 -6.753906 10.984375 -6.765625 C 10.921875 -6.785156 10.859375 -6.785156 10.796875 -6.765625 C 10.742188 -6.753906 10.707031 -6.707031 10.6875 -6.625 C 10.65625 -6.519531 10.65625 -6.382812 10.6875 -6.21875 C 10.71875 -6.050781 10.738281 -5.90625 10.75 -5.78125 C 10.757812 -5.507812 10.757812 -5.238281 10.75 -4.96875 C 10.75 -4.707031 10.757812 -4.4375 10.78125 -4.15625 C 10.78125 -4.132812 10.78125 -4.109375 10.78125 -4.078125 C 10.789062 -4.054688 10.789062 -4.03125 10.78125 -4 C 10.78125 -3.9375 10.765625 -3.890625 10.734375 -3.859375 C 10.691406 -3.796875 10.601562 -3.765625 10.46875 -3.765625 C 10.34375 -3.773438 10.210938 -3.789062 10.078125 -3.8125 C 9.941406 -3.832031 9.835938 -3.84375 9.765625 -3.84375 C 9.203125 -3.863281 8.640625 -3.875 8.078125 -3.875 C 7.515625 -3.882812 6.953125 -3.882812 6.390625 -3.875 C 6.097656 -3.875 5.8125 -3.875 5.53125 -3.875 C 5.25 -3.875 4.960938 -3.875 4.671875 -3.875 C 4.429688 -3.863281 4.175781 -3.863281 3.90625 -3.875 C 3.632812 -3.894531 3.378906 -3.882812 3.140625 -3.84375 C 3.054688 -3.832031 2.960938 -3.8125 2.859375 -3.78125 C 2.765625 -3.757812 2.695312 -3.8125 2.65625 -3.9375 C 2.632812 -4.019531 2.632812 -4.125 2.65625 -4.25 C 2.6875 -4.375 2.707031 -4.476562 2.71875 -4.5625 C 2.726562 -4.800781 2.726562 -5.039062 2.71875 -5.28125 C 2.707031 -5.53125 2.707031 -5.773438 2.71875 -6.015625 C 2.71875 -6.117188 2.734375 -6.222656 2.765625 -6.328125 C 2.804688 -6.429688 2.8125 -6.535156 2.78125 -6.640625 C 2.75 -6.734375 2.691406 -6.785156 2.609375 -6.796875 C 2.535156 -6.804688 2.453125 -6.800781 2.359375 -6.78125 C 2.265625 -6.757812 2.1875 -6.742188 2.125 -6.734375 C 1.945312 -6.722656 1.765625 -6.734375 1.578125 -6.765625 C 1.398438 -6.796875 1.226562 -6.800781 1.0625 -6.78125 C 1.007812 -6.757812 0.96875 -6.660156 0.9375 -6.484375 C 0.914062 -6.304688 0.898438 -6.070312 0.890625 -5.78125 C 0.890625 -5.5 0.890625 -5.195312 0.890625 -4.875 C 0.898438 -4.550781 0.910156 -4.238281 0.921875 -3.9375 C 0.929688 -3.644531 0.9375 -3.394531 0.9375 -3.1875 C 0.9375 -2.9375 0.9375 -2.679688 0.9375 -2.421875 C 0.9375 -2.171875 0.941406 -1.914062 0.953125 -1.65625 C 0.953125 -1.4375 0.953125 -1.207031 0.953125 -0.96875 C 0.960938 -0.738281 0.941406 -0.507812 0.890625 -0.28125 C 0.867188 -0.238281 0.859375 -0.1875 0.859375 -0.125 C 0.867188 -0.0703125 0.890625 -0.0234375 0.921875 0.015625 Z M 0.921875 0.015625 "/></g></g></g><g fill="#ffffff" fill-opacity="1"><g transform="translate(225.389467, 216.436392)"><g><path d="M 0.28125 -0.015625 C 0.238281 -0.0546875 0.238281 -0.113281 0.28125 -0.1875 C 0.320312 -0.269531 0.378906 -0.359375 0.453125 -0.453125 C 0.535156 -0.546875 0.613281 -0.628906 0.6875 -0.703125 C 0.757812 -0.773438 0.8125 -0.828125 0.84375 -0.859375 C 1.457031 -1.773438 2.070312 -2.695312 2.6875 -3.625 C 3.300781 -4.550781 3.914062 -5.476562 4.53125 -6.40625 C 4.613281 -6.53125 4.734375 -6.617188 4.890625 -6.671875 C 5.054688 -6.722656 5.234375 -6.753906 5.421875 -6.765625 C 5.617188 -6.785156 5.8125 -6.796875 6 -6.796875 C 6.1875 -6.796875 6.347656 -6.800781 6.484375 -6.8125 C 6.554688 -6.820312 6.628906 -6.828125 6.703125 -6.828125 C 6.785156 -6.828125 6.863281 -6.816406 6.9375 -6.796875 C 7.082031 -6.753906 7.207031 -6.671875 7.3125 -6.546875 C 7.414062 -6.421875 7.503906 -6.289062 7.578125 -6.15625 C 8.191406 -5.132812 8.828125 -4.128906 9.484375 -3.140625 C 10.148438 -2.160156 10.835938 -1.191406 11.546875 -0.234375 C 11.578125 -0.203125 11.597656 -0.160156 11.609375 -0.109375 C 11.628906 -0.0546875 11.617188 -0.015625 11.578125 0.015625 C 11.554688 0.0234375 11.519531 0.03125 11.46875 0.03125 C 11.332031 0.03125 11.1875 0.03125 11.03125 0.03125 C 10.882812 0.0390625 10.738281 0.0507812 10.59375 0.0625 C 10.457031 0.0625 10.3125 0.0507812 10.15625 0.03125 C 10.007812 0.0195312 9.878906 -0.0351562 9.765625 -0.140625 C 9.671875 -0.222656 9.59375 -0.332031 9.53125 -0.46875 C 9.476562 -0.613281 9.414062 -0.75 9.34375 -0.875 C 9.28125 -1 9.179688 -1.078125 9.046875 -1.109375 C 8.847656 -1.148438 8.625 -1.15625 8.375 -1.125 C 8.132812 -1.09375 7.910156 -1.070312 7.703125 -1.0625 C 7.453125 -1.0625 7.191406 -1.054688 6.921875 -1.046875 C 6.660156 -1.046875 6.398438 -1.046875 6.140625 -1.046875 C 5.617188 -1.046875 5.09375 -1.046875 4.5625 -1.046875 C 4.039062 -1.054688 3.519531 -1.0625 3 -1.0625 C 2.832031 -1.0625 2.703125 -1.015625 2.609375 -0.921875 C 2.523438 -0.828125 2.453125 -0.710938 2.390625 -0.578125 C 2.335938 -0.453125 2.273438 -0.332031 2.203125 -0.21875 C 2.128906 -0.101562 2.023438 -0.0234375 1.890625 0.015625 C 1.648438 0.0976562 1.40625 0.125 1.15625 0.09375 C 0.90625 0.0625 0.65625 0.0390625 0.40625 0.03125 C 0.382812 0.03125 0.363281 0.0234375 0.34375 0.015625 C 0.320312 0.015625 0.300781 0.00390625 0.28125 -0.015625 Z M 3.765625 -2.484375 C 3.796875 -2.429688 3.851562 -2.394531 3.9375 -2.375 C 3.976562 -2.351562 4.023438 -2.34375 4.078125 -2.34375 C 4.128906 -2.351562 4.179688 -2.359375 4.234375 -2.359375 C 4.671875 -2.421875 5.113281 -2.460938 5.5625 -2.484375 C 6.007812 -2.515625 6.453125 -2.507812 6.890625 -2.46875 C 6.941406 -2.46875 7.03125 -2.453125 7.15625 -2.421875 C 7.289062 -2.398438 7.429688 -2.378906 7.578125 -2.359375 C 7.734375 -2.347656 7.863281 -2.351562 7.96875 -2.375 C 8.082031 -2.394531 8.148438 -2.445312 8.171875 -2.53125 C 8.171875 -2.5625 8.160156 -2.59375 8.140625 -2.625 C 8.128906 -2.664062 8.109375 -2.703125 8.078125 -2.734375 C 7.867188 -3.003906 7.660156 -3.28125 7.453125 -3.5625 C 7.253906 -3.84375 7.0625 -4.128906 6.875 -4.421875 C 6.832031 -4.484375 6.769531 -4.59375 6.6875 -4.75 C 6.613281 -4.90625 6.523438 -5.066406 6.421875 -5.234375 C 6.328125 -5.410156 6.226562 -5.554688 6.125 -5.671875 C 6.03125 -5.785156 5.941406 -5.828125 5.859375 -5.796875 C 5.816406 -5.785156 5.765625 -5.722656 5.703125 -5.609375 C 5.640625 -5.492188 5.582031 -5.375 5.53125 -5.25 C 5.476562 -5.132812 5.4375 -5.054688 5.40625 -5.015625 C 5.320312 -4.890625 5.238281 -4.757812 5.15625 -4.625 C 5.070312 -4.5 4.988281 -4.367188 4.90625 -4.234375 C 4.738281 -3.984375 4.566406 -3.738281 4.390625 -3.5 C 4.210938 -3.257812 4.03125 -3.023438 3.84375 -2.796875 C 3.820312 -2.765625 3.800781 -2.734375 3.78125 -2.703125 C 3.757812 -2.671875 3.742188 -2.632812 3.734375 -2.59375 C 3.734375 -2.5625 3.742188 -2.523438 3.765625 -2.484375 Z M 3.765625 -2.484375 "/></g></g></g><g fill="#ffffff" fill-opacity="1"><g transform="translate(238.905579, 216.436392)"><g><path d="M 0.96875 -3.078125 C 0.96875 -3.234375 0.96875 -3.390625 0.96875 -3.546875 C 0.96875 -3.703125 0.972656 -3.863281 0.984375 -4.03125 C 0.992188 -4.425781 0.992188 -4.828125 0.984375 -5.234375 C 0.972656 -5.640625 0.957031 -6.039062 0.9375 -6.4375 C 0.925781 -6.5 0.925781 -6.554688 0.9375 -6.609375 C 0.957031 -6.671875 0.988281 -6.710938 1.03125 -6.734375 C 1.070312 -6.765625 1.132812 -6.765625 1.21875 -6.734375 C 1.476562 -6.679688 1.734375 -6.664062 1.984375 -6.6875 C 2.085938 -6.695312 2.203125 -6.710938 2.328125 -6.734375 C 2.453125 -6.765625 2.554688 -6.765625 2.640625 -6.734375 C 2.722656 -6.710938 2.765625 -6.617188 2.765625 -6.453125 C 2.765625 -6.003906 2.757812 -5.554688 2.75 -5.109375 C 2.75 -4.671875 2.75 -4.226562 2.75 -3.78125 C 2.738281 -3.582031 2.738281 -3.382812 2.75 -3.1875 C 2.757812 -2.988281 2.785156 -2.789062 2.828125 -2.59375 C 2.867188 -2.394531 2.929688 -2.207031 3.015625 -2.03125 C 3.109375 -1.851562 3.226562 -1.695312 3.375 -1.5625 C 3.53125 -1.445312 3.691406 -1.351562 3.859375 -1.28125 C 4.035156 -1.21875 4.210938 -1.171875 4.390625 -1.140625 C 4.859375 -1.035156 5.332031 -0.972656 5.8125 -0.953125 C 6.289062 -0.941406 6.757812 -0.976562 7.21875 -1.0625 C 7.46875 -1.09375 7.710938 -1.148438 7.953125 -1.234375 C 8.203125 -1.316406 8.410156 -1.453125 8.578125 -1.640625 C 8.734375 -1.804688 8.84375 -1.992188 8.90625 -2.203125 C 8.976562 -2.421875 9.019531 -2.644531 9.03125 -2.875 C 9.050781 -3.113281 9.054688 -3.347656 9.046875 -3.578125 C 9.046875 -4.046875 9.039062 -4.515625 9.03125 -4.984375 C 9.019531 -5.460938 9.015625 -5.941406 9.015625 -6.421875 C 9.015625 -6.460938 9.015625 -6.503906 9.015625 -6.546875 C 9.015625 -6.585938 9.03125 -6.617188 9.0625 -6.640625 C 9.09375 -6.679688 9.132812 -6.707031 9.1875 -6.71875 C 9.238281 -6.726562 9.285156 -6.734375 9.328125 -6.734375 L 10.46875 -6.734375 C 10.507812 -6.734375 10.550781 -6.726562 10.59375 -6.71875 C 10.644531 -6.71875 10.6875 -6.703125 10.71875 -6.671875 C 10.78125 -6.628906 10.816406 -6.566406 10.828125 -6.484375 C 10.847656 -6.410156 10.859375 -6.34375 10.859375 -6.28125 C 10.847656 -5.832031 10.835938 -5.382812 10.828125 -4.9375 C 10.828125 -4.5 10.820312 -4.0625 10.8125 -3.625 C 10.8125 -3.332031 10.800781 -3.03125 10.78125 -2.71875 C 10.757812 -2.414062 10.707031 -2.125 10.625 -1.84375 C 10.550781 -1.5625 10.421875 -1.300781 10.234375 -1.0625 C 9.992188 -0.757812 9.691406 -0.523438 9.328125 -0.359375 C 8.960938 -0.203125 8.59375 -0.078125 8.21875 0.015625 C 7.519531 0.191406 6.804688 0.289062 6.078125 0.3125 C 5.359375 0.34375 4.644531 0.273438 3.9375 0.109375 C 3.644531 0.046875 3.359375 -0.0390625 3.078125 -0.15625 C 2.796875 -0.269531 2.53125 -0.414062 2.28125 -0.59375 C 2.03125 -0.757812 1.804688 -0.957031 1.609375 -1.1875 C 1.410156 -1.425781 1.257812 -1.6875 1.15625 -1.96875 C 1.09375 -2.144531 1.046875 -2.328125 1.015625 -2.515625 C 0.992188 -2.703125 0.976562 -2.890625 0.96875 -3.078125 Z M 0.96875 -3.078125 "/></g></g></g><g fill="#ffffff" fill-opacity="1"><g transform="translate(252.335323, 216.436392)"><g><path d="M 0.640625 -0.484375 C 0.640625 -0.484375 0.628906 -0.488281 0.609375 -0.5 C 0.609375 -0.507812 0.601562 -0.523438 0.59375 -0.546875 C 0.59375 -0.566406 0.59375 -0.585938 0.59375 -0.609375 C 0.550781 -1.109375 0.539062 -1.617188 0.5625 -2.140625 C 0.914062 -1.859375 1.300781 -1.628906 1.71875 -1.453125 C 2.144531 -1.273438 2.582031 -1.144531 3.03125 -1.0625 C 3.476562 -0.976562 3.929688 -0.921875 4.390625 -0.890625 C 4.847656 -0.867188 5.300781 -0.863281 5.75 -0.875 C 6.082031 -0.882812 6.421875 -0.898438 6.765625 -0.921875 C 7.109375 -0.953125 7.445312 -1.003906 7.78125 -1.078125 C 7.957031 -1.117188 8.128906 -1.179688 8.296875 -1.265625 C 8.460938 -1.359375 8.566406 -1.488281 8.609375 -1.65625 C 8.640625 -1.800781 8.613281 -1.9375 8.53125 -2.0625 C 8.457031 -2.195312 8.359375 -2.300781 8.234375 -2.375 C 8.109375 -2.445312 7.972656 -2.492188 7.828125 -2.515625 C 7.691406 -2.546875 7.554688 -2.566406 7.421875 -2.578125 C 6.722656 -2.628906 6.023438 -2.65625 5.328125 -2.65625 C 4.628906 -2.65625 3.9375 -2.675781 3.25 -2.71875 C 2.988281 -2.738281 2.726562 -2.765625 2.46875 -2.796875 C 2.207031 -2.835938 1.957031 -2.898438 1.71875 -2.984375 C 1.476562 -3.078125 1.25 -3.195312 1.03125 -3.34375 C 0.820312 -3.5 0.65625 -3.691406 0.53125 -3.921875 C 0.351562 -4.222656 0.28125 -4.5625 0.3125 -4.9375 C 0.351562 -5.3125 0.488281 -5.628906 0.71875 -5.890625 C 0.90625 -6.097656 1.117188 -6.257812 1.359375 -6.375 C 1.609375 -6.488281 1.867188 -6.582031 2.140625 -6.65625 C 2.734375 -6.820312 3.34375 -6.925781 3.96875 -6.96875 C 4.601562 -7.007812 5.234375 -7.019531 5.859375 -7 C 6.515625 -7 7.175781 -6.957031 7.84375 -6.875 C 8.507812 -6.800781 9.144531 -6.625 9.75 -6.34375 C 9.789062 -6.320312 9.828125 -6.300781 9.859375 -6.28125 C 9.898438 -6.257812 9.929688 -6.226562 9.953125 -6.1875 C 9.960938 -6.15625 9.96875 -6.117188 9.96875 -6.078125 C 9.976562 -6.046875 9.984375 -6.015625 9.984375 -5.984375 C 9.972656 -5.742188 9.96875 -5.503906 9.96875 -5.265625 C 9.96875 -5.035156 9.96875 -4.800781 9.96875 -4.5625 C 9.769531 -4.757812 9.550781 -4.921875 9.3125 -5.046875 C 9.082031 -5.179688 8.835938 -5.289062 8.578125 -5.375 C 8.453125 -5.425781 8.320312 -5.46875 8.1875 -5.5 C 8.050781 -5.539062 7.914062 -5.578125 7.78125 -5.609375 C 7.695312 -5.628906 7.613281 -5.648438 7.53125 -5.671875 C 7.445312 -5.703125 7.363281 -5.722656 7.28125 -5.734375 C 7.195312 -5.742188 7.113281 -5.742188 7.03125 -5.734375 C 6.945312 -5.734375 6.863281 -5.738281 6.78125 -5.75 C 6.363281 -5.78125 5.945312 -5.796875 5.53125 -5.796875 C 5.113281 -5.804688 4.695312 -5.789062 4.28125 -5.75 C 3.863281 -5.71875 3.457031 -5.660156 3.0625 -5.578125 C 2.945312 -5.546875 2.832031 -5.507812 2.71875 -5.46875 C 2.613281 -5.4375 2.515625 -5.390625 2.421875 -5.328125 C 2.328125 -5.265625 2.25 -5.175781 2.1875 -5.0625 C 2.132812 -4.957031 2.117188 -4.851562 2.140625 -4.75 C 2.160156 -4.550781 2.257812 -4.40625 2.4375 -4.3125 C 2.625 -4.21875 2.8125 -4.148438 3 -4.109375 C 3.582031 -4.003906 4.171875 -3.941406 4.765625 -3.921875 C 5.359375 -3.910156 5.953125 -3.90625 6.546875 -3.90625 C 7.148438 -3.90625 7.742188 -3.851562 8.328125 -3.75 C 8.546875 -3.71875 8.765625 -3.671875 8.984375 -3.609375 C 9.203125 -3.546875 9.410156 -3.457031 9.609375 -3.34375 C 9.796875 -3.21875 9.960938 -3.066406 10.109375 -2.890625 C 10.265625 -2.710938 10.359375 -2.507812 10.390625 -2.28125 C 10.421875 -2.144531 10.425781 -2.003906 10.40625 -1.859375 C 10.394531 -1.722656 10.375 -1.585938 10.34375 -1.453125 C 10.3125 -1.335938 10.273438 -1.21875 10.234375 -1.09375 C 10.191406 -0.976562 10.128906 -0.867188 10.046875 -0.765625 C 9.941406 -0.609375 9.800781 -0.484375 9.625 -0.390625 C 9.457031 -0.304688 9.285156 -0.226562 9.109375 -0.15625 C 8.398438 0.101562 7.664062 0.25 6.90625 0.28125 C 6.15625 0.320312 5.40625 0.332031 4.65625 0.3125 C 3.988281 0.28125 3.316406 0.222656 2.640625 0.140625 C 1.972656 0.0546875 1.335938 -0.125 0.734375 -0.40625 C 0.679688 -0.4375 0.648438 -0.460938 0.640625 -0.484375 Z M 0.640625 -0.484375 "/></g></g></g></svg>