<svg xmlns="http://www.w3.org/2000/svg" xmlns:xlink="http://www.w3.org/1999/xlink" width="500" zoomAndPan="magnify" viewBox="0 0 375 374.999991" height="500" preserveAspectRatio="xMidYMid meet" version="1.0"><defs><g/><clipPath id="270bb35a8f"><path d="M 84 170.75 L 291 170.75 L 291 198.25 L 84 198.25 Z M 84 170.75 " clip-rule="nonzero"/></clipPath><clipPath id="ad01414d00"><path d="M 0 0.75 L 207 0.75 L 207 28.25 L 0 28.25 Z M 0 0.75 " clip-rule="nonzero"/></clipPath><clipPath id="10d2e22b01"><rect x="0" width="207" y="0" height="29"/></clipPath></defs><g fill="#2c2c2c" fill-opacity="1"><g transform="translate(81.476157, 231.250751)"><g><path d="M 28.609375 -16.109375 L 47.578125 -16.109375 C 54.265625 -16.109375 59.46875 -18.898438 63.1875 -24.484375 C 66.914062 -30.066406 68.78125 -37.722656 68.78125 -47.453125 C 68.78125 -57.484375 67.066406 -64.953125 63.640625 -69.859375 C 60.210938 -74.765625 54.988281 -77.21875 47.96875 -77.21875 L 28.609375 -77.21875 Z M 9.515625 -93.265625 L 50.6875 -93.265625 C 63.289062 -93.265625 72.765625 -89.171875 79.109375 -80.984375 C 85.460938 -72.804688 88.640625 -62.097656 88.640625 -48.859375 C 88.640625 -34.222656 85.265625 -22.421875 78.515625 -13.453125 C 71.765625 -4.484375 62.238281 0 49.9375 0 L 9.515625 0 Z M 9.515625 -93.265625 "/></g></g></g><g fill="#2c2c2c" fill-opacity="1"><g transform="translate(170.752392, 231.250751)"><g><path d="M 2.03125 -93.265625 L 22.78125 -93.265625 L 36.03125 -33.75 L 37.625 -24.421875 L 37.875 -24.421875 L 39.40625 -33.75 L 50.890625 -93.265625 L 71.5 -93.265625 L 83.8125 -34.078125 L 85.46875 -24.421875 L 85.71875 -24.421875 L 87.359375 -34.078125 L 100.875 -93.265625 L 120.671875 -93.265625 L 94.40625 0 L 75.6875 0 L 62.5 -65.46875 L 61.28125 -73.40625 L 61.03125 -73.40625 L 59.828125 -65.46875 L 46.5625 0 L 28.421875 0 Z M 2.03125 -93.265625 "/></g></g></g><g clip-path="url(#270bb35a8f)"><g transform="matrix(1, 0, 0, 1, 84, 170)"><g clip-path="url(#10d2e22b01)"><g clip-path="url(#ad01414d00)"><path fill="#eeebeb" d="M 0 0.75 L 207.015625 0.75 L 207.015625 28.25 L 0 28.25 Z M 0 0.75 " fill-opacity="1" fill-rule="nonzero"/></g></g></g></g><g fill="#2c2c2c" fill-opacity="1"><g transform="translate(103.548535, 190.124988)"><g><path d="M 3.53125 -1.984375 L 5.859375 -1.984375 C 6.679688 -1.984375 7.320312 -2.328125 7.78125 -3.015625 C 8.238281 -3.703125 8.46875 -4.644531 8.46875 -5.84375 C 8.46875 -7.082031 8.253906 -8.003906 7.828125 -8.609375 C 7.410156 -9.210938 6.769531 -9.515625 5.90625 -9.515625 L 3.53125 -9.515625 Z M 1.171875 -11.484375 L 6.25 -11.484375 C 7.800781 -11.484375 8.96875 -10.976562 9.75 -9.96875 C 10.53125 -8.96875 10.921875 -7.648438 10.921875 -6.015625 C 10.921875 -4.210938 10.503906 -2.757812 9.671875 -1.65625 C 8.835938 -0.550781 7.664062 0 6.15625 0 L 1.171875 0 Z M 1.171875 -11.484375 "/></g></g></g><g fill="#2c2c2c" fill-opacity="1"><g transform="translate(119.354873, 190.124988)"><g><path d="M 4.171875 -4.359375 L 7.09375 -4.359375 L 5.671875 -8.90625 L 5.640625 -8.90625 Z M 2.734375 0 L 0.203125 0 L 4.296875 -11.484375 L 7.0625 -11.484375 L 11.109375 0 L 8.5 0 L 7.765625 -2.375 L 3.53125 -2.375 Z M 2.734375 0 "/></g></g></g><g fill="#2c2c2c" fill-opacity="1"><g transform="translate(134.848788, 190.124988)"><g><path d="M 7.78125 -11.484375 L 10.28125 -11.484375 L 6.375 0 L 4.09375 0 L 0.21875 -11.484375 L 2.796875 -11.484375 L 5.25 -2.78125 L 5.28125 -2.78125 Z M 7.78125 -11.484375 "/></g></g></g><g fill="#2c2c2c" fill-opacity="1"><g transform="translate(149.506963, 190.124988)"><g><path d="M 3.578125 0 L 1.171875 0 L 1.171875 -11.484375 L 3.578125 -11.484375 Z M 3.578125 0 "/></g></g></g><g fill="#2c2c2c" fill-opacity="1"><g transform="translate(158.43998, 190.124988)"><g><path d="M 3.53125 -1.984375 L 5.859375 -1.984375 C 6.679688 -1.984375 7.320312 -2.328125 7.78125 -3.015625 C 8.238281 -3.703125 8.46875 -4.644531 8.46875 -5.84375 C 8.46875 -7.082031 8.253906 -8.003906 7.828125 -8.609375 C 7.410156 -9.210938 6.769531 -9.515625 5.90625 -9.515625 L 3.53125 -9.515625 Z M 1.171875 -11.484375 L 6.25 -11.484375 C 7.800781 -11.484375 8.96875 -10.976562 9.75 -9.96875 C 10.53125 -8.96875 10.921875 -7.648438 10.921875 -6.015625 C 10.921875 -4.210938 10.503906 -2.757812 9.671875 -1.65625 C 8.835938 -0.550781 7.664062 0 6.15625 0 L 1.171875 0 Z M 1.171875 -11.484375 "/></g></g></g><g fill="#2c2c2c" fill-opacity="1"><g transform="translate(174.246318, 190.124988)"><g/></g></g><g fill="#2c2c2c" fill-opacity="1"><g transform="translate(182.734126, 190.124988)"><g><path d="M 0.25 -11.484375 L 2.8125 -11.484375 L 4.4375 -4.15625 L 4.640625 -3.015625 L 4.671875 -3.015625 L 4.859375 -4.15625 L 6.265625 -11.484375 L 8.8125 -11.484375 L 10.328125 -4.203125 L 10.53125 -3.015625 L 10.5625 -3.015625 L 10.765625 -4.203125 L 12.421875 -11.484375 L 14.859375 -11.484375 L 11.625 0 L 9.328125 0 L 7.703125 -8.0625 L 7.546875 -9.046875 L 7.515625 -9.046875 L 7.375 -8.0625 L 5.734375 0 L 3.5 0 Z M 0.25 -11.484375 "/></g></g></g><g fill="#2c2c2c" fill-opacity="1"><g transform="translate(202.039609, 190.124988)"><g><path d="M 4.171875 -4.359375 L 7.09375 -4.359375 L 5.671875 -8.90625 L 5.640625 -8.90625 Z M 2.734375 0 L 0.203125 0 L 4.296875 -11.484375 L 7.0625 -11.484375 L 11.109375 0 L 8.5 0 L 7.765625 -2.375 L 3.53125 -2.375 Z M 2.734375 0 "/></g></g></g><g fill="#2c2c2c" fill-opacity="1"><g transform="translate(217.533524, 190.124988)"><g><path d="M 3.578125 -2.078125 L 9.28125 -2.078125 L 9.28125 0 L 1.171875 0 L 1.171875 -11.484375 L 3.578125 -11.484375 Z M 3.578125 -2.078125 "/></g></g></g><g fill="#2c2c2c" fill-opacity="1"><g transform="translate(231.277865, 190.124988)"><g><path d="M 6.109375 0 L 3.703125 0 L 3.703125 -9.453125 L 0.234375 -9.453125 L 0.234375 -11.484375 L 9.578125 -11.484375 L 9.578125 -9.453125 L 6.109375 -9.453125 Z M 6.109375 0 "/></g></g></g><g fill="#2c2c2c" fill-opacity="1"><g transform="translate(245.279951, 190.124988)"><g><path d="M 9.625 -9.453125 L 3.53125 -9.453125 L 3.53125 -7.046875 L 9.125 -7.046875 L 9.125 -5.015625 L 3.53125 -5.015625 L 3.53125 -2.03125 L 9.890625 -2.03125 L 9.890625 0 L 1.171875 0 L 1.171875 -11.484375 L 9.625 -11.484375 Z M 9.625 -9.453125 "/></g></g></g><g fill="#2c2c2c" fill-opacity="1"><g transform="translate(260.063096, 190.124988)"><g><path d="M 6.34375 -6.4375 C 6.96875 -6.4375 7.429688 -6.554688 7.734375 -6.796875 C 8.046875 -7.035156 8.203125 -7.4375 8.203125 -8 C 8.203125 -8.46875 8.054688 -8.835938 7.765625 -9.109375 C 7.484375 -9.378906 7.066406 -9.515625 6.515625 -9.515625 L 3.53125 -9.515625 L 3.53125 -6.4375 Z M 1.171875 -11.484375 L 6.984375 -11.484375 C 8.160156 -11.484375 9.054688 -11.164062 9.671875 -10.53125 C 10.285156 -9.90625 10.59375 -9.144531 10.59375 -8.25 C 10.59375 -6.914062 10.003906 -6.003906 8.828125 -5.515625 C 9.367188 -5.304688 9.742188 -5.003906 9.953125 -4.609375 C 10.171875 -4.210938 10.28125 -3.503906 10.28125 -2.484375 C 10.28125 -1.460938 10.316406 -0.859375 10.390625 -0.671875 C 10.460938 -0.492188 10.59375 -0.375 10.78125 -0.3125 L 10.78125 0 L 8.140625 0 C 7.960938 -0.519531 7.875 -1.265625 7.875 -2.234375 C 7.875 -3.054688 7.816406 -3.582031 7.703125 -3.8125 C 7.597656 -4.050781 7.421875 -4.222656 7.171875 -4.328125 C 6.921875 -4.441406 6.53125 -4.5 6 -4.5 L 3.53125 -4.5 L 3.53125 0 L 1.171875 0 Z M 1.171875 -11.484375 "/></g></g></g></svg>