<svg xmlns="http://www.w3.org/2000/svg" xmlns:xlink="http://www.w3.org/1999/xlink" width="500" zoomAndPan="magnify" viewBox="0 0 375 374.999991" height="500" preserveAspectRatio="xMidYMid meet" version="1.0"><defs><g/><clipPath id="5f9f1a8681"><path d="M 104 125.4375 L 199 125.4375 L 199 233 L 104 233 Z M 104 125.4375 " clip-rule="nonzero"/></clipPath><clipPath id="3316d2ff06"><path d="M 87.039062 125.472656 L 237.039062 125.472656 L 237.039062 249.523438 L 87.039062 249.523438 Z M 87.039062 125.472656 " clip-rule="nonzero"/></clipPath></defs><g clip-path="url(#5f9f1a8681)"><path fill="#4d4d4d" d="M 113.542969 177.210938 L 137.53125 153.222656 L 130.921875 146.617188 L 104.199219 173.339844 L 104.199219 232.621094 L 189.988281 232.621094 L 189.988281 223.277344 L 113.542969 223.277344 Z M 152.0625 125.472656 L 141.871094 135.667969 L 148.476562 142.273438 L 152.0625 138.6875 L 191.953125 178.578125 L 198.558594 171.96875 L 152.0625 125.472656 " fill-opacity="1" fill-rule="nonzero"/></g><g clip-path="url(#3316d2ff06)"><path fill="#a6a197" d="M 237.039062 249.523438 L 87.039062 249.523438 L 87.039062 166.148438 L 127.703125 125.472656 L 174.199219 171.96875 L 167.59375 178.578125 L 127.703125 138.6875 L 96.382812 170.019531 L 96.382812 240.179688 L 237.039062 240.179688 L 237.039062 249.523438 " fill-opacity="1" fill-rule="nonzero"/></g><g fill="#4d4d4d" fill-opacity="1"><g transform="translate(198.895259, 231.548642)"><g><path d="M 2.8125 0 L 1.453125 0 L 1.453125 -11.921875 L 2.8125 -11.921875 Z M 2.8125 0 "/></g></g></g><g fill="#4d4d4d" fill-opacity="1"><g transform="translate(203.16125, 231.548642)"><g><path d="M 2.515625 -7.625 C 3.117188 -8.632812 4.03125 -9.140625 5.25 -9.140625 C 5.851562 -9.140625 6.410156 -8.976562 6.921875 -8.65625 C 7.429688 -8.34375 7.832031 -7.898438 8.125 -7.328125 C 8.53125 -8.078125 9.164062 -8.617188 10.03125 -8.953125 C 10.375 -9.078125 10.765625 -9.140625 11.203125 -9.140625 C 11.640625 -9.140625 12.054688 -9.050781 12.453125 -8.875 C 12.859375 -8.707031 13.21875 -8.460938 13.53125 -8.140625 C 14.207031 -7.421875 14.546875 -6.519531 14.546875 -5.4375 L 14.546875 0 L 13.1875 0 L 13.1875 -5.40625 C 13.1875 -6.144531 12.976562 -6.753906 12.5625 -7.234375 C 12.144531 -7.691406 11.613281 -7.921875 10.96875 -7.921875 C 10.28125 -7.921875 9.707031 -7.695312 9.25 -7.25 C 8.769531 -6.789062 8.53125 -6.164062 8.53125 -5.375 L 8.53125 0 L 7.1875 0 L 7.1875 -5.40625 C 7.1875 -6.144531 6.972656 -6.753906 6.546875 -7.234375 C 6.128906 -7.691406 5.597656 -7.921875 4.953125 -7.921875 C 4.265625 -7.921875 3.691406 -7.695312 3.234375 -7.25 C 2.753906 -6.789062 2.515625 -6.164062 2.515625 -5.375 L 2.515625 0 L 1.171875 0 L 1.171875 -9 L 2.515625 -9 Z M 2.515625 -7.625 "/></g></g></g><g fill="#4d4d4d" fill-opacity="1"><g transform="translate(218.785204, 231.548642)"><g><path d="M 2.515625 -7.625 C 3.117188 -8.632812 4.03125 -9.140625 5.25 -9.140625 C 5.851562 -9.140625 6.410156 -8.976562 6.921875 -8.65625 C 7.429688 -8.34375 7.832031 -7.898438 8.125 -7.328125 C 8.53125 -8.078125 9.164062 -8.617188 10.03125 -8.953125 C 10.375 -9.078125 10.765625 -9.140625 11.203125 -9.140625 C 11.640625 -9.140625 12.054688 -9.050781 12.453125 -8.875 C 12.859375 -8.707031 13.21875 -8.460938 13.53125 -8.140625 C 14.207031 -7.421875 14.546875 -6.519531 14.546875 -5.4375 L 14.546875 0 L 13.1875 0 L 13.1875 -5.40625 C 13.1875 -6.144531 12.976562 -6.753906 12.5625 -7.234375 C 12.144531 -7.691406 11.613281 -7.921875 10.96875 -7.921875 C 10.28125 -7.921875 9.707031 -7.695312 9.25 -7.25 C 8.769531 -6.789062 8.53125 -6.164062 8.53125 -5.375 L 8.53125 0 L 7.1875 0 L 7.1875 -5.40625 C 7.1875 -6.144531 6.972656 -6.753906 6.546875 -7.234375 C 6.128906 -7.691406 5.597656 -7.921875 4.953125 -7.921875 C 4.265625 -7.921875 3.691406 -7.695312 3.234375 -7.25 C 2.753906 -6.789062 2.515625 -6.164062 2.515625 -5.375 L 2.515625 0 L 1.171875 0 L 1.171875 -9 L 2.515625 -9 Z M 2.515625 -7.625 "/></g></g></g><g fill="#4d4d4d" fill-opacity="1"><g transform="translate(234.409158, 231.548642)"><g><path d="M 5.078125 -9.140625 C 6.421875 -9.140625 7.515625 -8.691406 8.359375 -7.796875 C 9.148438 -6.929688 9.546875 -5.832031 9.546875 -4.5 C 9.546875 -3.164062 9.148438 -2.066406 8.359375 -1.203125 C 7.515625 -0.304688 6.421875 0.140625 5.078125 0.140625 C 3.734375 0.140625 2.640625 -0.304688 1.796875 -1.203125 C 1.003906 -2.066406 0.609375 -3.164062 0.609375 -4.5 C 0.609375 -5.832031 1.003906 -6.929688 1.796875 -7.796875 C 2.640625 -8.691406 3.734375 -9.140625 5.078125 -9.140625 Z M 5.078125 -1.078125 C 6.046875 -1.078125 6.8125 -1.414062 7.375 -2.09375 C 7.914062 -2.726562 8.1875 -3.53125 8.1875 -4.5 C 8.1875 -5.46875 7.914062 -6.269531 7.375 -6.90625 C 6.8125 -7.582031 6.046875 -7.921875 5.078125 -7.921875 C 4.109375 -7.921875 3.335938 -7.582031 2.765625 -6.90625 C 2.234375 -6.269531 1.96875 -5.46875 1.96875 -4.5 C 1.96875 -3.53125 2.234375 -2.726562 2.765625 -2.09375 C 3.335938 -1.414062 4.109375 -1.078125 5.078125 -1.078125 Z M 5.078125 -1.078125 "/></g></g></g><g fill="#4d4d4d" fill-opacity="1"><g transform="translate(244.561131, 231.548642)"><g><path d="M 2.515625 -7.546875 C 3.253906 -8.609375 4.328125 -9.140625 5.734375 -9.140625 C 7.035156 -9.140625 8.085938 -8.691406 8.890625 -7.796875 C 9.691406 -6.910156 10.09375 -5.8125 10.09375 -4.5 C 10.09375 -3.1875 9.691406 -2.085938 8.890625 -1.203125 C 8.085938 -0.304688 7.003906 0.140625 5.640625 0.140625 C 4.273438 0.140625 3.234375 -0.382812 2.515625 -1.4375 L 2.515625 0 L 1.171875 0 L 1.171875 -12.59375 L 2.515625 -12.59375 Z M 5.5625 -1.078125 C 6.519531 -1.078125 7.300781 -1.414062 7.90625 -2.09375 C 8.46875 -2.726562 8.75 -3.53125 8.75 -4.5 C 8.75 -5.46875 8.46875 -6.269531 7.90625 -6.90625 C 7.300781 -7.582031 6.519531 -7.921875 5.5625 -7.921875 C 4.59375 -7.921875 3.828125 -7.582031 3.265625 -6.90625 C 2.722656 -6.269531 2.453125 -5.46875 2.453125 -4.5 C 2.453125 -3.53125 2.722656 -2.726562 3.265625 -2.09375 C 3.828125 -1.414062 4.59375 -1.078125 5.5625 -1.078125 Z M 5.5625 -1.078125 "/></g></g></g><g fill="#4d4d4d" fill-opacity="1"><g transform="translate(255.253094, 231.548642)"><g><path d="M 1.171875 -9 L 2.515625 -9 L 2.515625 0 L 1.171875 0 Z M 2.578125 -12.28125 L 2.578125 -10.515625 L 1.109375 -10.515625 L 1.109375 -12.28125 Z M 2.578125 -12.28125 "/></g></g></g><g fill="#4d4d4d" fill-opacity="1"><g transform="translate(258.943081, 231.548642)"><g><path d="M 2.515625 0 L 1.171875 0 L 1.171875 -12.59375 L 2.515625 -12.59375 Z M 2.515625 0 "/></g></g></g><g fill="#4d4d4d" fill-opacity="1"><g transform="translate(262.633068, 231.548642)"><g><path d="M 1.171875 -9 L 2.515625 -9 L 2.515625 0 L 1.171875 0 Z M 2.578125 -12.28125 L 2.578125 -10.515625 L 1.109375 -10.515625 L 1.109375 -12.28125 Z M 2.578125 -12.28125 "/></g></g></g><g fill="#4d4d4d" fill-opacity="1"><g transform="translate(266.323055, 231.548642)"><g><path d="M 5.1875 -1.078125 C 6.394531 -1.078125 7.265625 -1.582031 7.796875 -2.59375 L 9.265625 -2.59375 C 8.953125 -1.78125 8.457031 -1.117188 7.78125 -0.609375 C 7.101562 -0.109375 6.234375 0.140625 5.171875 0.140625 C 3.804688 0.140625 2.703125 -0.304688 1.859375 -1.203125 C 1.023438 -2.078125 0.609375 -3.175781 0.609375 -4.5 C 0.609375 -5.832031 1.003906 -6.929688 1.796875 -7.796875 C 2.640625 -8.691406 3.734375 -9.140625 5.078125 -9.140625 C 6.421875 -9.140625 7.515625 -8.691406 8.359375 -7.796875 C 9.148438 -6.929688 9.546875 -5.832031 9.546875 -4.5 L 9.546875 -3.953125 L 2 -3.953125 C 2.09375 -3.128906 2.421875 -2.445312 2.984375 -1.90625 C 3.566406 -1.351562 4.300781 -1.078125 5.1875 -1.078125 Z M 5.078125 -7.921875 C 4.242188 -7.921875 3.546875 -7.660156 2.984375 -7.140625 C 2.460938 -6.648438 2.140625 -6.007812 2.015625 -5.21875 L 8.140625 -5.21875 C 8.015625 -6.007812 7.6875 -6.648438 7.15625 -7.140625 C 6.59375 -7.660156 5.898438 -7.921875 5.078125 -7.921875 Z M 5.078125 -7.921875 "/></g></g></g><g fill="#4d4d4d" fill-opacity="1"><g transform="translate(276.349028, 231.548642)"><g><path d="M 2.515625 -9 L 2.515625 -7.59375 C 2.835938 -8.03125 3.234375 -8.394531 3.703125 -8.6875 C 4.171875 -8.988281 4.703125 -9.140625 5.296875 -9.140625 C 5.898438 -9.140625 6.414062 -9.054688 6.84375 -8.890625 C 7.28125 -8.722656 7.660156 -8.472656 7.984375 -8.140625 C 8.734375 -7.398438 9.109375 -6.429688 9.109375 -5.234375 L 9.109375 0 L 7.765625 0 L 7.765625 -5.203125 C 7.765625 -6.023438 7.53125 -6.679688 7.0625 -7.171875 C 6.59375 -7.671875 5.984375 -7.921875 5.234375 -7.921875 C 4.484375 -7.921875 3.84375 -7.664062 3.3125 -7.15625 C 2.78125 -6.644531 2.515625 -5.988281 2.515625 -5.1875 L 2.515625 0 L 1.171875 0 L 1.171875 -9 Z M 2.515625 -9 "/></g></g></g><g fill="#4d4d4d" fill-opacity="1"><g transform="translate(130.981637, 209.252403)"><g><path d="M 14.5 0 L 10.921875 0 L 10.921875 -7.15625 L 5.578125 -7.15625 L 5.578125 0 L 2 0 L 2 -17.875 L 5.578125 -17.875 L 5.578125 -10.71875 L 10.921875 -10.71875 L 10.921875 -17.875 L 14.5 -17.875 Z M 14.5 0 "/></g></g></g><g fill="#4d4d4d" fill-opacity="1"><g transform="translate(147.50402, 209.252403)"><g><path d="M 11.25 0 L 2 0 L 2 -17.875 L 10.953125 -17.875 L 10.953125 -14.296875 L 5.578125 -14.296875 L 5.578125 -10.71875 L 10.28125 -10.71875 L 10.28125 -7.15625 L 5.578125 -7.15625 L 5.578125 -3.578125 L 11.25 -3.578125 Z M 11.25 0 "/></g></g></g><g fill="#4d4d4d" fill-opacity="1"><g transform="translate(160.10203, 209.252403)"><g><path d="M 5.578125 0 L 2 0 L 2 -17.875 L 5.578125 -17.875 Z M 5.578125 0 "/></g></g></g><g fill="#4d4d4d" fill-opacity="1"><g transform="translate(167.700827, 209.252403)"><g><path d="M 10.203125 -10.296875 L 17.25 -18.15625 L 18.375 -18.15625 L 18.375 0 L 14.75 0 L 14.78125 -9.96875 L 10.203125 -5.171875 L 5.625 -9.96875 L 5.625 0 L 2 0 L 2 -18.15625 L 3.15625 -18.15625 Z M 10.203125 -10.296875 "/></g></g></g><g fill="#4d4d4d" fill-opacity="1"><g transform="translate(188.097596, 209.252403)"><g/></g></g><g fill="#4d4d4d" fill-opacity="1"><g transform="translate(195.196468, 209.252403)"><g><path d="M 7.59375 -18.125 C 8.925781 -18.125 9.976562 -17.785156 10.75 -17.109375 C 11.53125 -16.429688 11.921875 -15.488281 11.921875 -14.28125 C 11.921875 -13.226562 11.582031 -12.332031 10.90625 -11.59375 C 10.238281 -10.863281 9.382812 -10.195312 8.34375 -9.59375 L 13.171875 -4.953125 C 13.609375 -5.460938 13.960938 -6.054688 14.234375 -6.734375 C 14.515625 -7.410156 14.742188 -8.140625 14.921875 -8.921875 L 17.15625 -8.921875 C 16.882812 -7.835938 16.546875 -6.84375 16.140625 -5.9375 C 15.742188 -5.03125 15.226562 -4.234375 14.59375 -3.546875 L 18.25 0 L 15.28125 0 L 13.09375 -2.09375 C 12.3125 -1.394531 11.4375 -0.828125 10.46875 -0.390625 C 9.507812 0.0351562 8.335938 0.25 6.953125 0.25 C 5.210938 0.25 3.835938 -0.171875 2.828125 -1.015625 C 1.828125 -1.867188 1.328125 -3.082031 1.328125 -4.65625 C 1.328125 -5.914062 1.671875 -6.9375 2.359375 -7.71875 C 3.054688 -8.507812 3.992188 -9.238281 5.171875 -9.90625 C 4.640625 -10.5 4.144531 -11.132812 3.6875 -11.8125 C 3.226562 -12.5 3 -13.300781 3 -14.21875 C 3 -15.4375 3.40625 -16.390625 4.21875 -17.078125 C 5.039062 -17.773438 6.164062 -18.125 7.59375 -18.125 Z M 7.53125 -16.328125 C 6.820312 -16.328125 6.25 -16.140625 5.8125 -15.765625 C 5.375 -15.398438 5.15625 -14.894531 5.15625 -14.25 C 5.15625 -13.644531 5.3125 -13.085938 5.625 -12.578125 C 5.9375 -12.078125 6.394531 -11.519531 7 -10.90625 C 7.976562 -11.46875 8.679688 -12 9.109375 -12.5 C 9.535156 -13 9.75 -13.59375 9.75 -14.28125 C 9.75 -14.875 9.546875 -15.363281 9.140625 -15.75 C 8.742188 -16.132812 8.207031 -16.328125 7.53125 -16.328125 Z M 6.5 -8.53125 C 5.601562 -7.988281 4.898438 -7.441406 4.390625 -6.890625 C 3.878906 -6.347656 3.625 -5.625 3.625 -4.71875 C 3.625 -3.800781 3.929688 -3.066406 4.546875 -2.515625 C 5.160156 -1.972656 5.988281 -1.703125 7.03125 -1.703125 C 8.09375 -1.703125 9.003906 -1.875 9.765625 -2.21875 C 10.523438 -2.570312 11.171875 -2.988281 11.703125 -3.46875 Z M 6.5 -8.53125 "/></g></g></g><g fill="#4d4d4d" fill-opacity="1"><g transform="translate(213.493568, 209.252403)"><g/></g></g><g fill="#4d4d4d" fill-opacity="1"><g transform="translate(220.59244, 209.252403)"><g><path d="M 14.5 0 L 10.921875 0 L 10.921875 -7.15625 L 5.578125 -7.15625 L 5.578125 0 L 2 0 L 2 -17.875 L 5.578125 -17.875 L 5.578125 -10.71875 L 10.921875 -10.71875 L 10.921875 -17.875 L 14.5 -17.875 Z M 14.5 0 "/></g></g></g><g fill="#4d4d4d" fill-opacity="1"><g transform="translate(237.114824, 209.252403)"><g><path d="M 10.59375 0.25 C 9.0625 0.25 7.71875 -0.00390625 6.5625 -0.515625 C 5.40625 -1.035156 4.441406 -1.734375 3.671875 -2.609375 C 2.910156 -3.484375 2.335938 -4.46875 1.953125 -5.5625 C 1.566406 -6.664062 1.375 -7.796875 1.375 -8.953125 C 1.375 -10.117188 1.566406 -11.25 1.953125 -12.34375 C 2.335938 -13.445312 2.910156 -14.4375 3.671875 -15.3125 C 4.441406 -16.1875 5.40625 -16.878906 6.5625 -17.390625 C 7.71875 -17.910156 9.0625 -18.171875 10.59375 -18.171875 C 12.132812 -18.171875 13.484375 -17.910156 14.640625 -17.390625 C 15.796875 -16.878906 16.753906 -16.1875 17.515625 -15.3125 C 18.285156 -14.4375 18.863281 -13.445312 19.25 -12.34375 C 19.632812 -11.25 19.828125 -10.117188 19.828125 -8.953125 C 19.828125 -7.796875 19.632812 -6.664062 19.25 -5.5625 C 18.863281 -4.46875 18.285156 -3.484375 17.515625 -2.609375 C 16.753906 -1.734375 15.796875 -1.035156 14.640625 -0.515625 C 13.484375 -0.00390625 12.132812 0.25 10.59375 0.25 Z M 10.59375 -3.453125 C 11.613281 -3.453125 12.488281 -3.648438 13.21875 -4.046875 C 13.957031 -4.453125 14.539062 -4.984375 14.96875 -5.640625 C 15.40625 -6.296875 15.695312 -7.015625 15.84375 -7.796875 C 16 -8.578125 16 -9.359375 15.84375 -10.140625 C 15.695312 -10.929688 15.40625 -11.65625 14.96875 -12.3125 C 14.539062 -12.96875 13.957031 -13.492188 13.21875 -13.890625 C 12.488281 -14.296875 11.613281 -14.5 10.59375 -14.5 C 9.582031 -14.5 8.707031 -14.296875 7.96875 -13.890625 C 7.238281 -13.492188 6.65625 -12.96875 6.21875 -12.3125 C 5.789062 -11.65625 5.5 -10.929688 5.34375 -10.140625 C 5.195312 -9.359375 5.195312 -8.578125 5.34375 -7.796875 C 5.5 -7.015625 5.789062 -6.296875 6.21875 -5.640625 C 6.65625 -4.984375 7.238281 -4.453125 7.96875 -4.046875 C 8.707031 -3.648438 9.582031 -3.453125 10.59375 -3.453125 Z M 10.59375 -3.453125 "/></g></g></g><g fill="#4d4d4d" fill-opacity="1"><g transform="translate(258.286473, 209.252403)"><g><path d="M 10.921875 -14.296875 L 5.578125 -14.296875 L 5.578125 -10.71875 L 10.125 -10.71875 L 10.125 -7.15625 L 5.578125 -7.15625 L 5.578125 0 L 2 0 L 2 -17.875 L 10.921875 -17.875 Z M 10.921875 -14.296875 "/></g></g></g></svg>