<svg xmlns="http://www.w3.org/2000/svg" xmlns:xlink="http://www.w3.org/1999/xlink" width="500" zoomAndPan="magnify" viewBox="0 0 375 374.999991" height="500" preserveAspectRatio="xMidYMid meet" version="1.0"><defs><g/><radialGradient gradientTransform="matrix(1.333333, 0, 0, 1.333333, -0.000000251924, -0.00000291163)" gradientUnits="userSpaceOnUse" r="185.743496" cx="0" id="9543316cd9" cy="0" fx="0" fy="0"><stop stop-opacity="1" stop-color="rgb(16.445923%, 54.385376%, 55.999756%)" offset="0"/><stop stop-opacity="1" stop-color="rgb(16.387939%, 54.075623%, 55.799866%)" offset="0.0078125"/><stop stop-opacity="1" stop-color="rgb(16.319275%, 53.703308%, 55.561829%)" offset="0.0195312"/><stop stop-opacity="1" stop-color="rgb(16.25061%, 53.330994%, 55.322266%)" offset="0.03125"/><stop stop-opacity="1" stop-color="rgb(16.181946%, 52.958679%, 55.082703%)" offset="0.0429688"/><stop stop-opacity="1" stop-color="rgb(16.113281%, 52.586365%, 54.844666%)" offset="0.0546875"/><stop stop-opacity="1" stop-color="rgb(16.043091%, 52.21405%, 54.605103%)" offset="0.0664062"/><stop stop-opacity="1" stop-color="rgb(15.974426%, 51.841736%, 54.367065%)" offset="0.078125"/><stop stop-opacity="1" stop-color="rgb(15.905762%, 51.469421%, 54.127502%)" offset="0.0898438"/><stop stop-opacity="1" stop-color="rgb(15.837097%, 51.097107%, 53.887939%)" offset="0.101562"/><stop stop-opacity="1" stop-color="rgb(15.768433%, 50.724792%, 53.649902%)" offset="0.113281"/><stop stop-opacity="1" stop-color="rgb(15.699768%, 50.352478%, 53.410339%)" offset="0.125"/><stop stop-opacity="1" stop-color="rgb(15.629578%, 49.980164%, 53.172302%)" offset="0.136719"/><stop stop-opacity="1" stop-color="rgb(15.560913%, 49.609375%, 52.932739%)" offset="0.148438"/><stop stop-opacity="1" stop-color="rgb(15.492249%, 49.237061%, 52.693176%)" offset="0.160156"/><stop stop-opacity="1" stop-color="rgb(15.423584%, 48.864746%, 52.455139%)" offset="0.171875"/><stop stop-opacity="1" stop-color="rgb(15.354919%, 48.492432%, 52.215576%)" offset="0.183594"/><stop stop-opacity="1" stop-color="rgb(15.286255%, 48.120117%, 51.977539%)" offset="0.195312"/><stop stop-opacity="1" stop-color="rgb(15.216064%, 47.747803%, 51.737976%)" offset="0.207031"/><stop stop-opacity="1" stop-color="rgb(15.1474%, 47.375488%, 51.498413%)" offset="0.21875"/><stop stop-opacity="1" stop-color="rgb(15.078735%, 47.003174%, 51.260376%)" offset="0.230469"/><stop stop-opacity="1" stop-color="rgb(15.010071%, 46.630859%, 51.020813%)" offset="0.242188"/><stop stop-opacity="1" stop-color="rgb(14.953613%, 46.321106%, 50.822449%)" offset="0.253906"/><stop stop-opacity="1" stop-color="rgb(14.907837%, 46.072388%, 50.662231%)" offset="0.261719"/><stop stop-opacity="1" stop-color="rgb(14.862061%, 45.823669%, 50.50354%)" offset="0.269531"/><stop stop-opacity="1" stop-color="rgb(14.814758%, 45.576477%, 50.344849%)" offset="0.277344"/><stop stop-opacity="1" stop-color="rgb(14.768982%, 45.327759%, 50.184631%)" offset="0.285156"/><stop stop-opacity="1" stop-color="rgb(14.723206%, 45.080566%, 50.02594%)" offset="0.292969"/><stop stop-opacity="1" stop-color="rgb(14.677429%, 44.831848%, 49.865723%)" offset="0.300781"/><stop stop-opacity="1" stop-color="rgb(14.631653%, 44.58313%, 49.707031%)" offset="0.308594"/><stop stop-opacity="1" stop-color="rgb(14.585876%, 44.335938%, 49.54834%)" offset="0.316406"/><stop stop-opacity="1" stop-color="rgb(14.5401%, 44.087219%, 49.388123%)" offset="0.324219"/><stop stop-opacity="1" stop-color="rgb(14.494324%, 43.840027%, 49.229431%)" offset="0.332031"/><stop stop-opacity="1" stop-color="rgb(14.448547%, 43.591309%, 49.069214%)" offset="0.339844"/><stop stop-opacity="1" stop-color="rgb(14.401245%, 43.34259%, 48.910522%)" offset="0.347656"/><stop stop-opacity="1" stop-color="rgb(14.355469%, 43.095398%, 48.751831%)" offset="0.355469"/><stop stop-opacity="1" stop-color="rgb(14.309692%, 42.84668%, 48.591614%)" offset="0.363281"/><stop stop-opacity="1" stop-color="rgb(14.263916%, 42.599487%, 48.432922%)" offset="0.371094"/><stop stop-opacity="1" stop-color="rgb(14.21814%, 42.350769%, 48.272705%)" offset="0.378906"/><stop stop-opacity="1" stop-color="rgb(14.172363%, 42.102051%, 48.114014%)" offset="0.386719"/><stop stop-opacity="1" stop-color="rgb(14.126587%, 41.854858%, 47.955322%)" offset="0.394531"/><stop stop-opacity="1" stop-color="rgb(14.080811%, 41.60614%, 47.795105%)" offset="0.402344"/><stop stop-opacity="1" stop-color="rgb(14.035034%, 41.357422%, 47.636414%)" offset="0.410156"/><stop stop-opacity="1" stop-color="rgb(13.989258%, 41.110229%, 47.476196%)" offset="0.417969"/><stop stop-opacity="1" stop-color="rgb(13.941956%, 40.861511%, 47.317505%)" offset="0.425781"/><stop stop-opacity="1" stop-color="rgb(13.896179%, 40.614319%, 47.158813%)" offset="0.433594"/><stop stop-opacity="1" stop-color="rgb(13.850403%, 40.365601%, 46.998596%)" offset="0.441406"/><stop stop-opacity="1" stop-color="rgb(13.804626%, 40.116882%, 46.839905%)" offset="0.449219"/><stop stop-opacity="1" stop-color="rgb(13.75885%, 39.86969%, 46.679688%)" offset="0.457031"/><stop stop-opacity="1" stop-color="rgb(13.713074%, 39.620972%, 46.520996%)" offset="0.464844"/><stop stop-opacity="1" stop-color="rgb(13.667297%, 39.373779%, 46.362305%)" offset="0.472656"/><stop stop-opacity="1" stop-color="rgb(13.621521%, 39.125061%, 46.202087%)" offset="0.480469"/><stop stop-opacity="1" stop-color="rgb(13.575745%, 38.876343%, 46.043396%)" offset="0.488281"/><stop stop-opacity="1" stop-color="rgb(13.528442%, 38.62915%, 45.883179%)" offset="0.496094"/><stop stop-opacity="1" stop-color="rgb(13.470459%, 38.319397%, 45.684814%)" offset="0.503906"/><stop stop-opacity="1" stop-color="rgb(13.401794%, 37.947083%, 45.445251%)" offset="0.515625"/><stop stop-opacity="1" stop-color="rgb(13.33313%, 37.574768%, 45.207214%)" offset="0.527344"/><stop stop-opacity="1" stop-color="rgb(13.264465%, 37.202454%, 44.967651%)" offset="0.539062"/><stop stop-opacity="1" stop-color="rgb(13.195801%, 36.830139%, 44.729614%)" offset="0.550781"/><stop stop-opacity="1" stop-color="rgb(13.127136%, 36.457825%, 44.490051%)" offset="0.5625"/><stop stop-opacity="1" stop-color="rgb(13.058472%, 36.08551%, 44.250488%)" offset="0.574219"/><stop stop-opacity="1" stop-color="rgb(12.988281%, 35.713196%, 44.012451%)" offset="0.585938"/><stop stop-opacity="1" stop-color="rgb(12.919617%, 35.340881%, 43.772888%)" offset="0.597656"/><stop stop-opacity="1" stop-color="rgb(12.850952%, 34.970093%, 43.534851%)" offset="0.609375"/><stop stop-opacity="1" stop-color="rgb(12.782288%, 34.597778%, 43.295288%)" offset="0.621094"/><stop stop-opacity="1" stop-color="rgb(12.72583%, 34.286499%, 43.096924%)" offset="0.632812"/><stop stop-opacity="1" stop-color="rgb(12.680054%, 34.037781%, 42.936707%)" offset="0.640625"/><stop stop-opacity="1" stop-color="rgb(12.632751%, 33.790588%, 42.778015%)" offset="0.648438"/><stop stop-opacity="1" stop-color="rgb(12.586975%, 33.54187%, 42.617798%)" offset="0.65625"/><stop stop-opacity="1" stop-color="rgb(12.541199%, 33.294678%, 42.459106%)" offset="0.664062"/><stop stop-opacity="1" stop-color="rgb(12.495422%, 33.045959%, 42.300415%)" offset="0.671875"/><stop stop-opacity="1" stop-color="rgb(12.449646%, 32.797241%, 42.140198%)" offset="0.679688"/><stop stop-opacity="1" stop-color="rgb(12.40387%, 32.550049%, 41.981506%)" offset="0.6875"/><stop stop-opacity="1" stop-color="rgb(12.358093%, 32.301331%, 41.821289%)" offset="0.695312"/><stop stop-opacity="1" stop-color="rgb(12.312317%, 32.054138%, 41.662598%)" offset="0.703125"/><stop stop-opacity="1" stop-color="rgb(12.266541%, 31.80542%, 41.503906%)" offset="0.710938"/><stop stop-opacity="1" stop-color="rgb(12.219238%, 31.556702%, 41.343689%)" offset="0.71875"/><stop stop-opacity="1" stop-color="rgb(12.173462%, 31.309509%, 41.184998%)" offset="0.726562"/><stop stop-opacity="1" stop-color="rgb(12.127686%, 31.060791%, 41.02478%)" offset="0.734375"/><stop stop-opacity="1" stop-color="rgb(12.081909%, 30.812073%, 40.866089%)" offset="0.742188"/><stop stop-opacity="1" stop-color="rgb(12.036133%, 30.56488%, 40.707397%)" offset="0.75"/><stop stop-opacity="1" stop-color="rgb(11.978149%, 30.255127%, 40.507507%)" offset="0.757812"/><stop stop-opacity="1" stop-color="rgb(11.909485%, 29.882812%, 40.267944%)" offset="0.769531"/><stop stop-opacity="1" stop-color="rgb(11.84082%, 29.510498%, 40.029907%)" offset="0.78125"/><stop stop-opacity="1" stop-color="rgb(11.772156%, 29.138184%, 39.790344%)" offset="0.792969"/><stop stop-opacity="1" stop-color="rgb(11.701965%, 28.765869%, 39.552307%)" offset="0.804688"/><stop stop-opacity="1" stop-color="rgb(11.645508%, 28.456116%, 39.352417%)" offset="0.816406"/><stop stop-opacity="1" stop-color="rgb(11.599731%, 28.207397%, 39.193726%)" offset="0.824219"/><stop stop-opacity="1" stop-color="rgb(11.553955%, 27.958679%, 39.033508%)" offset="0.832031"/><stop stop-opacity="1" stop-color="rgb(11.508179%, 27.711487%, 38.874817%)" offset="0.839844"/><stop stop-opacity="1" stop-color="rgb(11.462402%, 27.462769%, 38.716125%)" offset="0.847656"/><stop stop-opacity="1" stop-color="rgb(11.416626%, 27.215576%, 38.555908%)" offset="0.855469"/><stop stop-opacity="1" stop-color="rgb(11.37085%, 26.966858%, 38.397217%)" offset="0.863281"/><stop stop-opacity="1" stop-color="rgb(11.323547%, 26.71814%, 38.237%)" offset="0.871094"/><stop stop-opacity="1" stop-color="rgb(11.265564%, 26.408386%, 38.038635%)" offset="0.878906"/><stop stop-opacity="1" stop-color="rgb(11.196899%, 26.036072%, 37.799072%)" offset="0.890625"/><stop stop-opacity="1" stop-color="rgb(11.128235%, 25.665283%, 37.561035%)" offset="0.902344"/><stop stop-opacity="1" stop-color="rgb(11.071777%, 25.354004%, 37.361145%)" offset="0.914062"/><stop stop-opacity="1" stop-color="rgb(11.026001%, 25.105286%, 37.202454%)" offset="0.921875"/><stop stop-opacity="1" stop-color="rgb(10.980225%, 24.858093%, 37.042236%)" offset="0.929688"/><stop stop-opacity="1" stop-color="rgb(10.934448%, 24.609375%, 36.883545%)" offset="0.9375"/><stop stop-opacity="1" stop-color="rgb(10.876465%, 24.299622%, 36.683655%)" offset="0.945312"/><stop stop-opacity="1" stop-color="rgb(10.818481%, 23.989868%, 36.485291%)" offset="0.957031"/><stop stop-opacity="1" stop-color="rgb(10.772705%, 23.74115%, 36.326599%)" offset="0.964844"/><stop stop-opacity="1" stop-color="rgb(10.714722%, 23.431396%, 36.126709%)" offset="0.972656"/><stop stop-opacity="1" stop-color="rgb(10.658264%, 23.121643%, 35.928345%)" offset="0.984375"/><stop stop-opacity="1" stop-color="rgb(10.612488%, 22.872925%, 35.768127%)" offset="0.992188"/><stop stop-opacity="1" stop-color="rgb(10.5896%, 22.749329%, 35.688782%)" offset="1"/></radialGradient><clipPath id="db460c5bac"><path d="M 186 240 L 199 240 L 199 252 L 186 252 Z M 186 240 " clip-rule="nonzero"/></clipPath><clipPath id="c5d2792cf8"><path d="M 186.804688 245.726562 C 186.804688 242.621094 189.324219 240.101562 192.429688 240.101562 C 195.535156 240.101562 198.054688 242.621094 198.054688 245.726562 C 198.054688 248.832031 195.535156 251.351562 192.429688 251.351562 C 189.324219 251.351562 186.804688 248.832031 186.804688 245.726562 " clip-rule="nonzero"/></clipPath><radialGradient gradientTransform="matrix(1, 0, 0, 1, 31.94537, 158.790676)" gradientUnits="userSpaceOnUse" r="185.743496" cx="0" id="f17fa286a8" cy="0" fx="0" fy="0"><stop stop-opacity="1" stop-color="rgb(16.445923%, 54.385376%, 55.999756%)" offset="0"/><stop stop-opacity="1" stop-color="rgb(16.387939%, 54.075623%, 55.799866%)" offset="0.0078125"/><stop stop-opacity="1" stop-color="rgb(16.319275%, 53.703308%, 55.561829%)" offset="0.0195312"/><stop stop-opacity="1" stop-color="rgb(16.25061%, 53.330994%, 55.322266%)" offset="0.03125"/><stop stop-opacity="1" stop-color="rgb(16.181946%, 52.958679%, 55.082703%)" offset="0.0429688"/><stop stop-opacity="1" stop-color="rgb(16.113281%, 52.586365%, 54.844666%)" offset="0.0546875"/><stop stop-opacity="1" stop-color="rgb(16.043091%, 52.21405%, 54.605103%)" offset="0.0664062"/><stop stop-opacity="1" stop-color="rgb(15.974426%, 51.841736%, 54.367065%)" offset="0.078125"/><stop stop-opacity="1" stop-color="rgb(15.905762%, 51.469421%, 54.127502%)" offset="0.0898438"/><stop stop-opacity="1" stop-color="rgb(15.837097%, 51.097107%, 53.887939%)" offset="0.101562"/><stop stop-opacity="1" stop-color="rgb(15.768433%, 50.724792%, 53.649902%)" offset="0.113281"/><stop stop-opacity="1" stop-color="rgb(15.699768%, 50.352478%, 53.410339%)" offset="0.125"/><stop stop-opacity="1" stop-color="rgb(15.629578%, 49.980164%, 53.172302%)" offset="0.136719"/><stop stop-opacity="1" stop-color="rgb(15.560913%, 49.609375%, 52.932739%)" offset="0.148438"/><stop stop-opacity="1" stop-color="rgb(15.492249%, 49.237061%, 52.693176%)" offset="0.160156"/><stop stop-opacity="1" stop-color="rgb(15.423584%, 48.864746%, 52.455139%)" offset="0.171875"/><stop stop-opacity="1" stop-color="rgb(15.354919%, 48.492432%, 52.215576%)" offset="0.183594"/><stop stop-opacity="1" stop-color="rgb(15.286255%, 48.120117%, 51.977539%)" offset="0.195312"/><stop stop-opacity="1" stop-color="rgb(15.216064%, 47.747803%, 51.737976%)" offset="0.207031"/><stop stop-opacity="1" stop-color="rgb(15.1474%, 47.375488%, 51.498413%)" offset="0.21875"/><stop stop-opacity="1" stop-color="rgb(15.078735%, 47.003174%, 51.260376%)" offset="0.230469"/><stop stop-opacity="1" stop-color="rgb(15.010071%, 46.630859%, 51.020813%)" offset="0.242188"/><stop stop-opacity="1" stop-color="rgb(14.953613%, 46.321106%, 50.822449%)" offset="0.253906"/><stop stop-opacity="1" stop-color="rgb(14.907837%, 46.072388%, 50.662231%)" offset="0.261719"/><stop stop-opacity="1" stop-color="rgb(14.862061%, 45.823669%, 50.50354%)" offset="0.269531"/><stop stop-opacity="1" stop-color="rgb(14.814758%, 45.576477%, 50.344849%)" offset="0.277344"/><stop stop-opacity="1" stop-color="rgb(14.768982%, 45.327759%, 50.184631%)" offset="0.285156"/><stop stop-opacity="1" stop-color="rgb(14.723206%, 45.080566%, 50.02594%)" offset="0.292969"/><stop stop-opacity="1" stop-color="rgb(14.677429%, 44.831848%, 49.865723%)" offset="0.300781"/><stop stop-opacity="1" stop-color="rgb(14.631653%, 44.58313%, 49.707031%)" offset="0.308594"/><stop stop-opacity="1" stop-color="rgb(14.585876%, 44.335938%, 49.54834%)" offset="0.316406"/><stop stop-opacity="1" stop-color="rgb(14.5401%, 44.087219%, 49.388123%)" offset="0.324219"/><stop stop-opacity="1" stop-color="rgb(14.494324%, 43.840027%, 49.229431%)" offset="0.332031"/><stop stop-opacity="1" stop-color="rgb(14.448547%, 43.591309%, 49.069214%)" offset="0.339844"/><stop stop-opacity="1" stop-color="rgb(14.401245%, 43.34259%, 48.910522%)" offset="0.347656"/><stop stop-opacity="1" stop-color="rgb(14.355469%, 43.095398%, 48.751831%)" offset="0.355469"/><stop stop-opacity="1" stop-color="rgb(14.309692%, 42.84668%, 48.591614%)" offset="0.363281"/><stop stop-opacity="1" stop-color="rgb(14.263916%, 42.599487%, 48.432922%)" offset="0.371094"/><stop stop-opacity="1" stop-color="rgb(14.21814%, 42.350769%, 48.272705%)" offset="0.378906"/><stop stop-opacity="1" stop-color="rgb(14.172363%, 42.102051%, 48.114014%)" offset="0.386719"/><stop stop-opacity="1" stop-color="rgb(14.126587%, 41.854858%, 47.955322%)" offset="0.394531"/><stop stop-opacity="1" stop-color="rgb(14.080811%, 41.60614%, 47.795105%)" offset="0.402344"/><stop stop-opacity="1" stop-color="rgb(14.035034%, 41.357422%, 47.636414%)" offset="0.410156"/><stop stop-opacity="1" stop-color="rgb(13.989258%, 41.110229%, 47.476196%)" offset="0.417969"/><stop stop-opacity="1" stop-color="rgb(13.941956%, 40.861511%, 47.317505%)" offset="0.425781"/><stop stop-opacity="1" stop-color="rgb(13.896179%, 40.614319%, 47.158813%)" offset="0.433594"/><stop stop-opacity="1" stop-color="rgb(13.850403%, 40.365601%, 46.998596%)" offset="0.441406"/><stop stop-opacity="1" stop-color="rgb(13.804626%, 40.116882%, 46.839905%)" offset="0.449219"/><stop stop-opacity="1" stop-color="rgb(13.75885%, 39.86969%, 46.679688%)" offset="0.457031"/><stop stop-opacity="1" stop-color="rgb(13.713074%, 39.620972%, 46.520996%)" offset="0.464844"/><stop stop-opacity="1" stop-color="rgb(13.667297%, 39.373779%, 46.362305%)" offset="0.472656"/><stop stop-opacity="1" stop-color="rgb(13.621521%, 39.125061%, 46.202087%)" offset="0.480469"/><stop stop-opacity="1" stop-color="rgb(13.575745%, 38.876343%, 46.043396%)" offset="0.488281"/><stop stop-opacity="1" stop-color="rgb(13.528442%, 38.62915%, 45.883179%)" offset="0.496094"/><stop stop-opacity="1" stop-color="rgb(13.470459%, 38.319397%, 45.684814%)" offset="0.503906"/><stop stop-opacity="1" stop-color="rgb(13.401794%, 37.947083%, 45.445251%)" offset="0.515625"/><stop stop-opacity="1" stop-color="rgb(13.33313%, 37.574768%, 45.207214%)" offset="0.527344"/><stop stop-opacity="1" stop-color="rgb(13.264465%, 37.202454%, 44.967651%)" offset="0.539062"/><stop stop-opacity="1" stop-color="rgb(13.195801%, 36.830139%, 44.729614%)" offset="0.550781"/><stop stop-opacity="1" stop-color="rgb(13.127136%, 36.457825%, 44.490051%)" offset="0.5625"/><stop stop-opacity="1" stop-color="rgb(13.058472%, 36.08551%, 44.250488%)" offset="0.574219"/><stop stop-opacity="1" stop-color="rgb(12.988281%, 35.713196%, 44.012451%)" offset="0.585938"/><stop stop-opacity="1" stop-color="rgb(12.919617%, 35.340881%, 43.772888%)" offset="0.597656"/><stop stop-opacity="1" stop-color="rgb(12.850952%, 34.970093%, 43.534851%)" offset="0.609375"/><stop stop-opacity="1" stop-color="rgb(12.782288%, 34.597778%, 43.295288%)" offset="0.621094"/><stop stop-opacity="1" stop-color="rgb(12.72583%, 34.286499%, 43.096924%)" offset="0.632812"/><stop stop-opacity="1" stop-color="rgb(12.680054%, 34.037781%, 42.936707%)" offset="0.640625"/><stop stop-opacity="1" stop-color="rgb(12.632751%, 33.790588%, 42.778015%)" offset="0.648438"/><stop stop-opacity="1" stop-color="rgb(12.586975%, 33.54187%, 42.617798%)" offset="0.65625"/><stop stop-opacity="1" stop-color="rgb(12.541199%, 33.294678%, 42.459106%)" offset="0.664062"/><stop stop-opacity="1" stop-color="rgb(12.495422%, 33.045959%, 42.300415%)" offset="0.671875"/><stop stop-opacity="1" stop-color="rgb(12.449646%, 32.797241%, 42.140198%)" offset="0.679688"/><stop stop-opacity="1" stop-color="rgb(12.40387%, 32.550049%, 41.981506%)" offset="0.6875"/><stop stop-opacity="1" stop-color="rgb(12.358093%, 32.301331%, 41.821289%)" offset="0.695312"/><stop stop-opacity="1" stop-color="rgb(12.312317%, 32.054138%, 41.662598%)" offset="0.703125"/><stop stop-opacity="1" stop-color="rgb(12.266541%, 31.80542%, 41.503906%)" offset="0.710938"/><stop stop-opacity="1" stop-color="rgb(12.219238%, 31.556702%, 41.343689%)" offset="0.71875"/><stop stop-opacity="1" stop-color="rgb(12.173462%, 31.309509%, 41.184998%)" offset="0.726562"/><stop stop-opacity="1" stop-color="rgb(12.127686%, 31.060791%, 41.02478%)" offset="0.734375"/><stop stop-opacity="1" stop-color="rgb(12.081909%, 30.812073%, 40.866089%)" offset="0.742188"/><stop stop-opacity="1" stop-color="rgb(12.036133%, 30.56488%, 40.707397%)" offset="0.75"/><stop stop-opacity="1" stop-color="rgb(11.978149%, 30.255127%, 40.507507%)" offset="0.757812"/><stop stop-opacity="1" stop-color="rgb(11.909485%, 29.882812%, 40.267944%)" offset="0.769531"/><stop stop-opacity="1" stop-color="rgb(11.84082%, 29.510498%, 40.029907%)" offset="0.78125"/><stop stop-opacity="1" stop-color="rgb(11.772156%, 29.138184%, 39.790344%)" offset="0.792969"/><stop stop-opacity="1" stop-color="rgb(11.701965%, 28.765869%, 39.552307%)" offset="0.804688"/><stop stop-opacity="1" stop-color="rgb(11.645508%, 28.456116%, 39.352417%)" offset="0.816406"/><stop stop-opacity="1" stop-color="rgb(11.599731%, 28.207397%, 39.193726%)" offset="0.824219"/><stop stop-opacity="1" stop-color="rgb(11.553955%, 27.958679%, 39.033508%)" offset="0.832031"/><stop stop-opacity="1" stop-color="rgb(11.508179%, 27.711487%, 38.874817%)" offset="0.839844"/><stop stop-opacity="1" stop-color="rgb(11.462402%, 27.462769%, 38.716125%)" offset="0.847656"/><stop stop-opacity="1" stop-color="rgb(11.416626%, 27.215576%, 38.555908%)" offset="0.855469"/><stop stop-opacity="1" stop-color="rgb(11.37085%, 26.966858%, 38.397217%)" offset="0.863281"/><stop stop-opacity="1" stop-color="rgb(11.323547%, 26.71814%, 38.237%)" offset="0.871094"/><stop stop-opacity="1" stop-color="rgb(11.265564%, 26.408386%, 38.038635%)" offset="0.878906"/><stop stop-opacity="1" stop-color="rgb(11.196899%, 26.036072%, 37.799072%)" offset="0.890625"/><stop stop-opacity="1" stop-color="rgb(11.128235%, 25.665283%, 37.561035%)" offset="0.902344"/><stop stop-opacity="1" stop-color="rgb(11.071777%, 25.354004%, 37.361145%)" offset="0.914062"/><stop stop-opacity="1" stop-color="rgb(11.026001%, 25.105286%, 37.202454%)" offset="0.921875"/><stop stop-opacity="1" stop-color="rgb(10.980225%, 24.858093%, 37.042236%)" offset="0.929688"/><stop stop-opacity="1" stop-color="rgb(10.934448%, 24.609375%, 36.883545%)" offset="0.9375"/><stop stop-opacity="1" stop-color="rgb(10.876465%, 24.299622%, 36.683655%)" offset="0.945312"/><stop stop-opacity="1" stop-color="rgb(10.818481%, 23.989868%, 36.485291%)" offset="0.957031"/><stop stop-opacity="1" stop-color="rgb(10.772705%, 23.74115%, 36.326599%)" offset="0.964844"/><stop stop-opacity="1" stop-color="rgb(10.714722%, 23.431396%, 36.126709%)" offset="0.972656"/><stop stop-opacity="1" stop-color="rgb(10.658264%, 23.121643%, 35.928345%)" offset="0.984375"/><stop stop-opacity="1" stop-color="rgb(10.612488%, 22.872925%, 35.768127%)" offset="0.992188"/><stop stop-opacity="1" stop-color="rgb(10.5896%, 22.749329%, 35.688782%)" offset="1"/></radialGradient><clipPath id="2a163338ea"><path d="M 48 155 L 60 155 L 60 167 L 48 167 Z M 48 155 " clip-rule="nonzero"/></clipPath><clipPath id="b6b252b56c"><path d="M 59.992188 160.664062 C 59.992188 163.773438 57.472656 166.289062 54.367188 166.289062 C 51.261719 166.289062 48.742188 163.773438 48.742188 160.664062 C 48.742188 157.558594 51.261719 155.039062 54.367188 155.039062 C 57.472656 155.039062 59.992188 157.558594 59.992188 160.664062 " clip-rule="nonzero"/></clipPath></defs><rect x="-37.5" width="450" fill="#ffffff" y="-37.499999" height="449.999989" fill-opacity="1"/><rect x="-37.5" width="450" fill="#ffffff" y="-37.499999" height="449.999989" fill-opacity="1"/><g fill="#1b3a5b" fill-opacity="1"><g transform="translate(67.862735, 196.585205)"><g><path d="M 68.09375 -0.046875 L 46.34375 -0.03125 L 20.8125 -29.40625 L 20.828125 -0.015625 L 5.03125 0 L 4.984375 -69.265625 L 20.78125 -69.28125 L 20.796875 -40.984375 L 44.53125 -69.296875 L 63.671875 -69.296875 L 35.828125 -36.453125 Z M 68.09375 -0.046875 "/></g></g></g><g fill="#1b3a5b" fill-opacity="1"><g transform="translate(129.726998, 196.547104)"><g><path d="M 5.03125 0 L 4.984375 -72.203125 L 19.84375 -72.21875 L 19.890625 -0.015625 Z M 5.03125 0 "/></g></g></g><g fill="#1b3a5b" fill-opacity="1"><g transform="translate(150.460014, 196.534334)"><g><path d="M 19.03125 -43.078125 L 19.046875 -22.59375 C 19.046875 -18.34375 19.691406 -15.320312 20.984375 -13.53125 C 22.273438 -11.738281 24.457031 -10.84375 27.53125 -10.84375 C 30.613281 -10.84375 32.796875 -11.738281 34.078125 -13.53125 C 35.359375 -15.320312 36 -18.34375 36 -22.59375 L 35.984375 -43.078125 L 50.84375 -43.09375 L 50.859375 -19 C 50.867188 -11.84375 49.007812 -6.679688 45.28125 -3.515625 C 41.5625 -0.347656 35.644531 1.234375 27.53125 1.234375 C 19.414062 1.242188 13.5 -0.328125 9.78125 -3.484375 C 6.0625 -6.648438 4.195312 -11.8125 4.1875 -18.96875 L 4.171875 -43.0625 Z M 19.03125 -43.078125 "/></g></g></g><g fill="#1b3a5b" fill-opacity="1"><g transform="translate(201.327972, 196.503005)"><g><path d="M 3.109375 10.578125 L 15.28125 4.609375 C 17.519531 8.296875 21.410156 10.140625 26.953125 10.140625 C 29.523438 10.140625 31.914062 9.3125 34.125 7.65625 C 36.332031 6.007812 37.4375 3.476562 37.4375 0.0625 L 37.4375 -3.125 C 34.8125 -0.207031 30.113281 1.25 23.34375 1.25 C 17.125 1.25 12 -0.941406 7.96875 -5.328125 C 3.945312 -9.722656 1.929688 -15.109375 1.921875 -21.484375 C 1.921875 -27.867188 3.929688 -33.273438 7.953125 -37.703125 C 11.972656 -42.128906 17.09375 -44.34375 23.3125 -44.34375 C 28.851562 -44.34375 33.46875 -42.632812 37.15625 -39.21875 L 37.40625 -39.21875 L 37.40625 -43.078125 L 52.265625 -43.09375 L 52.296875 1.140625 C 52.296875 8.140625 49.972656 13.546875 45.328125 17.359375 C 40.691406 21.171875 34.570312 23.078125 26.96875 23.078125 C 14.65625 23.085938 6.703125 18.921875 3.109375 10.578125 Z M 20.59375 -28.8125 C 18.664062 -26.90625 17.703125 -24.46875 17.703125 -21.5 C 17.703125 -18.539062 18.625 -16.125 20.46875 -14.25 C 22.320312 -12.375 24.757812 -11.4375 27.78125 -11.4375 C 30.695312 -11.4375 33.085938 -12.382812 34.953125 -14.28125 C 36.828125 -16.1875 37.765625 -18.59375 37.765625 -21.5 C 37.765625 -24.46875 36.796875 -26.90625 34.859375 -28.8125 C 32.929688 -30.71875 30.566406 -31.671875 27.765625 -31.671875 C 24.910156 -31.671875 22.519531 -30.71875 20.59375 -28.8125 Z M 20.59375 -28.8125 "/></g></g></g><g fill="#1b3a5b" fill-opacity="1"><g transform="translate(254.46234, 196.47028)"><g><path d="M 48.59375 -19.515625 L 17.359375 -19.5 C 17.359375 -16.46875 18.335938 -14.222656 20.296875 -12.765625 C 22.265625 -11.316406 24.398438 -10.59375 26.703125 -10.59375 C 29.109375 -10.59375 31.007812 -10.914062 32.40625 -11.5625 C 33.800781 -12.207031 35.390625 -13.476562 37.171875 -15.375 L 47.9375 -10.015625 C 43.457031 -2.515625 36.015625 1.238281 25.609375 1.25 C 19.109375 1.25 13.535156 -0.972656 8.890625 -5.421875 C 4.253906 -9.867188 1.929688 -15.222656 1.921875 -21.484375 C 1.921875 -27.753906 4.238281 -33.128906 8.875 -37.609375 C 13.507812 -42.097656 19.078125 -44.34375 25.578125 -44.34375 C 32.398438 -44.34375 37.953125 -42.367188 42.234375 -38.421875 C 46.523438 -34.484375 48.671875 -28.847656 48.671875 -21.515625 C 48.671875 -20.515625 48.644531 -19.847656 48.59375 -19.515625 Z M 17.78125 -27.71875 L 34.15625 -27.71875 C 33.820312 -29.957031 32.941406 -31.675781 31.515625 -32.875 C 30.085938 -34.082031 28.253906 -34.6875 26.015625 -34.6875 C 23.546875 -34.6875 21.582031 -34.039062 20.125 -32.75 C 18.675781 -31.46875 17.894531 -29.789062 17.78125 -27.71875 Z M 17.78125 -27.71875 "/></g></g></g><g fill="#1b3a5b" fill-opacity="1"><g transform="translate(300.881397, 196.441691)"><g><path d="M 5.03125 0 L 5 -43.0625 L 19.859375 -43.078125 L 19.875 -36.875 L 20.046875 -36.875 C 20.160156 -37.09375 20.34375 -37.367188 20.59375 -37.703125 C 20.84375 -38.046875 21.382812 -38.632812 22.21875 -39.46875 C 23.050781 -40.3125 23.941406 -41.066406 24.890625 -41.734375 C 25.847656 -42.410156 27.082031 -43.015625 28.59375 -43.546875 C 30.101562 -44.078125 31.644531 -44.34375 33.21875 -44.34375 C 34.84375 -44.34375 36.4375 -44.117188 38 -43.671875 C 39.5625 -43.234375 40.707031 -42.789062 41.4375 -42.34375 L 42.609375 -41.671875 L 36.421875 -29.0625 C 34.578125 -30.632812 32.003906 -31.421875 28.703125 -31.421875 C 26.910156 -31.421875 25.367188 -31.023438 24.078125 -30.234375 C 22.785156 -29.453125 21.875 -28.5 21.34375 -27.375 C 20.8125 -26.257812 20.429688 -25.3125 20.203125 -24.53125 C 19.984375 -23.75 19.875 -23.132812 19.875 -22.6875 L 19.890625 -0.015625 Z M 5.03125 0 "/></g></g></g><g fill="#1b3a5b" fill-opacity="1"><g transform="translate(213.603419, 252.102391)"><g><path d="M 4.59375 0 L 2.984375 0 L 0.5625 -10.515625 L 1.796875 -10.515625 L 3.765625 -1.8125 L 3.953125 -1.8125 L 6.3125 -10.515625 L 7.453125 -10.515625 L 9.8125 -1.8125 L 10 -1.8125 L 11.984375 -10.515625 L 13.171875 -10.515625 L 10.765625 0 L 9.140625 0 L 6.9375 -7.96875 L 6.796875 -7.96875 Z M 4.59375 0 "/></g></g></g><g fill="#1b3a5b" fill-opacity="1"><g transform="translate(228.059801, 252.102391)"><g><path d="M 2.828125 -4.953125 L 2.828125 -1.015625 L 8.1875 -1.015625 L 8.1875 0 L 1.59375 0 L 1.59375 -10.515625 L 8.078125 -10.515625 L 8.078125 -9.5 L 2.828125 -9.5 L 2.828125 -5.984375 L 7.453125 -5.984375 L 7.453125 -4.953125 Z M 2.828125 -4.953125 "/></g></g></g><g fill="#1b3a5b" fill-opacity="1"><g transform="translate(237.67222, 252.102391)"><g><path d="M 1.59375 0 L 1.59375 -10.515625 L 5.40625 -10.515625 C 6.113281 -10.515625 6.707031 -10.398438 7.1875 -10.171875 C 7.664062 -9.941406 8.023438 -9.613281 8.265625 -9.1875 C 8.503906 -8.757812 8.625 -8.253906 8.625 -7.671875 C 8.625 -7.023438 8.457031 -6.488281 8.125 -6.0625 C 7.800781 -5.632812 7.296875 -5.316406 6.609375 -5.109375 L 6.609375 -4.953125 C 6.953125 -4.816406 7.226562 -4.601562 7.4375 -4.3125 C 7.65625 -4.03125 7.859375 -3.601562 8.046875 -3.03125 L 9.015625 0 L 7.734375 0 L 6.6875 -3.21875 C 6.5625 -3.59375 6.414062 -3.890625 6.25 -4.109375 C 6.09375 -4.328125 5.890625 -4.484375 5.640625 -4.578125 C 5.390625 -4.671875 5.070312 -4.71875 4.6875 -4.71875 L 2.828125 -4.71875 L 2.828125 0 Z M 5.375 -5.765625 C 6.03125 -5.765625 6.519531 -5.914062 6.84375 -6.21875 C 7.164062 -6.53125 7.328125 -7 7.328125 -7.625 C 7.328125 -8.238281 7.164062 -8.695312 6.84375 -9 C 6.519531 -9.3125 6.03125 -9.46875 5.375 -9.46875 L 2.828125 -9.46875 L 2.828125 -5.765625 Z M 5.375 -5.765625 "/></g></g></g><g fill="#1b3a5b" fill-opacity="1"><g transform="translate(248.139878, 252.102391)"><g><path d="M 1.59375 0 L 1.59375 -10.515625 L 5.578125 -10.515625 C 6.222656 -10.515625 6.769531 -10.410156 7.21875 -10.203125 C 7.675781 -10.003906 8.015625 -9.710938 8.234375 -9.328125 C 8.460938 -8.941406 8.578125 -8.488281 8.578125 -7.96875 C 8.578125 -7.507812 8.453125 -7.09375 8.203125 -6.71875 C 7.960938 -6.351562 7.613281 -6.066406 7.15625 -5.859375 L 7.15625 -5.71875 C 7.851562 -5.539062 8.378906 -5.222656 8.734375 -4.765625 C 9.097656 -4.316406 9.28125 -3.742188 9.28125 -3.046875 C 9.28125 -2.066406 8.992188 -1.3125 8.421875 -0.78125 C 7.847656 -0.257812 7 0 5.875 0 Z M 5.515625 -6.09375 C 6.097656 -6.09375 6.550781 -6.242188 6.875 -6.546875 C 7.195312 -6.859375 7.359375 -7.28125 7.359375 -7.8125 C 7.359375 -8.375 7.203125 -8.796875 6.890625 -9.078125 C 6.578125 -9.359375 6.117188 -9.5 5.515625 -9.5 L 2.828125 -9.5 L 2.828125 -6.09375 Z M 5.78125 -1.015625 C 7.28125 -1.015625 8.03125 -1.691406 8.03125 -3.046875 C 8.03125 -4.398438 7.28125 -5.078125 5.78125 -5.078125 L 2.828125 -5.078125 L 2.828125 -1.015625 Z M 5.78125 -1.015625 "/></g></g></g><g fill="#1b3a5b" fill-opacity="1"><g transform="translate(258.988441, 252.102391)"><g><path d="M 2.828125 -4.953125 L 2.828125 -1.015625 L 8.1875 -1.015625 L 8.1875 0 L 1.59375 0 L 1.59375 -10.515625 L 8.078125 -10.515625 L 8.078125 -9.5 L 2.828125 -9.5 L 2.828125 -5.984375 L 7.453125 -5.984375 L 7.453125 -4.953125 Z M 2.828125 -4.953125 "/></g></g></g><g fill="#1b3a5b" fill-opacity="1"><g transform="translate(268.60086, 252.102391)"><g><path d="M 9.46875 0 L 8.140625 0 L 7.171875 -2.890625 L 2.6875 -2.890625 L 1.71875 0 L 0.421875 0 L 4.09375 -10.515625 L 5.796875 -10.515625 Z M 4.84375 -9.25 L 3.03125 -3.921875 L 6.828125 -3.921875 L 5.015625 -9.25 Z M 4.84375 -9.25 "/></g></g></g><g fill="#1b3a5b" fill-opacity="1"><g transform="translate(279.212256, 252.102391)"><g><path d="M 5.53125 0.15625 C 4.644531 0.15625 3.863281 -0.046875 3.1875 -0.453125 C 2.519531 -0.859375 1.992188 -1.460938 1.609375 -2.265625 C 1.234375 -3.078125 1.046875 -4.078125 1.046875 -5.265625 C 1.046875 -6.441406 1.25 -7.429688 1.65625 -8.234375 C 2.0625 -9.046875 2.625 -9.65625 3.34375 -10.0625 C 4.0625 -10.46875 4.890625 -10.671875 5.828125 -10.671875 C 6.835938 -10.671875 7.664062 -10.488281 8.3125 -10.125 C 8.957031 -9.757812 9.414062 -9.21875 9.6875 -8.5 L 8.890625 -8.03125 L 8.703125 -8.03125 C 8.429688 -8.570312 8.0625 -8.960938 7.59375 -9.203125 C 7.132812 -9.441406 6.546875 -9.5625 5.828125 -9.5625 C 3.523438 -9.5625 2.375 -8.128906 2.375 -5.265625 C 2.375 -3.765625 2.660156 -2.671875 3.234375 -1.984375 C 3.816406 -1.304688 4.632812 -0.96875 5.6875 -0.96875 C 6.644531 -0.96875 7.359375 -1.1875 7.828125 -1.625 C 8.304688 -2.0625 8.546875 -2.75 8.546875 -3.6875 L 8.546875 -4.609375 L 5.5625 -4.609375 L 5.5625 -5.609375 L 9.75 -5.609375 L 9.75 0 L 8.609375 0 L 8.609375 -1.40625 L 8.453125 -1.453125 C 8.179688 -0.910156 7.796875 -0.503906 7.296875 -0.234375 C 6.796875 0.0234375 6.207031 0.15625 5.53125 0.15625 Z M 5.53125 0.15625 "/></g></g></g><g fill="#1b3a5b" fill-opacity="1"><g transform="translate(290.872938, 252.102391)"><g><path d="M 2.828125 -4.953125 L 2.828125 -1.015625 L 8.1875 -1.015625 L 8.1875 0 L 1.59375 0 L 1.59375 -10.515625 L 8.078125 -10.515625 L 8.078125 -9.5 L 2.828125 -9.5 L 2.828125 -5.984375 L 7.453125 -5.984375 L 7.453125 -4.953125 Z M 2.828125 -4.953125 "/></g></g></g><g fill="#1b3a5b" fill-opacity="1"><g transform="translate(300.485356, 252.102391)"><g><path d="M 2.796875 0 L 1.59375 0 L 1.59375 -10.515625 L 3.109375 -10.515625 L 8.234375 -2.484375 L 8.421875 -2.515625 L 8.421875 -10.515625 L 9.625 -10.515625 L 9.625 0 L 8.328125 0 L 2.984375 -8.59375 L 2.796875 -8.5625 Z M 2.796875 0 "/></g></g></g><g fill="#1b3a5b" fill-opacity="1"><g transform="translate(312.426327, 252.102391)"><g><path d="M 8.203125 -10.515625 L 8.203125 -9.46875 L 4.90625 -9.46875 L 4.90625 0 L 3.6875 0 L 3.6875 -9.46875 L 0.390625 -9.46875 L 0.390625 -10.515625 Z M 8.203125 -10.515625 "/></g></g></g><g fill="#1b3a5b" fill-opacity="1"><g transform="translate(321.744083, 252.102391)"><g><path d="M 5.421875 0.15625 C 4.128906 0.15625 3.148438 -0.171875 2.484375 -0.828125 C 1.828125 -1.484375 1.5 -2.453125 1.5 -3.734375 L 1.5 -10.515625 L 2.734375 -10.515625 L 2.734375 -3.75 C 2.734375 -2.832031 2.953125 -2.144531 3.390625 -1.6875 C 3.835938 -1.226562 4.515625 -1 5.421875 -1 C 7.210938 -1 8.109375 -1.914062 8.109375 -3.75 L 8.109375 -10.515625 L 9.34375 -10.515625 L 9.34375 -3.734375 C 9.34375 -2.453125 9.007812 -1.484375 8.34375 -0.828125 C 7.6875 -0.171875 6.710938 0.15625 5.421875 0.15625 Z M 5.421875 0.15625 "/></g></g></g><g fill="#1b3a5b" fill-opacity="1"><g transform="translate(333.311335, 252.102391)"><g><path d="M 1.59375 0 L 1.59375 -10.515625 L 5.40625 -10.515625 C 6.113281 -10.515625 6.707031 -10.398438 7.1875 -10.171875 C 7.664062 -9.941406 8.023438 -9.613281 8.265625 -9.1875 C 8.503906 -8.757812 8.625 -8.253906 8.625 -7.671875 C 8.625 -7.023438 8.457031 -6.488281 8.125 -6.0625 C 7.800781 -5.632812 7.296875 -5.316406 6.609375 -5.109375 L 6.609375 -4.953125 C 6.953125 -4.816406 7.226562 -4.601562 7.4375 -4.3125 C 7.65625 -4.03125 7.859375 -3.601562 8.046875 -3.03125 L 9.015625 0 L 7.734375 0 L 6.6875 -3.21875 C 6.5625 -3.59375 6.414062 -3.890625 6.25 -4.109375 C 6.09375 -4.328125 5.890625 -4.484375 5.640625 -4.578125 C 5.390625 -4.671875 5.070312 -4.71875 4.6875 -4.71875 L 2.828125 -4.71875 L 2.828125 0 Z M 5.375 -5.765625 C 6.03125 -5.765625 6.519531 -5.914062 6.84375 -6.21875 C 7.164062 -6.53125 7.328125 -7 7.328125 -7.625 C 7.328125 -8.238281 7.164062 -8.695312 6.84375 -9 C 6.519531 -9.3125 6.03125 -9.46875 5.375 -9.46875 L 2.828125 -9.46875 L 2.828125 -5.765625 Z M 5.375 -5.765625 "/></g></g></g><path stroke-linecap="butt" transform="matrix(0.75, 0, 0, 0.75, 31.94537, 158.790678)" fill="none" stroke-linejoin="miter" d="M 222.729105 115.91452 L 218.869729 115.91452 C 217.848896 115.91452 216.869729 115.50827 216.145771 114.784311 C 215.421813 114.060353 215.015563 113.081186 215.015563 112.060353 L 215.015563 79.997851 C 215.015563 75.0291 210.984312 70.99785 206.015562 70.99785 L 11.499924 70.99785 C 6.531174 70.99785 2.499924 66.9666 2.499924 61.99785 L 2.499924 11.497846 C 2.499924 6.529096 6.531174 2.497846 11.499924 2.497846 L 21.145758 2.497846 " stroke="url(#9543316cd9)" stroke-width="5" stroke-miterlimit="4"/><g clip-path="url(#db460c5bac)"><g clip-path="url(#c5d2792cf8)"><path fill="url(#f17fa286a8)" d="M 186.804688 240.101562 L 186.804688 251.351562 L 198.054688 251.351562 L 198.054688 240.101562 Z M 186.804688 240.101562 " fill-rule="nonzero"/></g></g><path stroke-linecap="round" transform="matrix(0.75, 0, 0, 0.75, 31.94537, 158.790678)" fill="none" stroke-linejoin="round" d="M 206.479104 115.91452 C 206.479104 111.773895 209.838479 108.414519 213.979104 108.414519 C 218.119729 108.414519 221.479105 111.773895 221.479105 115.91452 C 221.479105 120.055145 218.119729 123.41452 213.979104 123.41452 C 209.838479 123.41452 206.479104 120.055145 206.479104 115.91452 " stroke="url(#9543316cd9)" stroke-width="5" stroke-miterlimit="4"/><g clip-path="url(#2a163338ea)"><g clip-path="url(#b6b252b56c)"><path fill="url(#f17fa286a8)" d="M 48.742188 155.039062 L 48.742188 166.289062 L 59.992188 166.289062 L 59.992188 155.039062 Z M 48.742188 155.039062 " fill-rule="nonzero"/></g></g><path stroke-linecap="round" transform="matrix(0.75, 0, 0, 0.75, 31.94537, 158.790678)" fill="none" stroke-linejoin="round" d="M 37.395759 2.497846 C 37.395759 6.643679 34.036384 9.997846 29.895759 9.997846 C 25.755133 9.997846 22.395758 6.643679 22.395758 2.497846 C 22.395758 -1.64278 25.755133 -5.002155 29.895759 -5.002155 C 34.036384 -5.002155 37.395759 -1.64278 37.395759 2.497846 " stroke="url(#9543316cd9)" stroke-width="5" stroke-miterlimit="4"/></svg>