<svg xmlns="http://www.w3.org/2000/svg" xmlns:xlink="http://www.w3.org/1999/xlink" width="500" zoomAndPan="magnify" viewBox="0 0 375 374.999991" height="500" preserveAspectRatio="xMidYMid meet" version="1.0"><defs><g/></defs><g fill="#000000" fill-opacity="1"><g transform="translate(88.585, 273.609078)"><g><path d="M 5.5 -183.515625 L 71.578125 -183.515625 L 98.359375 -103.140625 L 126.265625 -183.515625 L 192.328125 -183.515625 L 191.953125 0 L 126.265625 0 L 126.265625 -157.09375 L 71.390625 3.671875 L 69.734375 3.671875 L 12.109375 -164.4375 L 12.109375 -154.34375 C 12.109375 -140.269531 12.960938 -127.207031 14.671875 -115.15625 C 16.390625 -103.101562 18.53125 -91.9375 21.09375 -81.65625 C 23.664062 -71.382812 26.207031 -61.96875 28.71875 -53.40625 C 31.226562 -44.84375 33.335938 -37.007812 35.046875 -29.90625 C 36.765625 -22.8125 37.625 -16.390625 37.625 -10.640625 C 37.625 -7.953125 37.164062 -5.6875 36.25 -3.84375 C 35.332031 -2.007812 34.320312 -0.726562 33.21875 0 L 5.5 0 Z M 5.5 -183.515625 "/></g></g></g><g fill="#e6e3df" fill-opacity="1"><g transform="translate(262.877625, 276.519006)"><g><path d="M 22.449219 -5.203125 L 22.449219 4.195312 L -53.09375 4.195312 L -53.09375 -6.621094 C -53.09375 -9.171875 -52.285156 -11.449219 -50.664062 -13.457031 L -46.292969 -9.929688 L -50.664062 -6.40625 C -52.285156 -8.410156 -53.09375 -10.691406 -53.09375 -13.242188 L -53.09375 -24.058594 L 22.449219 -24.058594 L 22.449219 -9.042969 L -43.695312 -9.042969 L -43.695312 -14.660156 L -38.078125 -14.660156 L -38.078125 -13.242188 C -38.078125 -13.75 -38.175781 -14.25 -38.371094 -14.742188 C -38.589844 -15.296875 -38.90625 -15.78125 -39.320312 -16.195312 C -39.734375 -16.609375 -40.21875 -16.925781 -40.773438 -17.144531 C -41.265625 -17.339844 -41.765625 -17.4375 -42.273438 -17.4375 L 22.449219 -17.4375 L 22.449219 -2.421875 L -42.273438 -2.421875 C -41.765625 -2.421875 -41.265625 -2.519531 -40.773438 -2.714844 C -40.21875 -2.933594 -39.734375 -3.25 -39.320312 -3.667969 C -38.90625 -4.082031 -38.589844 -4.566406 -38.371094 -5.117188 C -38.175781 -5.609375 -38.078125 -6.113281 -38.078125 -6.621094 L -38.078125 -5.203125 L -43.695312 -5.203125 L -43.695312 -10.816406 L 22.449219 -10.816406 Z M 11.21875 -5.203125 L 16.835938 -5.203125 L 16.835938 0.414062 L -49.308594 0.414062 L -49.308594 -6.621094 C -49.308594 -7.539062 -49.144531 -8.414062 -48.816406 -9.246094 C -48.464844 -10.136719 -47.945312 -10.925781 -47.261719 -11.609375 C -46.578125 -12.289062 -45.792969 -12.808594 -44.902344 -13.160156 C -44.070312 -13.488281 -43.191406 -13.65625 -42.273438 -13.65625 L 16.835938 -13.65625 L 16.835938 -8.039062 L 11.21875 -8.039062 L 11.21875 -11.820312 L 16.835938 -11.820312 L 16.835938 -6.207031 L -42.273438 -6.207031 C -43.191406 -6.207031 -44.070312 -6.371094 -44.902344 -6.699219 C -45.792969 -7.050781 -46.578125 -7.570312 -47.261719 -8.253906 C -47.945312 -8.9375 -48.464844 -9.722656 -48.816406 -10.613281 C -49.144531 -11.445312 -49.308594 -12.324219 -49.308594 -13.242188 L -49.308594 -20.273438 L 16.835938 -20.273438 L 16.835938 -14.660156 L 11.21875 -14.660156 L 11.21875 -18.441406 L 16.835938 -18.441406 L 16.835938 -12.828125 L -47.476562 -12.828125 L -47.476562 -18.441406 L -41.859375 -18.441406 L -41.859375 -13.242188 C -41.859375 -13.273438 -41.871094 -13.320312 -41.894531 -13.378906 C -41.902344 -13.410156 -41.914062 -13.4375 -41.929688 -13.460938 L -41.921875 -13.457031 L -39.082031 -9.929688 L -41.921875 -6.40625 L -41.929688 -6.398438 C -41.914062 -6.421875 -41.902344 -6.449219 -41.894531 -6.480469 C -41.871094 -6.539062 -41.859375 -6.585938 -41.859375 -6.621094 L -41.859375 -1.417969 L -47.476562 -1.417969 L -47.476562 -7.035156 L 16.835938 -7.035156 L 16.835938 -1.417969 L 11.21875 -1.417969 Z M 11.21875 -5.203125 "/></g></g></g><g fill="#e6e3df" fill-opacity="1"><g transform="translate(262.877625, 252.119551)"><g><path d="M 22.449219 -7.566406 L 22.449219 -5.675781 C 22.449219 -4.339844 22.199219 -3.078125 21.703125 -1.886719 C 21.210938 -0.703125 20.492188 0.359375 19.550781 1.300781 C 18.613281 2.238281 17.550781 2.957031 16.367188 3.449219 C 15.175781 3.949219 13.910156 4.195312 12.578125 4.195312 L -43.222656 4.195312 C -44.5625 4.195312 -45.832031 3.949219 -47.023438 3.457031 C -48.234375 2.957031 -49.3125 2.222656 -50.253906 1.261719 C -51.179688 0.320312 -51.882812 -0.742188 -52.367188 -1.921875 C -52.851562 -3.101562 -53.09375 -4.355469 -53.09375 -5.675781 L -53.09375 -7.566406 C -53.09375 -8.894531 -52.851562 -10.152344 -52.371094 -11.335938 C -51.882812 -12.542969 -51.164062 -13.617188 -50.21875 -14.5625 C -49.273438 -15.507812 -48.195312 -16.226562 -46.988281 -16.71875 C -45.808594 -17.199219 -44.550781 -17.4375 -43.222656 -17.4375 L 12.578125 -17.4375 C 13.898438 -17.4375 15.148438 -17.195312 16.332031 -16.710938 C 17.511719 -16.226562 18.574219 -15.523438 19.515625 -14.601562 C 20.476562 -13.65625 21.207031 -12.578125 21.710938 -11.371094 C 22.203125 -10.175781 22.449219 -8.910156 22.449219 -7.566406 Z M 11.21875 -7.566406 C 11.21875 -7.421875 11.257812 -7.257812 11.332031 -7.074219 C 11.414062 -6.871094 11.519531 -6.707031 11.648438 -6.585938 C 11.753906 -6.480469 11.898438 -6.390625 12.078125 -6.316406 C 12.257812 -6.242188 12.425781 -6.207031 12.578125 -6.207031 L -43.222656 -6.207031 C -43.089844 -6.207031 -42.933594 -6.242188 -42.761719 -6.3125 C -42.566406 -6.390625 -42.402344 -6.496094 -42.277344 -6.621094 C -42.148438 -6.746094 -42.046875 -6.910156 -41.964844 -7.109375 C -41.894531 -7.28125 -41.859375 -7.433594 -41.859375 -7.566406 L -41.859375 -5.675781 C -41.859375 -5.828125 -41.898438 -5.996094 -41.972656 -6.175781 C -42.046875 -6.355469 -42.132812 -6.5 -42.238281 -6.605469 C -42.363281 -6.730469 -42.527344 -6.835938 -42.726562 -6.921875 C -42.910156 -6.996094 -43.074219 -7.035156 -43.222656 -7.035156 L 12.578125 -7.035156 C 12.410156 -7.035156 12.234375 -6.996094 12.042969 -6.914062 C 11.859375 -6.839844 11.714844 -6.746094 11.609375 -6.640625 C 11.503906 -6.539062 11.414062 -6.394531 11.339844 -6.210938 C 11.257812 -6.019531 11.21875 -5.839844 11.21875 -5.675781 Z M 7.4375 -5.675781 L 7.4375 -7.566406 C 7.4375 -7.039062 7.523438 -6.515625 7.695312 -5.996094 C 7.953125 -5.21875 8.375 -4.535156 8.960938 -3.949219 C 9.546875 -3.363281 10.230469 -2.941406 11.007812 -2.683594 C 11.527344 -2.507812 12.050781 -2.421875 12.578125 -2.421875 L -43.222656 -2.421875 C -42.691406 -2.421875 -42.167969 -2.507812 -41.652344 -2.683594 C -40.871094 -2.941406 -40.191406 -3.363281 -39.605469 -3.949219 C -39.019531 -4.535156 -38.597656 -5.21875 -38.335938 -5.996094 C -38.164062 -6.515625 -38.078125 -7.039062 -38.078125 -7.566406 L -38.078125 -5.675781 C -38.078125 -6.203125 -38.164062 -6.726562 -38.335938 -7.242188 C -38.597656 -8.023438 -39.019531 -8.707031 -39.605469 -9.289062 C -40.191406 -9.875 -40.871094 -10.296875 -41.652344 -10.558594 C -42.167969 -10.730469 -42.691406 -10.816406 -43.222656 -10.816406 L 12.578125 -10.816406 C 12.050781 -10.816406 11.527344 -10.730469 11.007812 -10.558594 C 10.230469 -10.296875 9.546875 -9.875 8.960938 -9.289062 C 8.375 -8.707031 7.953125 -8.023438 7.695312 -7.242188 C 7.523438 -6.726562 7.4375 -6.203125 7.4375 -5.675781 Z M 18.667969 -5.675781 C 18.667969 -4.988281 18.5625 -4.328125 18.347656 -3.691406 C 18.050781 -2.792969 17.566406 -2.011719 16.902344 -1.347656 C 16.238281 -0.683594 15.457031 -0.203125 14.5625 0.0976562 C 13.925781 0.308594 13.265625 0.414062 12.578125 0.414062 L -43.222656 0.414062 C -43.90625 0.414062 -44.566406 0.308594 -45.203125 0.0976562 C -46.101562 -0.203125 -46.882812 -0.683594 -47.546875 -1.347656 C -48.210938 -2.011719 -48.691406 -2.792969 -48.992188 -3.691406 C -49.203125 -4.328125 -49.308594 -4.988281 -49.308594 -5.675781 L -49.308594 -7.566406 C -49.308594 -8.253906 -49.203125 -8.914062 -48.992188 -9.546875 C -48.691406 -10.445312 -48.210938 -11.226562 -47.546875 -11.890625 C -46.882812 -12.554688 -46.101562 -13.039062 -45.203125 -13.335938 C -44.566406 -13.546875 -43.90625 -13.65625 -43.222656 -13.65625 L 12.578125 -13.65625 C 13.265625 -13.65625 13.925781 -13.546875 14.5625 -13.335938 C 15.457031 -13.039062 16.238281 -12.554688 16.902344 -11.890625 C 17.566406 -11.226562 18.050781 -10.445312 18.347656 -9.546875 C 18.5625 -8.914062 18.667969 -8.253906 18.667969 -7.566406 Z M 18.667969 -5.675781 "/></g></g></g><g fill="#e6e3df" fill-opacity="1"><g transform="translate(262.877625, 234.340035)"><g><path d="M 22.449219 -5.203125 L 22.449219 4.195312 L -53.09375 4.195312 L -53.09375 -6.621094 C -53.09375 -9.171875 -52.285156 -11.449219 -50.664062 -13.457031 L -46.292969 -9.929688 L -50.664062 -6.40625 C -52.285156 -8.410156 -53.09375 -10.691406 -53.09375 -13.242188 L -53.09375 -24.058594 L 22.449219 -24.058594 L 22.449219 -9.042969 L -43.695312 -9.042969 L -43.695312 -14.660156 L -38.078125 -14.660156 L -38.078125 -13.242188 C -38.078125 -13.75 -38.175781 -14.25 -38.371094 -14.742188 C -38.589844 -15.296875 -38.90625 -15.78125 -39.320312 -16.195312 C -39.734375 -16.609375 -40.21875 -16.925781 -40.773438 -17.144531 C -41.265625 -17.339844 -41.765625 -17.4375 -42.273438 -17.4375 L 22.449219 -17.4375 L 22.449219 -2.421875 L -42.273438 -2.421875 C -41.765625 -2.421875 -41.265625 -2.519531 -40.773438 -2.714844 C -40.21875 -2.933594 -39.734375 -3.25 -39.320312 -3.667969 C -38.90625 -4.082031 -38.589844 -4.566406 -38.371094 -5.117188 C -38.175781 -5.609375 -38.078125 -6.113281 -38.078125 -6.621094 L -38.078125 -5.203125 L -43.695312 -5.203125 L -43.695312 -10.816406 L 22.449219 -10.816406 Z M 11.21875 -5.203125 L 16.835938 -5.203125 L 16.835938 0.414062 L -49.308594 0.414062 L -49.308594 -6.621094 C -49.308594 -7.539062 -49.144531 -8.414062 -48.816406 -9.246094 C -48.464844 -10.136719 -47.945312 -10.925781 -47.261719 -11.609375 C -46.578125 -12.289062 -45.792969 -12.808594 -44.902344 -13.160156 C -44.070312 -13.488281 -43.191406 -13.65625 -42.273438 -13.65625 L 16.835938 -13.65625 L 16.835938 -8.039062 L 11.21875 -8.039062 L 11.21875 -11.820312 L 16.835938 -11.820312 L 16.835938 -6.207031 L -42.273438 -6.207031 C -43.191406 -6.207031 -44.070312 -6.371094 -44.902344 -6.699219 C -45.792969 -7.050781 -46.578125 -7.570312 -47.261719 -8.253906 C -47.945312 -8.9375 -48.464844 -9.722656 -48.816406 -10.613281 C -49.144531 -11.445312 -49.308594 -12.324219 -49.308594 -13.242188 L -49.308594 -20.273438 L 16.835938 -20.273438 L 16.835938 -14.660156 L 11.21875 -14.660156 L 11.21875 -18.441406 L 16.835938 -18.441406 L 16.835938 -12.828125 L -47.476562 -12.828125 L -47.476562 -18.441406 L -41.859375 -18.441406 L -41.859375 -13.242188 C -41.859375 -13.273438 -41.871094 -13.320312 -41.894531 -13.378906 C -41.902344 -13.410156 -41.914062 -13.4375 -41.929688 -13.460938 L -41.921875 -13.457031 L -39.082031 -9.929688 L -41.921875 -6.40625 L -41.929688 -6.398438 C -41.914062 -6.421875 -41.902344 -6.449219 -41.894531 -6.480469 C -41.871094 -6.539062 -41.859375 -6.585938 -41.859375 -6.621094 L -41.859375 -1.417969 L -47.476562 -1.417969 L -47.476562 -7.035156 L 16.835938 -7.035156 L 16.835938 -1.417969 L 11.21875 -1.417969 Z M 11.21875 -5.203125 "/></g></g></g><g fill="#e6e3df" fill-opacity="1"><g transform="translate(262.877625, 209.94058)"><g><path d="M 22.449219 -7.566406 L 22.449219 -5.675781 C 22.449219 -4.339844 22.199219 -3.078125 21.703125 -1.886719 C 21.210938 -0.703125 20.492188 0.359375 19.550781 1.300781 C 18.613281 2.238281 17.550781 2.957031 16.367188 3.449219 C 15.175781 3.949219 13.910156 4.195312 12.578125 4.195312 L -43.222656 4.195312 C -44.5625 4.195312 -45.832031 3.949219 -47.023438 3.457031 C -48.234375 2.957031 -49.3125 2.222656 -50.253906 1.261719 C -51.179688 0.320312 -51.882812 -0.742188 -52.367188 -1.921875 C -52.851562 -3.101562 -53.09375 -4.355469 -53.09375 -5.675781 L -53.09375 -7.566406 C -53.09375 -8.894531 -52.851562 -10.152344 -52.371094 -11.335938 C -51.882812 -12.542969 -51.164062 -13.617188 -50.21875 -14.5625 C -49.273438 -15.507812 -48.195312 -16.226562 -46.988281 -16.71875 C -45.808594 -17.199219 -44.550781 -17.4375 -43.222656 -17.4375 L 12.578125 -17.4375 C 13.898438 -17.4375 15.148438 -17.195312 16.332031 -16.710938 C 17.511719 -16.226562 18.574219 -15.523438 19.515625 -14.601562 C 20.476562 -13.65625 21.207031 -12.578125 21.710938 -11.371094 C 22.203125 -10.175781 22.449219 -8.910156 22.449219 -7.566406 Z M 11.21875 -7.566406 C 11.21875 -7.421875 11.257812 -7.257812 11.332031 -7.074219 C 11.414062 -6.871094 11.519531 -6.707031 11.648438 -6.585938 C 11.753906 -6.480469 11.898438 -6.390625 12.078125 -6.316406 C 12.257812 -6.242188 12.425781 -6.207031 12.578125 -6.207031 L -43.222656 -6.207031 C -43.089844 -6.207031 -42.933594 -6.242188 -42.761719 -6.3125 C -42.566406 -6.390625 -42.402344 -6.496094 -42.277344 -6.621094 C -42.148438 -6.746094 -42.046875 -6.910156 -41.964844 -7.109375 C -41.894531 -7.28125 -41.859375 -7.433594 -41.859375 -7.566406 L -41.859375 -5.675781 C -41.859375 -5.828125 -41.898438 -5.996094 -41.972656 -6.175781 C -42.046875 -6.355469 -42.132812 -6.5 -42.238281 -6.605469 C -42.363281 -6.730469 -42.527344 -6.835938 -42.726562 -6.921875 C -42.910156 -6.996094 -43.074219 -7.035156 -43.222656 -7.035156 L 12.578125 -7.035156 C 12.410156 -7.035156 12.234375 -6.996094 12.042969 -6.914062 C 11.859375 -6.839844 11.714844 -6.746094 11.609375 -6.640625 C 11.503906 -6.539062 11.414062 -6.394531 11.339844 -6.210938 C 11.257812 -6.019531 11.21875 -5.839844 11.21875 -5.675781 Z M 7.4375 -5.675781 L 7.4375 -7.566406 C 7.4375 -7.039062 7.523438 -6.515625 7.695312 -5.996094 C 7.953125 -5.21875 8.375 -4.535156 8.960938 -3.949219 C 9.546875 -3.363281 10.230469 -2.941406 11.007812 -2.683594 C 11.527344 -2.507812 12.050781 -2.421875 12.578125 -2.421875 L -43.222656 -2.421875 C -42.691406 -2.421875 -42.167969 -2.507812 -41.652344 -2.683594 C -40.871094 -2.941406 -40.191406 -3.363281 -39.605469 -3.949219 C -39.019531 -4.535156 -38.597656 -5.21875 -38.335938 -5.996094 C -38.164062 -6.515625 -38.078125 -7.039062 -38.078125 -7.566406 L -38.078125 -5.675781 C -38.078125 -6.203125 -38.164062 -6.726562 -38.335938 -7.242188 C -38.597656 -8.023438 -39.019531 -8.707031 -39.605469 -9.289062 C -40.191406 -9.875 -40.871094 -10.296875 -41.652344 -10.558594 C -42.167969 -10.730469 -42.691406 -10.816406 -43.222656 -10.816406 L 12.578125 -10.816406 C 12.050781 -10.816406 11.527344 -10.730469 11.007812 -10.558594 C 10.230469 -10.296875 9.546875 -9.875 8.960938 -9.289062 C 8.375 -8.707031 7.953125 -8.023438 7.695312 -7.242188 C 7.523438 -6.726562 7.4375 -6.203125 7.4375 -5.675781 Z M 18.667969 -5.675781 C 18.667969 -4.988281 18.5625 -4.328125 18.347656 -3.691406 C 18.050781 -2.792969 17.566406 -2.011719 16.902344 -1.347656 C 16.238281 -0.683594 15.457031 -0.203125 14.5625 0.0976562 C 13.925781 0.308594 13.265625 0.414062 12.578125 0.414062 L -43.222656 0.414062 C -43.90625 0.414062 -44.566406 0.308594 -45.203125 0.0976562 C -46.101562 -0.203125 -46.882812 -0.683594 -47.546875 -1.347656 C -48.210938 -2.011719 -48.691406 -2.792969 -48.992188 -3.691406 C -49.203125 -4.328125 -49.308594 -4.988281 -49.308594 -5.675781 L -49.308594 -7.566406 C -49.308594 -8.253906 -49.203125 -8.914062 -48.992188 -9.546875 C -48.691406 -10.445312 -48.210938 -11.226562 -47.546875 -11.890625 C -46.882812 -12.554688 -46.101562 -13.039062 -45.203125 -13.335938 C -44.566406 -13.546875 -43.90625 -13.65625 -43.222656 -13.65625 L 12.578125 -13.65625 C 13.265625 -13.65625 13.925781 -13.546875 14.5625 -13.335938 C 15.457031 -13.039062 16.238281 -12.554688 16.902344 -11.890625 C 17.566406 -11.226562 18.050781 -10.445312 18.347656 -9.546875 C 18.5625 -8.914062 18.667969 -8.253906 18.667969 -7.566406 Z M 18.667969 -5.675781 "/></g></g></g><g fill="#e6e3df" fill-opacity="1"><g transform="translate(262.877625, 192.161063)"><g><path d="M 22.449219 -5.203125 L 22.449219 4.195312 L -53.09375 4.195312 L -53.09375 -10.816406 L -28.277344 -10.816406 L -28.277344 -5.203125 L -32.804688 -1.878906 C -33.09375 -2.269531 -33.382812 -2.648438 -33.679688 -3.007812 C -33.691406 -3.019531 -33.699219 -3.027344 -33.710938 -3.035156 L -33.804688 -3.097656 L -33.898438 -3.167969 C -33.742188 -3.054688 -33.601562 -2.976562 -33.464844 -2.9375 C -33.402344 -2.914062 -33.34375 -2.902344 -33.296875 -2.894531 L -33.289062 -2.894531 C -33.304688 -2.894531 -33.320312 -2.894531 -33.335938 -2.894531 L -53.09375 -2.894531 L -53.09375 -17.910156 L -34.472656 -17.910156 C -33.453125 -17.910156 -32.550781 -17.882812 -31.769531 -17.824219 C -30.511719 -17.730469 -29.296875 -17.441406 -28.132812 -16.949219 C -26.703125 -16.355469 -25.257812 -15.324219 -23.785156 -13.855469 L -27.757812 -9.882812 L -32.429688 -12.996094 C -31.417969 -14.515625 -30.125 -15.707031 -28.550781 -16.574219 C -26.9375 -17.464844 -25.207031 -17.910156 -23.359375 -17.910156 L 22.449219 -17.910156 L 22.449219 -2.894531 L -23.359375 -2.894531 C -22.851562 -2.894531 -22.351562 -2.992188 -21.855469 -3.1875 C -21.304688 -3.40625 -20.820312 -3.722656 -20.40625 -4.140625 C -19.992188 -4.554688 -19.675781 -5.039062 -19.457031 -5.589844 C -19.261719 -6.082031 -19.164062 -6.585938 -19.164062 -7.09375 L -19.164062 -5.203125 L -24.777344 -5.203125 L -24.777344 -10.816406 L 22.449219 -10.816406 Z M 11.21875 -5.203125 L 16.835938 -5.203125 L 16.835938 0.414062 L -30.394531 0.414062 L -30.394531 -7.09375 C -30.394531 -8.011719 -30.230469 -8.886719 -29.898438 -9.71875 C -29.546875 -10.609375 -29.03125 -11.398438 -28.347656 -12.082031 C -27.664062 -12.761719 -26.878906 -13.28125 -25.984375 -13.632812 C -25.152344 -13.960938 -24.277344 -14.128906 -23.359375 -14.128906 L 16.835938 -14.128906 L 16.835938 -8.511719 L 11.21875 -8.511719 L 11.21875 -12.292969 L 16.835938 -12.292969 L 16.835938 -6.679688 L -23.359375 -6.679688 C -23.28125 -6.679688 -23.203125 -6.699219 -23.132812 -6.738281 C -23.117188 -6.746094 -23.101562 -6.757812 -23.085938 -6.773438 L -23.085938 -6.769531 L -26.886719 -1.070312 L -31.730469 -5.914062 C -32.003906 -6.1875 -32.246094 -6.402344 -32.449219 -6.554688 C -32.5 -6.59375 -32.542969 -6.621094 -32.574219 -6.640625 C -32.554688 -6.625 -32.523438 -6.613281 -32.492188 -6.597656 C -32.523438 -6.613281 -32.554688 -6.621094 -32.589844 -6.625 C -33.097656 -6.660156 -33.726562 -6.679688 -34.472656 -6.679688 L -47.476562 -6.679688 L -47.476562 -12.292969 L -41.859375 -12.292969 L -41.859375 -8.511719 L -47.476562 -8.511719 L -47.476562 -14.128906 L -33.335938 -14.128906 C -32.203125 -14.128906 -31.136719 -13.972656 -30.136719 -13.664062 C -29.085938 -13.335938 -28.140625 -12.867188 -27.292969 -12.25 L -30.59375 -7.707031 L -27.480469 -12.378906 C -26.542969 -11.757812 -25.71875 -11.007812 -25.003906 -10.136719 C -24.574219 -9.617188 -24.15625 -9.078125 -23.75 -8.523438 L -17.195312 0.414062 L -47.476562 0.414062 L -47.476562 -5.203125 L -41.859375 -5.203125 L -41.859375 -1.417969 L -47.476562 -1.417969 L -47.476562 -7.035156 L 16.835938 -7.035156 L 16.835938 -1.417969 L 11.21875 -1.417969 Z M 11.21875 -5.203125 "/></g></g></g><g fill="#e6e3df" fill-opacity="1"><g transform="translate(262.877625, 173.908688)"><g><path d="M 22.449219 -5.203125 L 22.449219 4.195312 L -43.222656 4.195312 C -44.5625 4.195312 -45.832031 3.949219 -47.023438 3.457031 C -48.234375 2.957031 -49.3125 2.222656 -50.253906 1.261719 C -51.179688 0.320312 -51.882812 -0.742188 -52.367188 -1.921875 C -52.851562 -3.101562 -53.09375 -4.355469 -53.09375 -5.675781 L -53.09375 -7.566406 C -53.09375 -8.894531 -52.851562 -10.152344 -52.371094 -11.335938 C -51.882812 -12.542969 -51.164062 -13.617188 -50.21875 -14.5625 C -49.273438 -15.507812 -48.195312 -16.226562 -46.988281 -16.71875 C -45.808594 -17.199219 -44.550781 -17.4375 -43.222656 -17.4375 L 22.449219 -17.4375 L 22.449219 -2.421875 L -24.777344 -2.421875 L -24.777344 -8.039062 L -19.164062 -8.039062 L -19.164062 -5.203125 L -24.777344 -5.203125 L -24.777344 -10.816406 L 22.449219 -10.816406 Z M 11.21875 -5.203125 L 16.835938 -5.203125 L 16.835938 0.414062 L -30.394531 0.414062 L -30.394531 -13.65625 L 16.835938 -13.65625 L 16.835938 -8.039062 L 11.21875 -8.039062 L 11.21875 -11.820312 L 16.835938 -11.820312 L 16.835938 -6.207031 L -43.222656 -6.207031 C -43.089844 -6.207031 -42.933594 -6.242188 -42.761719 -6.3125 C -42.566406 -6.390625 -42.402344 -6.496094 -42.277344 -6.621094 C -42.148438 -6.746094 -42.046875 -6.910156 -41.964844 -7.109375 C -41.894531 -7.28125 -41.859375 -7.433594 -41.859375 -7.566406 L -41.859375 -5.675781 C -41.859375 -5.828125 -41.898438 -5.996094 -41.972656 -6.175781 C -42.046875 -6.355469 -42.132812 -6.5 -42.238281 -6.605469 C -42.363281 -6.730469 -42.527344 -6.835938 -42.726562 -6.921875 C -42.910156 -6.996094 -43.074219 -7.035156 -43.222656 -7.035156 L 16.835938 -7.035156 L 16.835938 -1.417969 L 11.21875 -1.417969 Z M -43.222656 -10.816406 L -28.5625 -10.816406 L -28.5625 -5.203125 L -34.175781 -5.203125 L -34.175781 -8.039062 L -28.5625 -8.039062 L -28.5625 -2.421875 L -43.222656 -2.421875 C -42.691406 -2.421875 -42.167969 -2.507812 -41.652344 -2.683594 C -40.871094 -2.941406 -40.191406 -3.363281 -39.605469 -3.949219 C -39.019531 -4.535156 -38.597656 -5.21875 -38.335938 -5.996094 C -38.164062 -6.515625 -38.078125 -7.039062 -38.078125 -7.566406 L -38.078125 -5.675781 C -38.078125 -6.203125 -38.164062 -6.726562 -38.335938 -7.242188 C -38.597656 -8.023438 -39.019531 -8.707031 -39.605469 -9.289062 C -40.191406 -9.875 -40.871094 -10.296875 -41.652344 -10.558594 C -42.167969 -10.730469 -42.691406 -10.816406 -43.222656 -10.816406 Z M -43.222656 0.414062 C -43.90625 0.414062 -44.566406 0.308594 -45.203125 0.0976562 C -46.101562 -0.203125 -46.882812 -0.683594 -47.546875 -1.347656 C -48.210938 -2.011719 -48.691406 -2.792969 -48.992188 -3.691406 C -49.203125 -4.328125 -49.308594 -4.988281 -49.308594 -5.675781 L -49.308594 -7.566406 C -49.308594 -8.253906 -49.203125 -8.914062 -48.992188 -9.546875 C -48.691406 -10.445312 -48.210938 -11.226562 -47.546875 -11.890625 C -46.882812 -12.554688 -46.101562 -13.039062 -45.203125 -13.335938 C -44.566406 -13.546875 -43.90625 -13.65625 -43.222656 -13.65625 L -22.945312 -13.65625 L -22.945312 0.414062 Z M -43.222656 0.414062 "/></g></g></g><g fill="#000000" fill-opacity="1"><g transform="translate(262.877625, 276.519006)"><g><path d="M 16.828125 -5.203125 L 16.828125 -1.421875 L -47.46875 -1.421875 L -47.46875 -6.625 C -47.46875 -7.851562 -47.070312 -8.953125 -46.28125 -9.921875 C -47.070312 -10.898438 -47.46875 -12.003906 -47.46875 -13.234375 L -47.46875 -18.4375 L 16.828125 -18.4375 L 16.828125 -14.65625 L -43.6875 -14.65625 L -43.6875 -13.234375 C -43.6875 -12.828125 -43.550781 -12.488281 -43.28125 -12.21875 C -43.019531 -11.957031 -42.679688 -11.828125 -42.265625 -11.828125 L 16.828125 -11.828125 L 16.828125 -8.03125 L -42.265625 -8.03125 C -42.679688 -8.03125 -43.019531 -7.894531 -43.28125 -7.625 C -43.550781 -7.363281 -43.6875 -7.03125 -43.6875 -6.625 L -43.6875 -5.203125 Z M 16.828125 -5.203125 "/></g></g></g><g fill="#000000" fill-opacity="1"><g transform="translate(262.877625, 252.119551)"><g><path d="M 16.828125 -7.5625 L 16.828125 -5.671875 C 16.828125 -4.503906 16.410156 -3.503906 15.578125 -2.671875 C 14.742188 -1.835938 13.742188 -1.421875 12.578125 -1.421875 L -43.21875 -1.421875 C -44.414062 -1.421875 -45.421875 -1.835938 -46.234375 -2.671875 C -47.054688 -3.503906 -47.46875 -4.503906 -47.46875 -5.671875 L -47.46875 -7.5625 C -47.46875 -8.757812 -47.054688 -9.769531 -46.234375 -10.59375 C -45.421875 -11.414062 -44.414062 -11.828125 -43.21875 -11.828125 L 12.578125 -11.828125 C 13.742188 -11.828125 14.742188 -11.414062 15.578125 -10.59375 C 16.410156 -9.769531 16.828125 -8.757812 16.828125 -7.5625 Z M 13.046875 -5.671875 L 13.046875 -7.5625 C 13.046875 -7.875 12.890625 -8.03125 12.578125 -8.03125 L -43.21875 -8.03125 C -43.53125 -8.03125 -43.6875 -7.875 -43.6875 -7.5625 L -43.6875 -5.671875 C -43.6875 -5.359375 -43.53125 -5.203125 -43.21875 -5.203125 L 12.578125 -5.203125 C 12.890625 -5.203125 13.046875 -5.359375 13.046875 -5.671875 Z M 13.046875 -5.671875 "/></g></g></g><g fill="#000000" fill-opacity="1"><g transform="translate(262.877625, 234.340035)"><g><path d="M 16.828125 -5.203125 L 16.828125 -1.421875 L -47.46875 -1.421875 L -47.46875 -6.625 C -47.46875 -7.851562 -47.070312 -8.953125 -46.28125 -9.921875 C -47.070312 -10.898438 -47.46875 -12.003906 -47.46875 -13.234375 L -47.46875 -18.4375 L 16.828125 -18.4375 L 16.828125 -14.65625 L -43.6875 -14.65625 L -43.6875 -13.234375 C -43.6875 -12.828125 -43.550781 -12.488281 -43.28125 -12.21875 C -43.019531 -11.957031 -42.679688 -11.828125 -42.265625 -11.828125 L 16.828125 -11.828125 L 16.828125 -8.03125 L -42.265625 -8.03125 C -42.679688 -8.03125 -43.019531 -7.894531 -43.28125 -7.625 C -43.550781 -7.363281 -43.6875 -7.03125 -43.6875 -6.625 L -43.6875 -5.203125 Z M 16.828125 -5.203125 "/></g></g></g><g fill="#000000" fill-opacity="1"><g transform="translate(262.877625, 209.94058)"><g><path d="M 16.828125 -7.5625 L 16.828125 -5.671875 C 16.828125 -4.503906 16.410156 -3.503906 15.578125 -2.671875 C 14.742188 -1.835938 13.742188 -1.421875 12.578125 -1.421875 L -43.21875 -1.421875 C -44.414062 -1.421875 -45.421875 -1.835938 -46.234375 -2.671875 C -47.054688 -3.503906 -47.46875 -4.503906 -47.46875 -5.671875 L -47.46875 -7.5625 C -47.46875 -8.757812 -47.054688 -9.769531 -46.234375 -10.59375 C -45.421875 -11.414062 -44.414062 -11.828125 -43.21875 -11.828125 L 12.578125 -11.828125 C 13.742188 -11.828125 14.742188 -11.414062 15.578125 -10.59375 C 16.410156 -9.769531 16.828125 -8.757812 16.828125 -7.5625 Z M 13.046875 -5.671875 L 13.046875 -7.5625 C 13.046875 -7.875 12.890625 -8.03125 12.578125 -8.03125 L -43.21875 -8.03125 C -43.53125 -8.03125 -43.6875 -7.875 -43.6875 -7.5625 L -43.6875 -5.671875 C -43.6875 -5.359375 -43.53125 -5.203125 -43.21875 -5.203125 L 12.578125 -5.203125 C 12.890625 -5.203125 13.046875 -5.359375 13.046875 -5.671875 Z M 13.046875 -5.671875 "/></g></g></g><g fill="#000000" fill-opacity="1"><g transform="translate(262.877625, 192.161063)"><g><path d="M 16.828125 -5.203125 L 16.828125 -1.421875 L -47.46875 -1.421875 L -47.46875 -5.203125 L -28.28125 -5.203125 C -28.625 -5.671875 -28.972656 -6.125 -29.328125 -6.5625 C -29.691406 -7.007812 -30.113281 -7.390625 -30.59375 -7.703125 C -30.9375 -7.953125 -31.335938 -8.148438 -31.796875 -8.296875 C -32.253906 -8.441406 -32.765625 -8.515625 -33.328125 -8.515625 L -47.46875 -8.515625 L -47.46875 -12.296875 L -34.46875 -12.296875 C -33.582031 -12.296875 -32.816406 -12.269531 -32.171875 -12.21875 C -31.523438 -12.175781 -30.90625 -12.023438 -30.3125 -11.765625 C -29.550781 -11.453125 -28.695312 -10.820312 -27.75 -9.875 C -27.25 -10.632812 -26.613281 -11.226562 -25.84375 -11.65625 C -25.070312 -12.082031 -24.242188 -12.296875 -23.359375 -12.296875 L 16.828125 -12.296875 L 16.828125 -8.515625 L -23.359375 -8.515625 C -23.765625 -8.515625 -24.101562 -8.378906 -24.375 -8.109375 C -24.644531 -7.835938 -24.78125 -7.5 -24.78125 -7.09375 L -24.78125 -5.203125 Z M 16.828125 -5.203125 "/></g></g></g><g fill="#000000" fill-opacity="1"><g transform="translate(262.877625, 173.908688)"><g><path d="M 16.828125 -5.203125 L 16.828125 -1.421875 L -43.21875 -1.421875 C -44.414062 -1.421875 -45.421875 -1.835938 -46.234375 -2.671875 C -47.054688 -3.503906 -47.46875 -4.503906 -47.46875 -5.671875 L -47.46875 -7.5625 C -47.46875 -8.757812 -47.054688 -9.769531 -46.234375 -10.59375 C -45.421875 -11.414062 -44.414062 -11.828125 -43.21875 -11.828125 L 16.828125 -11.828125 L 16.828125 -8.03125 L -24.78125 -8.03125 L -24.78125 -5.203125 Z M -43.21875 -5.203125 L -28.5625 -5.203125 L -28.5625 -8.03125 L -43.21875 -8.03125 C -43.53125 -8.03125 -43.6875 -7.875 -43.6875 -7.5625 L -43.6875 -5.671875 C -43.6875 -5.359375 -43.53125 -5.203125 -43.21875 -5.203125 Z M -43.21875 -5.203125 "/></g></g></g></svg>