<svg xmlns="http://www.w3.org/2000/svg" xmlns:xlink="http://www.w3.org/1999/xlink" width="500" zoomAndPan="magnify" viewBox="0 0 375 374.999991" height="500" preserveAspectRatio="xMidYMid meet" version="1.0"><defs><g/><clipPath id="e3e8eec57b"><path d="M 124.125 162 L 206 162 L 206 213 L 124.125 213 Z M 124.125 162 " clip-rule="nonzero"/></clipPath><clipPath id="4d4cc49ce6"><path d="M 175 179 L 237 179 L 237 221.320312 L 175 221.320312 Z M 175 179 " clip-rule="nonzero"/></clipPath></defs><path fill="#201bde" d="M 190.652344 128.484375 C 189.410156 128.484375 188.140625 128.316406 186.90625 127.96875 C 184.53125 127.308594 182.710938 126.09375 181.910156 124.636719 C 180.617188 122.273438 180.839844 118.4375 181.089844 116.363281 C 181.136719 115.945312 180.976562 115.53125 180.644531 115.226562 C 179.824219 114.472656 179.886719 113.734375 179.996094 113.359375 C 180.074219 113.09375 180.3125 112.277344 182.378906 111.269531 C 182.585938 111.167969 182.769531 111.003906 182.902344 110.796875 C 184.148438 108.867188 188.863281 102.765625 197.25 105.253906 C 200.488281 106.210938 202.421875 108.59375 202.84375 112.140625 C 203.515625 117.804688 199.984375 125.035156 196.621094 126.980469 C 194.902344 127.972656 192.816406 128.484375 190.652344 128.484375 Z M 193.445312 106.183594 C 188.152344 106.183594 185.089844 110.1875 184.171875 111.613281 C 183.886719 112.054688 183.496094 112.40625 183.039062 112.628906 C 181.835938 113.214844 181.480469 113.660156 181.441406 113.785156 C 181.429688 113.832031 181.5 113.964844 181.667969 114.117188 C 182.347656 114.746094 182.691406 115.652344 182.585938 116.542969 C 182.402344 118.070312 182.101562 121.84375 183.234375 123.910156 C 183.832031 124.996094 185.355469 125.972656 187.3125 126.519531 C 190.308594 127.355469 193.507812 127.039062 195.863281 125.675781 C 198.777344 123.988281 201.945312 117.363281 201.34375 112.320312 C 200.996094 109.375 199.472656 107.484375 196.820312 106.699219 C 195.609375 106.339844 194.484375 106.183594 193.445312 106.183594 Z M 182.710938 111.949219 L 182.714844 111.949219 Z M 182.710938 111.949219 " fill-opacity="1" fill-rule="nonzero"/><path fill="#201bde" d="M 186.230469 121.535156 C 185.863281 121.535156 185.511719 121.480469 185.171875 121.371094 C 183.671875 120.878906 183.035156 119.464844 183.007812 119.402344 C 182.839844 119.023438 183.015625 118.578125 183.394531 118.410156 C 183.777344 118.242188 184.21875 118.414062 184.386719 118.792969 C 184.398438 118.820312 184.804688 119.667969 185.65625 119.941406 C 186.292969 120.144531 187.058594 119.988281 187.9375 119.476562 C 188.296875 119.269531 188.761719 119.394531 188.96875 119.753906 C 189.175781 120.113281 189.054688 120.574219 188.691406 120.785156 C 187.828125 121.285156 187.003906 121.535156 186.230469 121.535156 Z M 186.230469 121.535156 " fill-opacity="1" fill-rule="nonzero"/><path fill="#201bde" d="M 188.042969 111.542969 C 188.246094 111.621094 188.425781 111.734375 188.585938 111.886719 C 188.742188 112.039062 188.863281 112.21875 188.949219 112.425781 C 189.035156 112.632812 189.078125 112.847656 189.082031 113.078125 C 189.085938 113.308594 189.046875 113.53125 188.96875 113.746094 C 188.886719 113.960938 188.769531 114.15625 188.617188 114.328125 C 188.464844 114.5 188.289062 114.632812 188.089844 114.734375 C 187.890625 114.832031 187.679688 114.890625 187.460938 114.902344 C 187.242188 114.914062 187.03125 114.882812 186.828125 114.808594 C 186.625 114.734375 186.445312 114.617188 186.289062 114.464844 C 186.132812 114.3125 186.011719 114.132812 185.925781 113.929688 C 185.839844 113.722656 185.792969 113.503906 185.792969 113.273438 C 185.789062 113.046875 185.828125 112.824219 185.90625 112.605469 C 185.988281 112.390625 186.105469 112.195312 186.257812 112.027344 C 186.410156 111.855469 186.585938 111.71875 186.785156 111.621094 C 186.984375 111.519531 187.195312 111.464844 187.414062 111.449219 C 187.632812 111.4375 187.84375 111.46875 188.042969 111.542969 Z M 188.042969 111.542969 " fill-opacity="1" fill-rule="nonzero"/><path fill="#201bde" d="M 190.457031 109.039062 C 188.679688 107.4375 189.433594 104.5 191.753906 103.929688 C 193.101562 103.597656 194.847656 103.542969 197.082031 104.058594 C 204.761719 105.820312 205.25 118.160156 201.855469 123.074219 C 198.460938 127.988281 195.75 129.167969 194.082031 126.511719 C 193.152344 125.035156 193.027344 123.949219 193.097656 123.269531 C 193.144531 122.816406 193.480469 122.441406 193.921875 122.324219 C 195.148438 122 197.855469 120.953125 197.570312 118.128906 C 197.316406 115.570312 194.980469 116.796875 193.617188 117.753906 C 193.285156 117.988281 192.839844 117.699219 192.910156 117.304688 C 193.230469 115.574219 193.507812 112.390625 191.808594 110.425781 C 191.332031 109.878906 190.878906 109.417969 190.457031 109.039062 Z M 190.457031 109.039062 " fill-opacity="1" fill-rule="nonzero"/><path fill="#201bde" d="M 200.601562 109.527344 C 200.601562 109.527344 209.601562 103.402344 214.617188 112.257812 C 219.636719 121.113281 228.769531 119.078125 229.773438 114.671875 C 230.777344 110.265625 240.574219 103.507812 245.710938 108.660156 C 250.847656 113.808594 247.082031 126.867188 235.648438 132.621094 C 224.210938 138.378906 213.617188 131.367188 211.941406 124.875 C 210.265625 118.382812 211.183594 113.082031 207.257812 111.96875 C 203.332031 110.855469 200.601562 112.183594 200.601562 112.183594 Z M 200.601562 109.527344 " fill-opacity="1" fill-rule="nonzero"/><path fill="#201bde" d="M 192.035156 134.203125 C 191.785156 134.203125 191.527344 134.171875 191.269531 134.105469 C 188.675781 133.464844 188.695312 129.703125 189.113281 127.582031 C 189.195312 127.171875 189.589844 126.910156 189.996094 126.988281 C 190.40625 127.066406 190.671875 127.464844 190.59375 127.871094 C 190.375 128.988281 190.097656 132.261719 191.628906 132.640625 C 192.199219 132.78125 192.683594 132.640625 193.109375 132.203125 C 194.054688 131.238281 194.382812 129.210938 193.886719 127.390625 C 193.777344 126.988281 194.015625 126.574219 194.414062 126.464844 C 194.816406 126.355469 195.230469 126.59375 195.339844 126.996094 C 195.976562 129.335938 195.503906 131.914062 194.1875 133.257812 C 193.582031 133.878906 192.839844 134.203125 192.035156 134.203125 Z M 192.035156 134.203125 " fill-opacity="1" fill-rule="nonzero"/><path fill="#201bde" d="M 205.40625 182.421875 C 205.160156 182.421875 204.914062 182.371094 204.679688 182.273438 C 203.675781 181.863281 203.332031 180.601562 203.652344 178.511719 C 203.160156 178.769531 202.644531 178.890625 202.148438 178.839844 C 201.394531 178.761719 200.820312 178.28125 200.613281 177.554688 C 200.363281 176.679688 200.824219 175.289062 201.777344 173.265625 C 201.25 173.28125 200.78125 173.117188 200.402344 172.855469 C 199.433594 172.179688 198.878906 170.636719 199.953125 168.84375 C 200.171875 168.480469 200.488281 167.988281 200.851562 167.417969 C 203.152344 163.828125 208.542969 155.421875 207.621094 149.902344 C 206.589844 143.734375 198.550781 140.351562 198.46875 140.316406 C 198.082031 140.160156 197.898438 139.71875 198.058594 139.332031 C 198.21875 138.949219 198.65625 138.761719 199.042969 138.921875 C 199.40625 139.070312 207.9375 142.65625 209.109375 149.652344 C 210.125 155.746094 204.71875 164.179688 202.121094 168.234375 C 201.761719 168.792969 201.453125 169.273438 201.246094 169.617188 C 200.667969 170.585938 200.839844 171.320312 201.265625 171.617188 C 201.695312 171.917969 202.28125 171.738281 202.75 171.152344 C 203.003906 170.839844 203.449219 170.765625 203.792969 170.980469 C 204.132812 171.195312 204.253906 171.628906 204.078125 171.992188 C 204.007812 172.144531 203.917969 172.324219 203.816406 172.527344 C 202.519531 175.117188 201.929688 176.671875 202.0625 177.140625 C 202.101562 177.273438 202.160156 177.324219 202.300781 177.339844 C 202.753906 177.382812 203.664062 176.917969 204.277344 175.742188 L 204.59375 175.132812 L 205.261719 175.382812 C 205.640625 175.535156 205.832031 175.945312 205.710938 176.332031 C 204.816406 179.335938 205.015625 180.78125 205.25 180.878906 C 205.339844 180.917969 205.464844 180.941406 205.667969 180.839844 C 206.375 180.488281 207.242188 179.007812 207.644531 177.472656 L 207.820312 176.792969 L 208.539062 176.902344 C 208.9375 176.976562 209.214844 177.347656 209.171875 177.75 C 208.980469 179.53125 209.128906 180.523438 209.285156 180.8125 C 209.8125 180.667969 210.585938 179.628906 211.171875 178.269531 L 211.429688 177.667969 L 212.089844 177.824219 C 212.464844 177.925781 212.710938 178.289062 212.660156 178.675781 C 212.507812 179.832031 212.628906 180.578125 212.769531 180.757812 C 213.847656 180.621094 216.476562 177.625 217.875 171.195312 C 218.03125 170.488281 218.210938 169.710938 218.40625 168.875 C 220.054688 161.847656 222.8125 150.078125 217.210938 141.609375 C 212.175781 133.996094 198.898438 127.882812 195.121094 129.328125 C 194.734375 129.476562 194.296875 129.28125 194.144531 128.894531 C 193.996094 128.503906 194.191406 128.066406 194.582031 127.917969 C 197.230469 126.90625 202.339844 128.683594 206.246094 130.679688 C 211.574219 133.40625 216.027344 137.085938 218.46875 140.777344 C 224.429688 149.789062 221.578125 161.953125 219.875 169.21875 C 219.683594 170.046875 219.503906 170.816406 219.351562 171.515625 C 217.871094 178.308594 214.992188 182.0625 212.914062 182.261719 C 212.445312 182.308594 212.015625 182.152344 211.699219 181.824219 C 211.507812 181.625 211.371094 181.371094 211.273438 181.085938 C 210.746094 181.738281 210.101562 182.253906 209.355469 182.328125 C 208.941406 182.371094 208.550781 182.226562 208.257812 181.929688 C 208.136719 181.808594 207.890625 181.5625 207.726562 180.894531 C 207.320312 181.46875 206.851562 181.933594 206.339844 182.191406 C 206.03125 182.34375 205.71875 182.417969 205.40625 182.417969 Z M 212.558594 178.863281 C 212.558594 178.863281 212.558594 178.863281 212.554688 178.867188 C 212.558594 178.867188 212.558594 178.863281 212.558594 178.863281 Z M 205.617188 176.4375 C 205.613281 176.441406 205.613281 176.441406 205.613281 176.445312 C 205.613281 176.441406 205.613281 176.441406 205.617188 176.4375 Z M 203.925781 172.097656 C 203.925781 172.097656 203.925781 172.101562 203.925781 172.101562 C 203.925781 172.101562 203.925781 172.097656 203.925781 172.097656 Z M 203.925781 172.097656 " fill-opacity="1" fill-rule="nonzero"/><path fill="#201bde" d="M 206.949219 146.941406 C 206.867188 146.941406 206.78125 146.925781 206.695312 146.898438 C 206.304688 146.757812 206.097656 146.328125 206.238281 145.933594 C 206.339844 145.65625 208.738281 139.070312 214.933594 137.21875 C 215.332031 137.097656 215.75 137.324219 215.871094 137.722656 C 215.988281 138.121094 215.761719 138.542969 215.363281 138.664062 C 209.898438 140.300781 207.683594 146.378906 207.660156 146.4375 C 207.550781 146.75 207.257812 146.941406 206.949219 146.941406 Z M 206.949219 146.941406 " fill-opacity="1" fill-rule="nonzero"/><path fill="#201bde" d="M 201.425781 176.960938 L 201.421875 176.960938 C 201.238281 176.960938 196.921875 176.898438 194.414062 174.996094 C 194.0625 174.734375 193.132812 174.03125 192.664062 168.507812 C 192.097656 161.871094 192.464844 150.53125 194.300781 148.570312 C 196.613281 146.097656 206.460938 146.449219 207.574219 146.496094 C 207.992188 146.515625 208.316406 146.867188 208.296875 147.285156 C 208.28125 147.699219 207.941406 148.023438 207.511719 148.003906 C 203.566406 147.835938 196.789062 148.117188 195.402344 149.601562 C 194.316406 150.761719 193.492188 160.441406 194.167969 168.378906 C 194.578125 173.175781 195.316406 173.789062 195.324219 173.796875 C 197.429688 175.390625 201.394531 175.453125 201.433594 175.453125 C 201.851562 175.457031 202.1875 175.800781 202.179688 176.214844 C 202.175781 176.628906 201.839844 176.960938 201.425781 176.960938 Z M 201.425781 176.960938 " fill-opacity="1" fill-rule="nonzero"/><path fill="#201bde" d="M 194.160156 173.816406 C 194.085938 173.816406 194.011719 173.804688 193.941406 173.78125 C 191.171875 172.953125 183.820312 168.203125 179.996094 159.5 C 177.21875 153.183594 179.117188 147.511719 181.355469 145.507812 C 182.402344 144.566406 183.558594 144.347656 184.523438 144.90625 C 187.292969 146.5 192.429688 149.097656 194.425781 149.28125 C 194.839844 149.316406 195.144531 149.683594 195.109375 150.097656 C 195.070312 150.511719 194.703125 150.824219 194.289062 150.78125 C 191.859375 150.5625 186.347656 147.695312 183.769531 146.210938 C 183.273438 145.925781 182.675781 146.351562 182.363281 146.628906 C 180.519531 148.285156 178.929688 153.328125 181.375 158.894531 C 184.789062 166.660156 191.527344 171.484375 194.375 172.335938 C 194.773438 172.457031 195 172.878906 194.878906 173.277344 C 194.78125 173.605469 194.484375 173.816406 194.160156 173.816406 Z M 194.160156 173.816406 " fill-opacity="1" fill-rule="nonzero"/><path fill="#201bde" d="M 217.867188 176.988281 C 217.613281 176.988281 217.355469 176.984375 217.09375 176.976562 C 216.679688 176.960938 216.351562 176.613281 216.367188 176.195312 C 216.382812 175.78125 216.722656 175.460938 217.144531 175.46875 C 223.769531 175.699219 227.035156 172.992188 227.742188 166.710938 C 228.457031 160.332031 226.613281 148.480469 225.390625 147.378906 C 224.292969 146.382812 221.75 146.710938 220.867188 146.921875 C 220.464844 147.015625 220.054688 146.765625 219.957031 146.359375 C 219.863281 145.957031 220.113281 145.550781 220.519531 145.453125 C 220.921875 145.355469 224.527344 144.566406 226.402344 146.257812 C 228.375 148.039062 229.90625 160.941406 229.238281 166.882812 C 228.476562 173.675781 224.753906 176.988281 217.867188 176.988281 Z M 217.867188 176.988281 " fill-opacity="1" fill-rule="nonzero"/><path fill="#201bde" d="M 226.792969 172.960938 C 226.484375 172.960938 226.195312 172.773438 226.082031 172.464844 C 225.941406 172.074219 226.140625 171.640625 226.535156 171.5 C 231.011719 169.867188 241.308594 163.894531 244.539062 155.84375 C 246.554688 150.816406 245.605469 146.570312 243.6875 145.128906 C 242.804688 144.46875 241.816406 144.496094 240.90625 145.207031 C 237.160156 148.136719 227.171875 149.050781 226.75 149.089844 C 226.332031 149.125 225.96875 148.820312 225.933594 148.40625 C 225.894531 147.988281 226.203125 147.625 226.617188 147.585938 C 226.714844 147.578125 236.582031 146.675781 239.976562 144.019531 C 241.433594 142.878906 243.15625 142.847656 244.59375 143.925781 C 247.019531 145.746094 248.261719 150.621094 245.9375 156.40625 C 242.242188 165.613281 230.777344 171.558594 227.050781 172.914062 C 226.964844 172.945312 226.878906 172.960938 226.792969 172.960938 Z M 226.792969 172.960938 " fill-opacity="1" fill-rule="nonzero"/><path fill="#201bde" d="M 184.148438 146.3125 C 184.09375 146.3125 184.039062 146.308594 183.984375 146.296875 C 183.578125 146.207031 183.320312 145.800781 183.410156 145.394531 C 184.808594 139.097656 188.8125 130.371094 188.980469 130.003906 C 189.15625 129.625 189.605469 129.460938 189.980469 129.636719 C 190.359375 129.808594 190.527344 130.257812 190.351562 130.636719 C 190.3125 130.726562 186.246094 139.582031 184.882812 145.722656 C 184.804688 146.074219 184.492188 146.3125 184.148438 146.3125 Z M 184.148438 146.3125 " fill-opacity="1" fill-rule="nonzero"/><g clip-path="url(#e3e8eec57b)"><path fill="#201bde" d="M 149.863281 212.054688 C 149.820312 212.054688 149.78125 212.054688 149.738281 212.050781 C 145.476562 211.910156 126.121094 197.542969 124.480469 193.304688 C 124.132812 192.402344 124.472656 191.886719 124.707031 191.660156 C 125.664062 190.734375 128.332031 189.832031 140.429688 192.722656 C 140.449219 192.726562 140.46875 192.730469 140.488281 192.734375 C 140.765625 192.269531 141.25 191.386719 141.757812 190.464844 C 144.824219 184.894531 152.007812 171.847656 158.597656 166.90625 C 167.164062 160.480469 183.046875 163.375 183.71875 163.5 C 184.128906 163.578125 184.398438 163.96875 184.320312 164.378906 C 184.246094 164.789062 183.851562 165.058594 183.441406 164.980469 C 183.28125 164.953125 167.535156 162.089844 159.5 168.113281 C 153.171875 172.859375 146.101562 185.707031 143.082031 191.191406 C 141.925781 193.285156 141.167969 194.335938 140.800781 194.335938 C 140.691406 194.335938 140.679688 194.332031 140.082031 194.1875 C 129.015625 191.546875 126.4375 192.265625 125.847656 192.671875 C 126.046875 193.644531 129.335938 197.210938 136.390625 202.5 C 142.4375 207.035156 148.195312 210.492188 149.789062 210.546875 C 149.8125 210.546875 149.832031 210.546875 149.855469 210.546875 C 152.328125 210.546875 154.894531 206.050781 156.960938 202.433594 C 157.914062 200.757812 158.820312 199.175781 159.710938 197.964844 C 163.019531 193.480469 170.011719 188.84375 179.730469 189.285156 C 189.421875 189.726562 201.203125 184.6875 204.398438 181.078125 C 204.675781 180.765625 205.152344 180.738281 205.464844 181.011719 C 205.777344 181.289062 205.804688 181.765625 205.527344 182.078125 C 201.714844 186.382812 189.332031 191.230469 179.660156 190.792969 C 170.542969 190.378906 164.003906 194.6875 160.925781 198.859375 C 160.085938 200 159.203125 201.546875 158.269531 203.179688 C 155.777344 207.542969 153.203125 212.054688 149.863281 212.054688 Z M 149.863281 212.054688 " fill-opacity="1" fill-rule="nonzero"/></g><path fill="#201bde" d="M 200.902344 184.308594 C 201.714844 183.914062 202.523438 183.5 203.265625 182.984375 C 203.605469 182.75 203.90625 182.425781 204.25 182.207031 C 204.570312 182.011719 204.871094 182.039062 204.972656 181.574219 C 205.046875 181.222656 204.933594 180.859375 204.824219 180.515625 C 204.5 179.488281 204.222656 178.421875 204.316406 177.351562 C 203.832031 177.769531 203.253906 178.121094 202.617188 178.175781 C 201.976562 178.234375 201.277344 177.933594 201.011719 177.351562 C 200.882812 177.058594 200.859375 176.710938 200.664062 176.457031 C 200.234375 175.902344 199.515625 176.226562 198.964844 176.101562 C 198.230469 175.9375 197.433594 175.4375 196.765625 175.105469 C 193.691406 173.566406 190.980469 171.382812 188.539062 168.96875 C 186.917969 167.367188 185.347656 165.613281 183.269531 164.675781 C 181.695312 163.96875 179.945312 163.78125 178.222656 163.644531 C 172.195312 163.167969 165.789062 163.304688 160.589844 166.386719 C 159.625 166.957031 158.71875 167.621094 157.875 168.351562 C 155.355469 170.523438 153.386719 173.253906 151.613281 176.046875 C 151.164062 176.753906 150.726562 177.46875 150.296875 178.183594 C 149.878906 178.875 149.414062 179.300781 148.902344 179.902344 C 147.703125 181.320312 146.761719 182.933594 145.828125 184.53125 C 144.117188 187.472656 142.511719 190.640625 140.804688 193.578125 C 140.804688 193.578125 145.570312 204.113281 155.121094 206.960938 C 156.707031 203.992188 158.265625 200.890625 160.382812 198.269531 C 162.5 195.644531 165.144531 193.367188 168.285156 192.148438 C 169.964844 191.492188 171.804688 191.089844 173.59375 190.722656 C 174.53125 190.53125 175.464844 190.34375 176.394531 190.125 C 177.203125 189.9375 177.78125 189.960938 178.582031 189.953125 C 182.292969 189.914062 186.105469 189.222656 189.699219 188.339844 C 193.558594 187.386719 197.320312 186.039062 200.902344 184.308594 Z M 200.902344 184.308594 " fill-opacity="1" fill-rule="nonzero"/><g clip-path="url(#4d4cc49ce6)"><path fill="#201bde" d="M 232.769531 221.378906 C 232.679688 221.378906 232.601562 221.371094 232.535156 221.359375 C 231.230469 221.101562 228.96875 219.421875 224.445312 207.832031 C 224.4375 207.8125 224.429688 207.796875 224.425781 207.777344 C 223.886719 207.816406 222.882812 207.917969 221.832031 208.027344 C 215.507812 208.683594 200.695312 210.21875 192.878906 207.617188 C 182.71875 204.238281 176.042969 189.539062 175.765625 188.914062 C 175.59375 188.535156 175.765625 188.089844 176.144531 187.917969 C 176.523438 187.75 176.96875 187.917969 177.140625 188.300781 C 177.207031 188.445312 183.828125 203.019531 193.355469 206.1875 C 200.863281 208.683594 215.449219 207.171875 221.679688 206.527344 C 224.058594 206.28125 225.351562 206.308594 225.558594 206.609375 C 225.625 206.699219 225.628906 206.710938 225.851562 207.285156 C 229.988281 217.882812 232.046875 219.589844 232.714844 219.84375 C 233.398438 219.128906 234.457031 214.390625 234.78125 205.578125 C 235.0625 198.027344 234.625 191.324219 233.757812 189.984375 C 232.40625 187.890625 227.195312 188.347656 223.003906 188.714844 C 221.085938 188.886719 219.273438 189.046875 217.765625 189 C 215.492188 188.933594 207.582031 188.105469 201.199219 180.257812 C 200.9375 179.9375 200.988281 179.460938 201.308594 179.199219 C 201.632812 178.933594 202.109375 178.984375 202.371094 179.308594 C 208.347656 186.660156 215.699219 187.429688 217.8125 187.492188 C 219.222656 187.535156 221 187.378906 222.875 187.214844 C 227.941406 186.769531 233.179688 186.308594 235.027344 189.167969 C 237.339844 192.75 236.566406 216.84375 234.015625 220.605469 C 233.585938 221.238281 233.109375 221.378906 232.769531 221.378906 Z M 232.769531 221.378906 " fill-opacity="1" fill-rule="nonzero"/></g><path fill="#201bde" d="M 188.070312 182.890625 C 184.808594 183.707031 181.621094 184.746094 178.628906 186.269531 C 177.621094 186.78125 176.761719 187.398438 176.988281 188.613281 C 177.300781 190.3125 178.144531 191.859375 179.015625 193.347656 C 182.058594 198.574219 185.820312 203.757812 191.320312 206.277344 C 192.335938 206.742188 193.398438 207.109375 194.480469 207.386719 C 197.699219 208.21875 201.066406 208.28125 204.371094 208.148438 C 205.207031 208.113281 206.042969 208.066406 206.878906 208.011719 C 207.683594 207.960938 208.296875 208.101562 209.085938 208.175781 C 210.933594 208.355469 212.796875 208.210938 214.640625 208.0625 C 218.03125 207.796875 221.550781 207.308594 224.941406 207.039062 C 224.941406 207.039062 230.878906 197.117188 227.777344 187.648438 C 224.429688 188.035156 220.996094 188.523438 217.632812 188.277344 C 214.273438 188.03125 210.894531 187.160156 208.101562 185.273438 C 206.605469 184.265625 205.226562 182.984375 203.902344 181.722656 C 203.535156 181.371094 203.105469 180.734375 202.644531 180.515625 C 202.121094 180.265625 201.167969 180.46875 200.609375 180.511719 C 199.085938 180.628906 197.582031 180.914062 196.082031 181.203125 C 193.40625 181.710938 190.714844 182.226562 188.070312 182.890625 Z M 188.070312 182.890625 " fill-opacity="1" fill-rule="nonzero"/><path fill="#201bde" d="M 175.148438 138.753906 C 173.554688 138.753906 172 138.53125 170.613281 137.972656 C 167.085938 136.546875 165.769531 134.183594 165.289062 132.445312 C 164.519531 129.667969 165.273438 126.398438 167.3125 123.695312 C 168.894531 121.597656 169.144531 120.027344 168.6875 119.402344 C 168.339844 118.921875 167.484375 118.867188 166.398438 119.246094 C 163.40625 120.292969 158.53125 127.042969 157.730469 130.492188 C 157.636719 130.894531 157.230469 131.148438 156.824219 131.054688 C 156.417969 130.960938 156.167969 130.554688 156.261719 130.148438 C 157.09375 126.570312 162.167969 119.128906 165.902344 117.824219 C 167.675781 117.203125 169.132812 117.453125 169.90625 118.511719 C 170.910156 119.882812 170.402344 122.105469 168.515625 124.605469 C 166.761719 126.933594 166.097656 129.714844 166.742188 132.042969 C 167.304688 134.0625 168.835938 135.628906 171.175781 136.574219 C 177.164062 138.988281 187.332031 134.125 187.433594 134.078125 C 187.8125 133.894531 188.261719 134.050781 188.441406 134.425781 C 188.625 134.800781 188.46875 135.253906 188.09375 135.433594 C 187.746094 135.601562 181.15625 138.753906 175.148438 138.753906 Z M 175.148438 138.753906 " fill-opacity="1" fill-rule="nonzero"/><path fill="#201bde" d="M 175.824219 154.445312 C 171.226562 154.445312 165.742188 152.476562 159.972656 148.707031 C 155.554688 145.820312 152.441406 141.867188 149.941406 138.691406 C 148.242188 136.527344 146.769531 134.664062 145.355469 133.699219 C 143.941406 132.734375 142.097656 132.261719 140.3125 131.804688 C 137.660156 131.121094 134.921875 130.417969 133.992188 127.996094 C 133.535156 126.800781 133.84375 125.933594 134.183594 125.417969 C 135.492188 123.425781 139.425781 123.199219 139.871094 123.179688 C 140.28125 123.152344 140.640625 123.480469 140.65625 123.898438 C 140.675781 124.3125 140.355469 124.667969 139.9375 124.683594 C 138.554688 124.75 136.113281 125.226562 135.445312 126.246094 C 135.308594 126.453125 135.15625 126.808594 135.402344 127.457031 C 136.050781 129.152344 138.199219 129.703125 140.6875 130.34375 C 142.597656 130.832031 144.574219 131.339844 146.203125 132.449219 C 147.8125 133.546875 149.347656 135.496094 151.128906 137.757812 C 153.558594 140.847656 156.585938 144.695312 160.796875 147.445312 C 167.863281 152.0625 174.390625 153.855469 179.164062 152.496094 C 179.5625 152.382812 179.980469 152.613281 180.097656 153.015625 C 180.210938 153.414062 179.980469 153.832031 179.578125 153.945312 C 178.410156 154.277344 177.15625 154.441406 175.824219 154.441406 Z M 175.824219 154.445312 " fill-opacity="1" fill-rule="nonzero"/><path fill="#201bde" d="M 180.914062 147.96875 C 180.90625 147.96875 180.898438 147.96875 180.890625 147.96875 C 180.472656 147.957031 180.144531 147.609375 180.160156 147.191406 C 180.242188 144.417969 178.652344 137.785156 178.632812 137.714844 C 178.535156 137.3125 178.785156 136.90625 179.191406 136.808594 C 179.59375 136.707031 180.003906 136.957031 180.101562 137.363281 C 180.167969 137.644531 181.753906 144.261719 181.667969 147.238281 C 181.652344 147.644531 181.320312 147.96875 180.914062 147.96875 Z M 180.914062 147.96875 " fill-opacity="1" fill-rule="nonzero"/><path fill="#201bde" d="M 157.582031 129.378906 L 157.578125 129.378906 C 156.816406 129.371094 138.847656 129.097656 134.003906 117.621094 C 131.59375 111.910156 131.207031 107.894531 132.785156 104.988281 C 134.230469 102.328125 137.332031 100.65625 142.546875 99.722656 C 151.84375 98.0625 171.472656 100.121094 174.859375 103.109375 C 175.691406 103.847656 176.144531 105.027344 176.207031 106.617188 C 176.378906 111.023438 173.433594 118.230469 170.027344 121.742188 C 169.738281 122.042969 169.261719 122.046875 168.960938 121.757812 C 168.664062 121.46875 168.65625 120.992188 168.945312 120.691406 C 172.058594 117.480469 174.855469 110.671875 174.699219 106.675781 C 174.65625 105.527344 174.363281 104.6875 173.859375 104.242188 C 171.078125 101.785156 152.050781 99.558594 142.8125 101.207031 C 138.085938 102.054688 135.320312 103.484375 134.113281 105.707031 C 132.785156 108.148438 133.207031 111.851562 135.394531 117.03125 C 139.851562 127.59375 157.414062 127.867188 157.589844 127.871094 C 158.003906 127.871094 158.339844 128.214844 158.335938 128.628906 C 158.332031 129.042969 157.996094 129.378906 157.582031 129.378906 Z M 157.582031 129.378906 " fill-opacity="1" fill-rule="nonzero"/><path fill="#201bde" d="M 134.464844 123.15625 C 132.175781 123.15625 130.300781 122.546875 128.867188 121.328125 C 127.007812 119.753906 126.03125 117.160156 126.1875 114.21875 C 126.410156 110.070312 130.421875 108.53125 132.511719 108.296875 C 132.925781 108.246094 133.300781 108.546875 133.347656 108.960938 C 133.394531 109.375 133.097656 109.746094 132.683594 109.792969 C 132.488281 109.816406 127.902344 110.394531 127.695312 114.296875 C 127.5625 116.765625 128.34375 118.910156 129.839844 120.179688 C 131.597656 121.664062 134.261719 122.027344 137.757812 121.25 C 138.164062 121.160156 138.570312 121.417969 138.660156 121.824219 C 138.75 122.230469 138.492188 122.632812 138.085938 122.722656 C 136.785156 123.011719 135.574219 123.15625 134.464844 123.15625 Z M 134.464844 123.15625 " fill-opacity="1" fill-rule="nonzero"/><path fill="#201bde" d="M 134.910156 120.476562 C 132.847656 120.476562 131.625 119.765625 130.941406 119.113281 C 129.933594 118.160156 129.4375 116.765625 129.53125 115.191406 C 129.710938 112.285156 132.667969 111.484375 132.792969 111.453125 C 133.195312 111.347656 133.605469 111.589844 133.710938 111.992188 C 133.816406 112.394531 133.574219 112.804688 133.175781 112.910156 C 133.085938 112.933594 131.148438 113.480469 131.039062 115.285156 C 131 115.933594 131.066406 117.152344 131.980469 118.019531 C 132.800781 118.796875 134.152344 119.109375 135.890625 118.910156 C 136.300781 118.863281 136.675781 119.160156 136.722656 119.574219 C 136.773438 119.988281 136.472656 120.359375 136.058594 120.40625 C 135.652344 120.453125 135.269531 120.476562 134.914062 120.476562 Z M 134.910156 120.476562 " fill-opacity="1" fill-rule="nonzero"/><path fill="#201bde" d="M 131.671875 103.242188 C 131.226562 102.480469 130.855469 101.644531 130.832031 100.761719 C 130.8125 99.878906 131.191406 98.945312 131.953125 98.5 C 133.714844 97.46875 135.921875 99.519531 137.902344 99.015625 C 139.101562 98.710938 139.886719 97.523438 140.1875 96.328125 C 140.492188 95.128906 140.425781 93.875 140.574219 92.648438 C 140.722656 91.421875 141.144531 90.132812 142.144531 89.40625 C 143.464844 88.445312 145.390625 88.800781 146.714844 89.757812 C 148.039062 90.714844 148.921875 92.148438 149.851562 93.488281 C 152.765625 97.6875 156.761719 101.496094 161.761719 102.550781 C 164.253906 103.078125 166.890625 102.898438 169.300781 103.726562 C 169.949219 103.949219 170.589844 104.257812 171.058594 104.761719 C 171.527344 105.265625 171.792969 105.996094 171.601562 106.65625 C 171.257812 107.828125 169.796875 108.183594 168.585938 108.328125 C 162.964844 108.988281 157.3125 109.390625 151.65625 109.523438 C 146.742188 109.640625 141.585938 110.167969 137.03125 108.0625 C 134.816406 107.039062 132.90625 105.347656 131.671875 103.242188 Z M 131.671875 103.242188 " fill-opacity="1" fill-rule="nonzero"/><path fill="#201bde" d="M 153.132812 89.566406 C 154.007812 89.453125 154.738281 90.222656 155.199219 90.976562 C 155.507812 91.480469 155.78125 92.027344 155.820312 92.617188 C 155.859375 93.203125 155.621094 93.84375 155.105469 94.136719 C 152.4375 95.660156 150.246094 89.945312 153.132812 89.566406 Z M 153.132812 89.566406 " fill-opacity="1" fill-rule="nonzero"/><path fill="#201bde" d="M 135.660156 92.703125 C 136.035156 93.308594 136.261719 94.109375 135.890625 94.714844 C 135.582031 95.210938 134.96875 95.417969 134.394531 95.5 C 132.644531 95.753906 130.789062 95.1875 129.484375 93.992188 C 128.882812 93.441406 128.371094 92.6875 128.429688 91.871094 C 128.714844 87.832031 134.582031 90.941406 135.660156 92.703125 Z M 135.660156 92.703125 " fill-opacity="1" fill-rule="nonzero"/><g fill="#201bde" fill-opacity="1"><g transform="translate(101.285431, 245.697992)"><g><path d="M 0.75 -40.59375 C 2.257812 -40.59375 3.625 -40.5625 4.84375 -40.5 C 6.0625 -40.445312 7.5 -40.421875 9.15625 -40.421875 C 10.125 -40.421875 10.898438 -40.429688 11.484375 -40.453125 C 12.066406 -40.472656 12.617188 -40.492188 13.140625 -40.515625 C 13.660156 -40.535156 14.316406 -40.550781 15.109375 -40.5625 C 15.898438 -40.582031 16.972656 -40.59375 18.328125 -40.59375 C 21.535156 -40.59375 23.941406 -39.625 25.546875 -37.6875 C 27.148438 -35.757812 27.953125 -33.15625 27.953125 -29.875 C 27.953125 -26.894531 27.234375 -24.359375 25.796875 -22.265625 C 24.367188 -20.179688 22.363281 -18.789062 19.78125 -18.09375 C 21.675781 -17.664062 23.066406 -17.054688 23.953125 -16.265625 C 24.835938 -15.472656 25.367188 -14.4375 25.546875 -13.15625 C 25.722656 -11.882812 25.675781 -10.320312 25.40625 -8.46875 C 25.25 -7.039062 25.332031 -5.648438 25.65625 -4.296875 C 25.988281 -2.941406 26.695312 -1.78125 27.78125 -0.8125 C 27.976562 -0.65625 28.046875 -0.476562 27.984375 -0.28125 C 27.921875 -0.09375 27.738281 0 27.4375 0 C 26.8125 0 26.171875 -0.0351562 25.515625 -0.109375 C 24.859375 -0.191406 24.203125 -0.234375 23.546875 -0.234375 C 22.691406 -0.234375 22.039062 -0.191406 21.59375 -0.109375 C 21.15625 -0.0351562 20.609375 0 19.953125 0 C 19.335938 0 18.851562 -0.25 18.5 -0.75 C 18.15625 -1.257812 17.90625 -1.820312 17.75 -2.4375 C 17.550781 -3.363281 17.5 -4.539062 17.59375 -5.96875 C 17.695312 -7.40625 17.863281 -8.78125 18.09375 -10.09375 C 18.40625 -11.875 18.414062 -13.242188 18.125 -14.203125 C 17.832031 -15.171875 17.257812 -15.945312 16.40625 -16.53125 C 15.5625 -17.113281 14.40625 -17.675781 12.9375 -18.21875 C 12.039062 -18.5625 11.300781 -19.085938 10.71875 -19.796875 C 10.144531 -20.515625 9.878906 -21.457031 9.921875 -22.625 C 9.953125 -23.4375 10.179688 -24.179688 10.609375 -24.859375 C 11.035156 -25.535156 11.675781 -25.96875 12.53125 -26.15625 C 12.957031 -26.269531 13.410156 -26.296875 13.890625 -26.234375 C 14.367188 -26.179688 14.785156 -26 15.140625 -25.6875 C 15.253906 -25.613281 15.300781 -25.519531 15.28125 -25.40625 C 15.257812 -25.289062 15.171875 -25.234375 15.015625 -25.234375 C 14.785156 -25.234375 14.578125 -25.097656 14.390625 -24.828125 C 13.804688 -23.785156 13.515625 -22.828125 13.515625 -21.953125 C 13.515625 -21.078125 13.734375 -20.40625 14.171875 -19.9375 C 14.617188 -19.476562 15.15625 -19.328125 15.78125 -19.484375 C 16.820312 -19.753906 17.648438 -20.398438 18.265625 -21.421875 C 18.890625 -22.453125 19.34375 -23.65625 19.625 -25.03125 C 19.914062 -26.40625 20.0625 -27.75 20.0625 -29.0625 C 20.0625 -30.375 19.945312 -31.457031 19.71875 -32.3125 C 19.0625 -34.59375 17.929688 -36.222656 16.328125 -37.203125 C 14.722656 -38.191406 12.738281 -38.6875 10.375 -38.6875 L 5.796875 -38.6875 C 6.691406 -38.144531 7.320312 -37.457031 7.6875 -36.625 C 8.050781 -35.789062 8.234375 -34.851562 8.234375 -33.8125 L 8.234375 -20.296875 C 8.234375 -18.554688 8.367188 -16.660156 8.640625 -14.609375 C 8.910156 -12.566406 9.328125 -10.585938 9.890625 -8.671875 C 10.453125 -6.753906 11.164062 -5.128906 12.03125 -3.796875 C 12.90625 -2.460938 13.921875 -1.625 15.078125 -1.28125 C 15.503906 -1.164062 15.71875 -0.929688 15.71875 -0.578125 C 15.71875 -0.191406 15.410156 0 14.796875 0 C 13.859375 0 12.691406 -0.0351562 11.296875 -0.109375 C 9.910156 -0.191406 8.734375 -0.234375 7.765625 -0.234375 C 6.835938 -0.234375 5.664062 -0.191406 4.25 -0.109375 C 2.84375 -0.0351562 1.675781 0 0.75 0 C 0.25 0 0 -0.191406 0 -0.578125 C 0 -0.773438 0.046875 -0.910156 0.140625 -0.984375 C 0.242188 -1.066406 0.332031 -1.203125 0.40625 -1.390625 C 1.257812 -3.210938 1.90625 -5.265625 2.34375 -7.546875 C 2.789062 -9.828125 3.097656 -12.085938 3.265625 -14.328125 C 3.441406 -16.566406 3.53125 -18.554688 3.53125 -20.296875 C 3.53125 -22.035156 3.441406 -24.023438 3.265625 -26.265625 C 3.097656 -28.515625 2.789062 -30.78125 2.34375 -33.0625 C 1.90625 -35.34375 1.257812 -37.390625 0.40625 -39.203125 C 0.332031 -39.398438 0.242188 -39.546875 0.140625 -39.640625 C 0.046875 -39.734375 0 -39.859375 0 -40.015625 C 0 -40.398438 0.25 -40.59375 0.75 -40.59375 Z M 0.75 -40.59375 "/></g></g></g><g fill="#201bde" fill-opacity="1"><g transform="translate(128.71749, 245.697992)"><g><path d="M 5.390625 -40.59375 C 6.398438 -40.59375 7.257812 -40.234375 7.96875 -39.515625 C 8.6875 -38.804688 9.046875 -37.953125 9.046875 -36.953125 C 9.046875 -35.941406 8.6875 -35.066406 7.96875 -34.328125 C 7.257812 -33.597656 6.398438 -33.234375 5.390625 -33.234375 C 4.390625 -33.234375 3.53125 -33.597656 2.8125 -34.328125 C 2.09375 -35.066406 1.734375 -35.941406 1.734375 -36.953125 C 1.734375 -37.953125 2.09375 -38.804688 2.8125 -39.515625 C 3.53125 -40.234375 4.390625 -40.59375 5.390625 -40.59375 Z M 0.75 -29.75 C 1.675781 -29.75 2.4375 -29.707031 3.03125 -29.625 C 3.632812 -29.550781 4.421875 -29.515625 5.390625 -29.515625 C 6.316406 -29.515625 7.085938 -29.550781 7.703125 -29.625 C 8.328125 -29.707031 9.101562 -29.75 10.03125 -29.75 C 10.53125 -29.75 10.78125 -29.554688 10.78125 -29.171875 C 10.78125 -29.015625 10.742188 -28.890625 10.671875 -28.796875 C 10.597656 -28.703125 10.5 -28.554688 10.375 -28.359375 C 9.375 -26.546875 8.648438 -24.773438 8.203125 -23.046875 C 7.765625 -21.328125 7.492188 -19.757812 7.390625 -18.34375 C 7.296875 -16.9375 7.25 -15.789062 7.25 -14.90625 C 7.25 -14.019531 7.296875 -12.867188 7.390625 -11.453125 C 7.492188 -10.046875 7.765625 -8.472656 8.203125 -6.734375 C 8.648438 -4.992188 9.375 -3.210938 10.375 -1.390625 C 10.5 -1.203125 10.597656 -1.066406 10.671875 -0.984375 C 10.742188 -0.910156 10.78125 -0.773438 10.78125 -0.578125 C 10.78125 -0.191406 10.53125 0 10.03125 0 C 9.101562 0 8.328125 -0.0351562 7.703125 -0.109375 C 7.085938 -0.191406 6.316406 -0.234375 5.390625 -0.234375 C 4.421875 -0.234375 3.632812 -0.191406 3.03125 -0.109375 C 2.4375 -0.0351562 1.675781 0 0.75 0 C 0.25 0 0 -0.191406 0 -0.578125 C 0 -0.773438 0.0351562 -0.921875 0.109375 -1.015625 C 0.191406 -1.109375 0.289062 -1.234375 0.40625 -1.390625 C 1.40625 -2.972656 2.128906 -4.632812 2.578125 -6.375 C 3.023438 -8.113281 3.296875 -9.75 3.390625 -11.28125 C 3.484375 -12.8125 3.53125 -14.019531 3.53125 -14.90625 C 3.53125 -15.789062 3.484375 -16.988281 3.390625 -18.5 C 3.296875 -20.007812 3.023438 -21.632812 2.578125 -23.375 C 2.128906 -25.113281 1.40625 -26.773438 0.40625 -28.359375 C 0.289062 -28.554688 0.191406 -28.703125 0.109375 -28.796875 C 0.0351562 -28.890625 0 -29.015625 0 -29.171875 C 0 -29.554688 0.25 -29.75 0.75 -29.75 Z M 0.75 -29.75 "/></g></g></g><g fill="#201bde" fill-opacity="1"><g transform="translate(138.866705, 245.697992)"><g><path d="M 0.75 -29.75 C 1.675781 -29.75 2.445312 -29.707031 3.0625 -29.625 C 3.6875 -29.550781 4.460938 -29.515625 5.390625 -29.515625 C 6.359375 -29.515625 7.140625 -29.550781 7.734375 -29.625 C 8.335938 -29.707031 9.101562 -29.75 10.03125 -29.75 C 10.53125 -29.75 10.78125 -29.554688 10.78125 -29.171875 C 10.78125 -29.015625 10.742188 -28.890625 10.671875 -28.796875 C 10.597656 -28.703125 10.5 -28.554688 10.375 -28.359375 C 9.0625 -26.035156 8.226562 -23.800781 7.875 -21.65625 C 7.53125 -19.507812 7.34375 -17.703125 7.3125 -16.234375 C 7.613281 -17.554688 8.023438 -18.988281 8.546875 -20.53125 C 9.078125 -22.082031 9.753906 -23.5625 10.578125 -24.96875 C 11.410156 -26.382812 12.40625 -27.535156 13.5625 -28.421875 C 14.726562 -29.304688 16.101562 -29.75 17.6875 -29.75 C 19.269531 -29.75 20.613281 -29.1875 21.71875 -28.0625 C 22.820312 -26.945312 23.53125 -25.476562 23.84375 -23.65625 C 24.6875 -25.4375 25.71875 -26.894531 26.9375 -28.03125 C 28.15625 -29.175781 29.519531 -29.75 31.03125 -29.75 C 32.925781 -29.75 34.460938 -28.972656 35.640625 -27.421875 C 36.816406 -25.878906 37.40625 -23.96875 37.40625 -21.6875 C 37.40625 -19.914062 37.132812 -18.300781 36.59375 -16.84375 C 36.050781 -15.394531 35.488281 -14.003906 34.90625 -12.671875 C 34.332031 -11.335938 33.988281 -9.914062 33.875 -8.40625 C 33.832031 -7.320312 33.984375 -6.25 34.328125 -5.1875 C 34.679688 -4.125 35.34375 -3.300781 36.3125 -2.71875 C 36.382812 -2.6875 36.5 -2.640625 36.65625 -2.578125 C 36.8125 -2.523438 36.945312 -2.515625 37.0625 -2.546875 C 37.257812 -2.660156 37.363281 -2.671875 37.375 -2.578125 C 37.394531 -2.484375 37.367188 -2.359375 37.296875 -2.203125 C 36.796875 -1.347656 36.078125 -0.765625 35.140625 -0.453125 C 34.210938 -0.148438 33.328125 0 32.484375 0 C 30.703125 0 29.316406 -0.5 28.328125 -1.5 C 27.347656 -2.507812 26.816406 -3.75 26.734375 -5.21875 C 26.703125 -6.84375 27.082031 -8.28125 27.875 -9.53125 C 28.664062 -10.789062 29.617188 -11.984375 30.734375 -13.109375 C 31.859375 -14.234375 32.90625 -15.394531 33.875 -16.59375 C 34.601562 -17.519531 35.09375 -18.460938 35.34375 -19.421875 C 35.601562 -20.390625 35.585938 -21.257812 35.296875 -22.03125 C 35.003906 -22.8125 34.441406 -23.375 33.609375 -23.71875 C 32.773438 -24.070312 31.644531 -24.050781 30.21875 -23.65625 C 28.789062 -23.269531 27.484375 -22.523438 26.296875 -21.421875 C 25.117188 -20.328125 24.113281 -19.023438 23.28125 -17.515625 C 22.457031 -16.003906 21.8125 -14.457031 21.34375 -12.875 C 20.875 -11.289062 20.601562 -9.800781 20.53125 -8.40625 C 20.488281 -7.320312 20.628906 -6.25 20.953125 -5.1875 C 21.285156 -4.125 21.9375 -3.300781 22.90625 -2.71875 C 22.988281 -2.6875 23.113281 -2.640625 23.28125 -2.578125 C 23.457031 -2.523438 23.601562 -2.515625 23.71875 -2.546875 C 23.875 -2.660156 23.96875 -2.671875 24 -2.578125 C 24.039062 -2.484375 24.023438 -2.359375 23.953125 -2.203125 C 23.453125 -1.347656 22.738281 -0.765625 21.8125 -0.453125 C 20.882812 -0.148438 19.992188 0 19.140625 0 C 17.359375 0 15.960938 -0.5 14.953125 -1.5 C 13.953125 -2.507812 13.429688 -3.75 13.390625 -5.21875 C 13.359375 -6.84375 13.726562 -8.28125 14.5 -9.53125 C 15.269531 -10.789062 16.21875 -11.984375 17.34375 -13.109375 C 18.46875 -14.234375 19.507812 -15.394531 20.46875 -16.59375 C 21.207031 -17.519531 21.703125 -18.460938 21.953125 -19.421875 C 22.203125 -20.390625 22.179688 -21.257812 21.890625 -22.03125 C 21.597656 -22.8125 21.035156 -23.375 20.203125 -23.71875 C 19.378906 -24.070312 18.25 -24.050781 16.8125 -23.65625 C 15 -23.15625 13.460938 -22.207031 12.203125 -20.8125 C 10.953125 -19.425781 9.988281 -17.804688 9.3125 -15.953125 C 8.632812 -14.097656 8.238281 -12.238281 8.125 -10.375 C 8.007812 -8.632812 8.144531 -7.066406 8.53125 -5.671875 C 8.914062 -4.285156 9.53125 -2.859375 10.375 -1.390625 C 10.5 -1.203125 10.597656 -1.066406 10.671875 -0.984375 C 10.742188 -0.910156 10.78125 -0.773438 10.78125 -0.578125 C 10.78125 -0.191406 10.53125 0 10.03125 0 C 9.101562 0 8.335938 -0.0351562 7.734375 -0.109375 C 7.140625 -0.191406 6.359375 -0.234375 5.390625 -0.234375 C 4.460938 -0.234375 3.6875 -0.191406 3.0625 -0.109375 C 2.445312 -0.0351562 1.675781 0 0.75 0 C 0.25 0 0 -0.191406 0 -0.578125 C 0 -0.773438 0.0351562 -0.921875 0.109375 -1.015625 C 0.191406 -1.109375 0.289062 -1.234375 0.40625 -1.390625 C 1.445312 -2.972656 2.179688 -4.632812 2.609375 -6.375 C 3.035156 -8.113281 3.296875 -9.75 3.390625 -11.28125 C 3.484375 -12.8125 3.53125 -14.019531 3.53125 -14.90625 C 3.53125 -15.789062 3.484375 -16.988281 3.390625 -18.5 C 3.296875 -20.007812 3.035156 -21.632812 2.609375 -23.375 C 2.179688 -25.113281 1.445312 -26.773438 0.40625 -28.359375 C 0.289062 -28.554688 0.191406 -28.703125 0.109375 -28.796875 C 0.0351562 -28.890625 0 -29.015625 0 -29.171875 C 0 -29.554688 0.25 -29.75 0.75 -29.75 Z M 0.75 -29.75 "/></g></g></g><g fill="#201bde" fill-opacity="1"><g transform="translate(175.694144, 245.697992)"><g><path d="M 13.984375 -29.75 C 15.835938 -29.75 17.515625 -29.082031 19.015625 -27.75 C 20.523438 -26.414062 21.734375 -24.628906 22.640625 -22.390625 C 23.554688 -20.148438 24.015625 -17.65625 24.015625 -14.90625 C 24.015625 -12.15625 23.554688 -9.648438 22.640625 -7.390625 C 21.734375 -5.128906 20.523438 -3.332031 19.015625 -2 C 17.515625 -0.664062 15.835938 0 13.984375 0 C 12.785156 0 11.632812 -0.285156 10.53125 -0.859375 C 9.425781 -1.441406 8.429688 -2.257812 7.546875 -3.3125 C 7.460938 -1.914062 7.191406 -0.925781 6.734375 -0.34375 C 6.578125 -0.113281 6.363281 0 6.09375 0 C 5.707031 0 5.28125 -0.046875 4.8125 -0.140625 C 4.351562 -0.242188 3.910156 -0.296875 3.484375 -0.296875 C 3.054688 -0.296875 2.609375 -0.242188 2.140625 -0.140625 C 1.679688 -0.046875 1.21875 0 0.75 0 C 0.25 0 0 -0.191406 0 -0.578125 C 0 -0.773438 0.0351562 -0.910156 0.109375 -0.984375 C 0.191406 -1.066406 0.3125 -1.203125 0.46875 -1.390625 C 1.3125 -3.210938 1.945312 -5.265625 2.375 -7.546875 C 2.800781 -9.828125 3.09375 -12.097656 3.25 -14.359375 C 3.40625 -16.617188 3.484375 -18.617188 3.484375 -20.359375 C 3.484375 -22.097656 3.40625 -24.078125 3.25 -26.296875 C 3.09375 -28.523438 2.800781 -30.78125 2.375 -33.0625 C 1.945312 -35.34375 1.3125 -37.390625 0.46875 -39.203125 C 0.3125 -39.398438 0.191406 -39.546875 0.109375 -39.640625 C 0.0351562 -39.734375 0 -39.859375 0 -40.015625 C 0 -40.398438 0.25 -40.59375 0.75 -40.59375 C 1.675781 -40.59375 2.4375 -40.5625 3.03125 -40.5 C 3.632812 -40.445312 4.40625 -40.421875 5.34375 -40.421875 C 6.34375 -40.421875 7.128906 -40.445312 7.703125 -40.5 C 8.285156 -40.5625 9.0625 -40.59375 10.03125 -40.59375 C 10.570312 -40.59375 10.84375 -40.398438 10.84375 -40.015625 C 10.84375 -39.859375 10.785156 -39.734375 10.671875 -39.640625 C 10.554688 -39.546875 10.457031 -39.398438 10.375 -39.203125 C 9.53125 -37.429688 8.882812 -35.394531 8.4375 -33.09375 C 7.988281 -30.789062 7.671875 -28.535156 7.484375 -26.328125 C 8.367188 -27.410156 9.363281 -28.25 10.46875 -28.84375 C 11.570312 -29.445312 12.742188 -29.75 13.984375 -29.75 Z M 16.46875 -3.421875 C 17.476562 -3.265625 18.289062 -3.640625 18.90625 -4.546875 C 19.53125 -5.460938 19.898438 -6.757812 20.015625 -8.4375 C 20.128906 -10.125 19.953125 -12.007812 19.484375 -14.09375 C 19.054688 -16.175781 18.398438 -18.117188 17.515625 -19.921875 C 16.628906 -21.722656 15.648438 -23.203125 14.578125 -24.359375 C 13.515625 -25.515625 12.460938 -26.171875 11.421875 -26.328125 C 10.378906 -26.484375 9.554688 -26.109375 8.953125 -25.203125 C 8.359375 -24.296875 8.003906 -23.007812 7.890625 -21.34375 C 7.773438 -19.675781 7.945312 -17.800781 8.40625 -15.71875 C 8.875 -13.59375 9.550781 -11.628906 10.4375 -9.828125 C 11.332031 -8.035156 12.3125 -6.554688 13.375 -5.390625 C 14.4375 -4.234375 15.46875 -3.578125 16.46875 -3.421875 Z M 16.46875 -3.421875 "/></g></g></g><g fill="#201bde" fill-opacity="1"><g transform="translate(199.008481, 245.697992)"><g><path d="M 12.234375 -13.984375 C 10.804688 -13.984375 9.644531 -13.648438 8.75 -12.984375 C 7.863281 -12.328125 7.363281 -11.503906 7.25 -10.515625 C 7.132812 -9.535156 7.460938 -8.546875 8.234375 -7.546875 C 8.972656 -6.609375 9.96875 -5.878906 11.21875 -5.359375 C 12.476562 -4.835938 13.753906 -4.65625 15.046875 -4.8125 C 16.347656 -4.96875 17.421875 -5.546875 18.265625 -6.546875 C 18.421875 -6.742188 18.554688 -6.800781 18.671875 -6.71875 C 18.785156 -6.644531 18.828125 -6.515625 18.796875 -6.328125 C 18.285156 -4.234375 17.21875 -2.65625 15.59375 -1.59375 C 13.976562 -0.53125 12.144531 0 10.09375 0 C 8.238281 0 6.546875 -0.664062 5.015625 -2 C 3.484375 -3.332031 2.265625 -5.128906 1.359375 -7.390625 C 0.453125 -9.648438 0 -12.15625 0 -14.90625 C 0 -17.65625 0.453125 -20.148438 1.359375 -22.390625 C 2.265625 -24.628906 3.484375 -26.414062 5.015625 -27.75 C 6.546875 -29.082031 8.238281 -29.75 10.09375 -29.75 C 11.875 -29.75 13.503906 -29.128906 14.984375 -27.890625 C 16.472656 -26.660156 17.679688 -24.988281 18.609375 -22.875 C 19.546875 -20.769531 20.050781 -18.421875 20.125 -15.828125 C 20.164062 -14.597656 19.546875 -13.984375 18.265625 -13.984375 Z M 7.078125 -13.921875 C 8.078125 -14.804688 9.117188 -15.335938 10.203125 -15.515625 C 11.285156 -15.691406 12.425781 -15.78125 13.625 -15.78125 C 14.28125 -15.78125 14.664062 -15.914062 14.78125 -16.1875 C 14.90625 -16.457031 14.867188 -16.84375 14.671875 -17.34375 C 13.816406 -19.78125 12.722656 -21.835938 11.390625 -23.515625 C 10.054688 -25.203125 8.773438 -26.140625 7.546875 -26.328125 C 6.535156 -26.484375 5.71875 -26.109375 5.09375 -25.203125 C 4.476562 -24.296875 4.113281 -23.019531 4 -21.375 C 3.882812 -19.726562 4.0625 -17.84375 4.53125 -15.71875 C 4.675781 -15.101562 4.835938 -14.472656 5.015625 -13.828125 C 5.191406 -13.191406 5.394531 -12.546875 5.625 -11.890625 C 5.96875 -12.660156 6.453125 -13.335938 7.078125 -13.921875 Z M 7.078125 -13.921875 "/></g></g></g><g fill="#201bde" fill-opacity="1"><g transform="translate(218.669063, 245.697992)"><g><path d="M 0.75 -29.75 C 1.675781 -29.75 2.445312 -29.707031 3.0625 -29.625 C 3.6875 -29.550781 4.460938 -29.515625 5.390625 -29.515625 C 6.359375 -29.515625 7.140625 -29.550781 7.734375 -29.625 C 8.335938 -29.707031 9.101562 -29.75 10.03125 -29.75 C 10.53125 -29.75 10.78125 -29.554688 10.78125 -29.171875 C 10.78125 -29.015625 10.742188 -28.890625 10.671875 -28.796875 C 10.597656 -28.703125 10.5 -28.554688 10.375 -28.359375 C 9.0625 -26.035156 8.226562 -23.800781 7.875 -21.65625 C 7.53125 -19.507812 7.34375 -17.703125 7.3125 -16.234375 C 7.613281 -17.554688 8.023438 -18.988281 8.546875 -20.53125 C 9.078125 -22.082031 9.753906 -23.5625 10.578125 -24.96875 C 11.410156 -26.382812 12.40625 -27.535156 13.5625 -28.421875 C 14.726562 -29.304688 16.101562 -29.75 17.6875 -29.75 C 19.507812 -29.75 21.019531 -29.09375 22.21875 -27.78125 C 23.414062 -26.46875 24.015625 -24.898438 24.015625 -23.078125 C 24.015625 -21.765625 23.710938 -20.519531 23.109375 -19.34375 C 22.515625 -18.164062 21.984375 -16.9375 21.515625 -15.65625 C 21.242188 -14.925781 21.265625 -14.28125 21.578125 -13.71875 C 21.890625 -13.15625 22.46875 -12.953125 23.3125 -13.109375 C 23.582031 -13.148438 23.695312 -13.070312 23.65625 -12.875 C 23.3125 -11.90625 22.625 -11.082031 21.59375 -10.40625 C 20.570312 -9.726562 19.5625 -9.375 18.5625 -9.34375 C 17.28125 -9.300781 16.222656 -9.597656 15.390625 -10.234375 C 14.566406 -10.867188 14.019531 -11.671875 13.75 -12.640625 C 13.476562 -13.609375 13.503906 -14.582031 13.828125 -15.5625 C 14.160156 -16.550781 14.8125 -17.375 15.78125 -18.03125 C 16.4375 -18.457031 17.160156 -18.804688 17.953125 -19.078125 C 18.742188 -19.347656 19.523438 -19.617188 20.296875 -19.890625 C 21.460938 -20.359375 22.140625 -20.863281 22.328125 -21.40625 C 22.523438 -21.945312 22.398438 -22.425781 21.953125 -22.84375 C 21.503906 -23.269531 20.863281 -23.578125 20.03125 -23.765625 C 19.207031 -23.960938 18.332031 -23.96875 17.40625 -23.78125 C 15.425781 -23.394531 13.769531 -22.472656 12.4375 -21.015625 C 11.101562 -19.566406 10.078125 -17.894531 9.359375 -16 C 8.648438 -14.113281 8.238281 -12.238281 8.125 -10.375 C 8.007812 -8.632812 8.144531 -7.066406 8.53125 -5.671875 C 8.914062 -4.285156 9.53125 -2.859375 10.375 -1.390625 C 10.5 -1.203125 10.597656 -1.066406 10.671875 -0.984375 C 10.742188 -0.910156 10.78125 -0.773438 10.78125 -0.578125 C 10.78125 -0.191406 10.53125 0 10.03125 0 C 9.101562 0 8.335938 -0.0351562 7.734375 -0.109375 C 7.140625 -0.191406 6.359375 -0.234375 5.390625 -0.234375 C 4.460938 -0.234375 3.6875 -0.191406 3.0625 -0.109375 C 2.445312 -0.0351562 1.675781 0 0.75 0 C 0.25 0 0 -0.191406 0 -0.578125 C 0 -0.773438 0.0351562 -0.921875 0.109375 -1.015625 C 0.191406 -1.109375 0.289062 -1.234375 0.40625 -1.390625 C 1.445312 -2.972656 2.179688 -4.632812 2.609375 -6.375 C 3.035156 -8.113281 3.296875 -9.75 3.390625 -11.28125 C 3.484375 -12.8125 3.53125 -14.019531 3.53125 -14.90625 C 3.53125 -15.789062 3.484375 -16.988281 3.390625 -18.5 C 3.296875 -20.007812 3.035156 -21.632812 2.609375 -23.375 C 2.179688 -25.113281 1.445312 -26.773438 0.40625 -28.359375 C 0.289062 -28.554688 0.191406 -28.703125 0.109375 -28.796875 C 0.0351562 -28.890625 0 -29.015625 0 -29.171875 C 0 -29.554688 0.25 -29.75 0.75 -29.75 Z M 0.75 -29.75 "/></g></g></g><g fill="#201bde" fill-opacity="1"><g transform="translate(242.041399, 245.697992)"><g><path d="M 5.390625 -40.59375 C 6.398438 -40.59375 7.257812 -40.234375 7.96875 -39.515625 C 8.6875 -38.804688 9.046875 -37.953125 9.046875 -36.953125 C 9.046875 -35.941406 8.6875 -35.066406 7.96875 -34.328125 C 7.257812 -33.597656 6.398438 -33.234375 5.390625 -33.234375 C 4.390625 -33.234375 3.53125 -33.597656 2.8125 -34.328125 C 2.09375 -35.066406 1.734375 -35.941406 1.734375 -36.953125 C 1.734375 -37.953125 2.09375 -38.804688 2.8125 -39.515625 C 3.53125 -40.234375 4.390625 -40.59375 5.390625 -40.59375 Z M 0.75 -29.75 C 1.675781 -29.75 2.4375 -29.707031 3.03125 -29.625 C 3.632812 -29.550781 4.421875 -29.515625 5.390625 -29.515625 C 6.316406 -29.515625 7.085938 -29.550781 7.703125 -29.625 C 8.328125 -29.707031 9.101562 -29.75 10.03125 -29.75 C 10.53125 -29.75 10.78125 -29.554688 10.78125 -29.171875 C 10.78125 -29.015625 10.742188 -28.890625 10.671875 -28.796875 C 10.597656 -28.703125 10.5 -28.554688 10.375 -28.359375 C 9.375 -26.546875 8.648438 -24.773438 8.203125 -23.046875 C 7.765625 -21.328125 7.492188 -19.757812 7.390625 -18.34375 C 7.296875 -16.9375 7.25 -15.789062 7.25 -14.90625 C 7.25 -14.019531 7.296875 -12.867188 7.390625 -11.453125 C 7.492188 -10.046875 7.765625 -8.472656 8.203125 -6.734375 C 8.648438 -4.992188 9.375 -3.210938 10.375 -1.390625 C 10.5 -1.203125 10.597656 -1.066406 10.671875 -0.984375 C 10.742188 -0.910156 10.78125 -0.773438 10.78125 -0.578125 C 10.78125 -0.191406 10.53125 0 10.03125 0 C 9.101562 0 8.328125 -0.0351562 7.703125 -0.109375 C 7.085938 -0.191406 6.316406 -0.234375 5.390625 -0.234375 C 4.421875 -0.234375 3.632812 -0.191406 3.03125 -0.109375 C 2.4375 -0.0351562 1.675781 0 0.75 0 C 0.25 0 0 -0.191406 0 -0.578125 C 0 -0.773438 0.0351562 -0.921875 0.109375 -1.015625 C 0.191406 -1.109375 0.289062 -1.234375 0.40625 -1.390625 C 1.40625 -2.972656 2.128906 -4.632812 2.578125 -6.375 C 3.023438 -8.113281 3.296875 -9.75 3.390625 -11.28125 C 3.484375 -12.8125 3.53125 -14.019531 3.53125 -14.90625 C 3.53125 -15.789062 3.484375 -16.988281 3.390625 -18.5 C 3.296875 -20.007812 3.023438 -21.632812 2.578125 -23.375 C 2.128906 -25.113281 1.40625 -26.773438 0.40625 -28.359375 C 0.289062 -28.554688 0.191406 -28.703125 0.109375 -28.796875 C 0.0351562 -28.890625 0 -29.015625 0 -29.171875 C 0 -29.554688 0.25 -29.75 0.75 -29.75 Z M 0.75 -29.75 "/></g></g></g><g fill="#201bde" fill-opacity="1"><g transform="translate(252.190614, 245.697992)"><g><path d="M 10.09375 -29.75 C 11.945312 -29.75 13.628906 -29.082031 15.140625 -27.75 C 16.648438 -26.414062 17.859375 -24.628906 18.765625 -22.390625 C 19.671875 -20.148438 20.125 -17.65625 20.125 -14.90625 C 20.125 -12.15625 19.671875 -9.648438 18.765625 -7.390625 C 17.859375 -5.128906 16.648438 -3.332031 15.140625 -2 C 13.628906 -0.664062 11.945312 0 10.09375 0 C 8.238281 0 6.546875 -0.664062 5.015625 -2 C 3.484375 -3.332031 2.265625 -5.128906 1.359375 -7.390625 C 0.453125 -9.648438 0 -12.15625 0 -14.90625 C 0 -17.65625 0.453125 -20.148438 1.359375 -22.390625 C 2.265625 -24.628906 3.484375 -26.414062 5.015625 -27.75 C 6.546875 -29.082031 8.238281 -29.75 10.09375 -29.75 Z M 12.59375 -3.421875 C 13.632812 -3.265625 14.453125 -3.640625 15.046875 -4.546875 C 15.648438 -5.460938 16.019531 -6.75 16.15625 -8.40625 C 16.289062 -10.070312 16.109375 -11.945312 15.609375 -14.03125 C 15.140625 -16.15625 14.46875 -18.117188 13.59375 -19.921875 C 12.726562 -21.722656 11.765625 -23.203125 10.703125 -24.359375 C 9.640625 -25.515625 8.585938 -26.171875 7.546875 -26.328125 C 6.535156 -26.484375 5.71875 -26.109375 5.09375 -25.203125 C 4.476562 -24.296875 4.113281 -23.019531 4 -21.375 C 3.882812 -19.726562 4.0625 -17.84375 4.53125 -15.71875 C 4.988281 -13.632812 5.660156 -11.679688 6.546875 -9.859375 C 7.441406 -8.046875 8.421875 -6.554688 9.484375 -5.390625 C 10.546875 -4.234375 11.582031 -3.578125 12.59375 -3.421875 Z M 12.59375 -3.421875 "/></g></g></g><g fill="#201bde" fill-opacity="1"><g transform="translate(119.295406, 281.911973)"><g><path d="M 9.234375 -1.671875 C 9.234375 -1.671875 9.160156 -1.578125 9.015625 -1.390625 C 8.878906 -1.203125 8.65625 -0.984375 8.34375 -0.734375 C 8.039062 -0.492188 7.644531 -0.28125 7.15625 -0.09375 C 6.664062 0.09375 6.066406 0.1875 5.359375 0.1875 C 4.328125 0.1875 3.472656 -0.03125 2.796875 -0.46875 C 2.117188 -0.914062 1.613281 -1.515625 1.28125 -2.265625 C 0.945312 -3.015625 0.78125 -3.847656 0.78125 -4.765625 C 0.78125 -5.679688 0.945312 -6.515625 1.28125 -7.265625 C 1.613281 -8.023438 2.117188 -8.625 2.796875 -9.0625 C 3.472656 -9.507812 4.328125 -9.734375 5.359375 -9.734375 C 6.003906 -9.734375 6.550781 -9.644531 7 -9.46875 C 7.457031 -9.300781 7.832031 -9.101562 8.125 -8.875 C 8.414062 -8.644531 8.628906 -8.441406 8.765625 -8.265625 C 8.898438 -8.097656 8.96875 -8.015625 8.96875 -8.015625 L 8.96875 -6.84375 L 7.96875 -6.84375 L 7.859375 -7.859375 C 7.617188 -8.054688 7.300781 -8.242188 6.90625 -8.421875 C 6.519531 -8.597656 6.039062 -8.6875 5.46875 -8.6875 C 4.695312 -8.6875 4.0625 -8.503906 3.5625 -8.140625 C 3.0625 -7.785156 2.691406 -7.3125 2.453125 -6.71875 C 2.210938 -6.132812 2.09375 -5.484375 2.09375 -4.765625 C 2.09375 -4.046875 2.21875 -3.390625 2.46875 -2.796875 C 2.71875 -2.203125 3.097656 -1.722656 3.609375 -1.359375 C 4.128906 -1.003906 4.78125 -0.828125 5.5625 -0.828125 C 6.113281 -0.828125 6.585938 -0.910156 6.984375 -1.078125 C 7.390625 -1.242188 7.722656 -1.441406 7.984375 -1.671875 C 8.242188 -1.898438 8.4375 -2.097656 8.5625 -2.265625 C 8.6875 -2.429688 8.75 -2.515625 8.75 -2.515625 Z M 9.234375 -1.671875 "/></g></g></g><g fill="#201bde" fill-opacity="1"><g transform="translate(128.760733, 281.911973)"><g><path d="M 4.53125 -9.515625 L 5.90625 -9.515625 L 9.4375 -1.03125 L 10.15625 -1.03125 L 10.15625 0 L 7.3125 0 L 7.3125 -1.03125 L 8.078125 -1.03125 L 7.265625 -3.125 L 3.15625 -3.125 L 2.34375 -1.03125 L 3.109375 -1.03125 L 3.109375 0 L 0.28125 0 L 0.28125 -1.03125 L 1 -1.03125 Z M 3.53125 -4.0625 L 6.890625 -4.0625 L 5.203125 -8.375 Z M 3.53125 -4.0625 "/></g></g></g><g fill="#201bde" fill-opacity="1"><g transform="translate(139.145937, 281.911973)"><g><path d="M 0.53125 -9.515625 L 7.46875 -9.515625 L 7.46875 -7.75 L 6.53125 -7.75 L 6.484375 -8.484375 L 2.515625 -8.484375 L 2.515625 -5.28125 L 5.4375 -5.28125 L 5.4375 -4.25 L 2.515625 -4.25 L 2.515625 -1.03125 L 3.171875 -1.03125 L 3.171875 0 L 0.53125 0 L 0.53125 -1.03125 L 1.203125 -1.03125 L 1.203125 -8.484375 L 0.53125 -8.484375 Z M 0.53125 -9.515625 "/></g></g></g><g fill="#201bde" fill-opacity="1"><g transform="translate(146.860662, 281.911973)"><g><path d="M 0.53125 -9.515625 L 7.46875 -9.515625 L 7.46875 -7.75 L 6.53125 -7.75 L 6.484375 -8.484375 L 2.515625 -8.484375 L 2.515625 -5.28125 L 5.4375 -5.28125 L 5.4375 -4.25 L 2.515625 -4.25 L 2.515625 -1.03125 L 6.484375 -1.03125 L 6.53125 -1.796875 L 7.46875 -1.796875 L 7.46875 0 L 0.53125 0 L 0.53125 -1.03125 L 1.203125 -1.03125 L 1.203125 -8.484375 L 0.53125 -8.484375 Z M 0.53125 -9.515625 "/></g></g></g><g fill="#201bde" fill-opacity="1"><g transform="translate(154.575387, 281.911973)"><g/></g></g><g fill="#201bde" fill-opacity="1"><g transform="translate(158.655286, 281.911973)"><g><path d="M 6.390625 -4.296875 L 3.6875 -4.296875 C 3.207031 -4.296875 2.816406 -4.144531 2.515625 -3.84375 C 2.222656 -3.550781 2.078125 -3.132812 2.078125 -2.59375 C 2.078125 -2.132812 2.210938 -1.742188 2.484375 -1.421875 C 2.765625 -1.097656 3.164062 -0.9375 3.6875 -0.9375 L 6.390625 -0.9375 Z M 7.578125 -4.296875 L 7.578125 -0.9375 L 8.171875 -0.9375 L 8.171875 0 L 3.328125 0 C 2.554688 0 1.957031 -0.234375 1.53125 -0.703125 C 1.101562 -1.179688 0.890625 -1.78125 0.890625 -2.5 C 0.890625 -2.96875 0.96875 -3.351562 1.125 -3.65625 C 1.289062 -3.96875 1.484375 -4.210938 1.703125 -4.390625 C 1.929688 -4.566406 2.132812 -4.695312 2.3125 -4.78125 C 2.132812 -4.863281 1.929688 -4.992188 1.703125 -5.171875 C 1.484375 -5.347656 1.289062 -5.585938 1.125 -5.890625 C 0.96875 -6.191406 0.890625 -6.566406 0.890625 -7.015625 C 0.890625 -7.878906 1.195312 -8.546875 1.8125 -9.015625 C 2.4375 -9.492188 3.242188 -9.734375 4.234375 -9.734375 C 4.765625 -9.734375 5.238281 -9.65625 5.65625 -9.5 C 6.082031 -9.34375 6.4375 -9.160156 6.71875 -8.953125 C 7 -8.742188 7.210938 -8.554688 7.359375 -8.390625 C 7.503906 -8.234375 7.578125 -8.15625 7.578125 -8.15625 L 6.6875 -7.625 C 6.6875 -7.625 6.628906 -7.679688 6.515625 -7.796875 C 6.410156 -7.921875 6.25 -8.054688 6.03125 -8.203125 C 5.8125 -8.359375 5.550781 -8.492188 5.25 -8.609375 C 4.945312 -8.722656 4.609375 -8.78125 4.234375 -8.78125 C 3.640625 -8.78125 3.128906 -8.632812 2.703125 -8.34375 C 2.285156 -8.0625 2.078125 -7.597656 2.078125 -6.953125 C 2.078125 -6.472656 2.234375 -6.0625 2.546875 -5.71875 C 2.867188 -5.382812 3.273438 -5.21875 3.765625 -5.21875 L 6.390625 -5.21875 L 6.390625 -6.8125 L 7.578125 -6.8125 L 7.578125 -5.21875 L 8.171875 -5.21875 L 8.171875 -4.296875 Z M 7.578125 -4.296875 "/></g></g></g><g fill="#201bde" fill-opacity="1"><g transform="translate(167.334358, 281.911973)"><g/></g></g><g fill="#201bde" fill-opacity="1"><g transform="translate(171.414257, 281.911973)"><g><path d="M 9.234375 -1.671875 C 9.234375 -1.671875 9.160156 -1.578125 9.015625 -1.390625 C 8.878906 -1.203125 8.65625 -0.984375 8.34375 -0.734375 C 8.039062 -0.492188 7.644531 -0.28125 7.15625 -0.09375 C 6.664062 0.09375 6.066406 0.1875 5.359375 0.1875 C 4.328125 0.1875 3.472656 -0.03125 2.796875 -0.46875 C 2.117188 -0.914062 1.613281 -1.515625 1.28125 -2.265625 C 0.945312 -3.015625 0.78125 -3.847656 0.78125 -4.765625 C 0.78125 -5.679688 0.945312 -6.515625 1.28125 -7.265625 C 1.613281 -8.023438 2.117188 -8.625 2.796875 -9.0625 C 3.472656 -9.507812 4.328125 -9.734375 5.359375 -9.734375 C 6.003906 -9.734375 6.550781 -9.644531 7 -9.46875 C 7.457031 -9.300781 7.832031 -9.101562 8.125 -8.875 C 8.414062 -8.644531 8.628906 -8.441406 8.765625 -8.265625 C 8.898438 -8.097656 8.96875 -8.015625 8.96875 -8.015625 L 8.96875 -6.84375 L 7.96875 -6.84375 L 7.859375 -7.859375 C 7.617188 -8.054688 7.300781 -8.242188 6.90625 -8.421875 C 6.519531 -8.597656 6.039062 -8.6875 5.46875 -8.6875 C 4.695312 -8.6875 4.0625 -8.503906 3.5625 -8.140625 C 3.0625 -7.785156 2.691406 -7.3125 2.453125 -6.71875 C 2.210938 -6.132812 2.09375 -5.484375 2.09375 -4.765625 C 2.09375 -4.046875 2.21875 -3.390625 2.46875 -2.796875 C 2.71875 -2.203125 3.097656 -1.722656 3.609375 -1.359375 C 4.128906 -1.003906 4.78125 -0.828125 5.5625 -0.828125 C 6.113281 -0.828125 6.585938 -0.910156 6.984375 -1.078125 C 7.390625 -1.242188 7.722656 -1.441406 7.984375 -1.671875 C 8.242188 -1.898438 8.4375 -2.097656 8.5625 -2.265625 C 8.6875 -2.429688 8.75 -2.515625 8.75 -2.515625 Z M 9.234375 -1.671875 "/></g></g></g><g fill="#201bde" fill-opacity="1"><g transform="translate(180.983485, 281.911973)"><g><path d="M 3.125 0 L 0.53125 0 L 0.53125 -1.03125 L 1.203125 -1.03125 L 1.203125 -8.484375 L 0.53125 -8.484375 L 0.53125 -9.515625 L 4.703125 -9.515625 C 5.222656 -9.515625 5.6875 -9.410156 6.09375 -9.203125 C 6.507812 -9.003906 6.84375 -8.710938 7.09375 -8.328125 C 7.34375 -7.953125 7.46875 -7.5 7.46875 -6.96875 C 7.46875 -6.269531 7.265625 -5.703125 6.859375 -5.265625 C 6.453125 -4.828125 5.9375 -4.554688 5.3125 -4.453125 L 7.390625 -1.03125 L 8.15625 -1.03125 L 8.15625 0 L 6.609375 0 L 3.96875 -4.40625 L 2.515625 -4.40625 L 2.515625 -1.03125 L 3.125 -1.03125 Z M 2.515625 -5.1875 L 4.375 -5.1875 C 4.914062 -5.1875 5.347656 -5.335938 5.671875 -5.640625 C 6.003906 -5.941406 6.171875 -6.34375 6.171875 -6.84375 C 6.171875 -7.332031 6.003906 -7.726562 5.671875 -8.03125 C 5.347656 -8.332031 4.914062 -8.484375 4.375 -8.484375 L 2.515625 -8.484375 Z M 2.515625 -5.1875 "/></g></g></g><g fill="#201bde" fill-opacity="1"><g transform="translate(188.935389, 281.911973)"><g><path d="M 5.359375 -8.6875 C 4.597656 -8.6875 3.972656 -8.507812 3.484375 -8.15625 C 3.003906 -7.800781 2.648438 -7.328125 2.421875 -6.734375 C 2.203125 -6.140625 2.09375 -5.484375 2.09375 -4.765625 C 2.09375 -4.046875 2.203125 -3.390625 2.421875 -2.796875 C 2.648438 -2.203125 3.003906 -1.722656 3.484375 -1.359375 C 3.972656 -1.003906 4.597656 -0.828125 5.359375 -0.828125 C 6.117188 -0.828125 6.738281 -1.003906 7.21875 -1.359375 C 7.695312 -1.722656 8.050781 -2.203125 8.28125 -2.796875 C 8.507812 -3.390625 8.625 -4.046875 8.625 -4.765625 C 8.625 -5.484375 8.507812 -6.140625 8.28125 -6.734375 C 8.050781 -7.328125 7.695312 -7.800781 7.21875 -8.15625 C 6.738281 -8.507812 6.117188 -8.6875 5.359375 -8.6875 Z M 5.359375 -9.734375 C 6.390625 -9.734375 7.238281 -9.507812 7.90625 -9.0625 C 8.582031 -8.625 9.085938 -8.023438 9.421875 -7.265625 C 9.753906 -6.515625 9.921875 -5.679688 9.921875 -4.765625 C 9.921875 -3.847656 9.753906 -3.015625 9.421875 -2.265625 C 9.085938 -1.515625 8.582031 -0.914062 7.90625 -0.46875 C 7.238281 -0.03125 6.390625 0.1875 5.359375 0.1875 C 4.328125 0.1875 3.472656 -0.03125 2.796875 -0.46875 C 2.117188 -0.914062 1.613281 -1.515625 1.28125 -2.265625 C 0.945312 -3.015625 0.78125 -3.847656 0.78125 -4.765625 C 0.78125 -5.679688 0.945312 -6.515625 1.28125 -7.265625 C 1.613281 -8.023438 2.117188 -8.625 2.796875 -9.0625 C 3.472656 -9.507812 4.328125 -9.734375 5.359375 -9.734375 Z M 5.359375 -9.734375 "/></g></g></g><g fill="#201bde" fill-opacity="1"><g transform="translate(199.617315, 281.911973)"><g><path d="M 0.53125 -9.53125 L 3.171875 -9.515625 L 3.171875 -8.46875 L 2.515625 -8.484375 L 2.515625 -1.03125 L 3.171875 -1.03125 L 3.171875 0 L 0.53125 0 L 0.53125 -1.03125 L 1.203125 -1.03125 L 1.203125 -8.484375 L 0.53125 -8.484375 Z M 0.53125 -9.53125 "/></g></g></g><g fill="#201bde" fill-opacity="1"><g transform="translate(203.296648, 281.911973)"><g><path d="M 6.984375 -6.828125 L 6.09375 -6.828125 L 6.0625 -7.65625 C 5.925781 -7.8125 5.75 -7.976562 5.53125 -8.15625 C 5.3125 -8.332031 5.050781 -8.476562 4.75 -8.59375 C 4.457031 -8.71875 4.117188 -8.78125 3.734375 -8.78125 C 3.203125 -8.78125 2.773438 -8.65625 2.453125 -8.40625 C 2.140625 -8.15625 1.984375 -7.804688 1.984375 -7.359375 C 1.984375 -7.085938 2.066406 -6.847656 2.234375 -6.640625 C 2.398438 -6.441406 2.648438 -6.242188 2.984375 -6.046875 L 5.8125 -4.546875 C 6.363281 -4.253906 6.757812 -3.925781 7 -3.5625 C 7.238281 -3.195312 7.359375 -2.769531 7.359375 -2.28125 C 7.359375 -1.757812 7.222656 -1.3125 6.953125 -0.9375 C 6.679688 -0.570312 6.304688 -0.289062 5.828125 -0.09375 C 5.359375 0.09375 4.816406 0.1875 4.203125 0.1875 C 3.578125 0.1875 3.039062 0.0976562 2.59375 -0.078125 C 2.144531 -0.253906 1.78125 -0.457031 1.5 -0.6875 C 1.21875 -0.925781 1.015625 -1.132812 0.890625 -1.3125 C 0.765625 -1.5 0.703125 -1.59375 0.703125 -1.59375 L 0.703125 -2.703125 L 1.578125 -2.703125 L 1.609375 -2.046875 C 1.710938 -1.890625 1.875 -1.707031 2.09375 -1.5 C 2.3125 -1.289062 2.59375 -1.109375 2.9375 -0.953125 C 3.289062 -0.804688 3.722656 -0.734375 4.234375 -0.734375 C 4.785156 -0.734375 5.226562 -0.847656 5.5625 -1.078125 C 5.90625 -1.316406 6.078125 -1.648438 6.078125 -2.078125 C 6.078125 -2.335938 6.007812 -2.570312 5.875 -2.78125 C 5.75 -3 5.503906 -3.207031 5.140625 -3.40625 L 2.375 -4.890625 C 1.789062 -5.210938 1.363281 -5.539062 1.09375 -5.875 C 0.832031 -6.21875 0.703125 -6.640625 0.703125 -7.140625 C 0.703125 -7.929688 0.972656 -8.5625 1.515625 -9.03125 C 2.066406 -9.5 2.796875 -9.734375 3.703125 -9.734375 C 4.285156 -9.734375 4.78125 -9.644531 5.1875 -9.46875 C 5.601562 -9.289062 5.941406 -9.082031 6.203125 -8.84375 C 6.472656 -8.601562 6.671875 -8.394531 6.796875 -8.21875 C 6.921875 -8.039062 6.984375 -7.953125 6.984375 -7.953125 Z M 6.984375 -6.828125 "/></g></g></g><g fill="#201bde" fill-opacity="1"><g transform="translate(211.159734, 281.911973)"><g><path d="M 6.984375 -6.828125 L 6.09375 -6.828125 L 6.0625 -7.65625 C 5.925781 -7.8125 5.75 -7.976562 5.53125 -8.15625 C 5.3125 -8.332031 5.050781 -8.476562 4.75 -8.59375 C 4.457031 -8.71875 4.117188 -8.78125 3.734375 -8.78125 C 3.203125 -8.78125 2.773438 -8.65625 2.453125 -8.40625 C 2.140625 -8.15625 1.984375 -7.804688 1.984375 -7.359375 C 1.984375 -7.085938 2.066406 -6.847656 2.234375 -6.640625 C 2.398438 -6.441406 2.648438 -6.242188 2.984375 -6.046875 L 5.8125 -4.546875 C 6.363281 -4.253906 6.757812 -3.925781 7 -3.5625 C 7.238281 -3.195312 7.359375 -2.769531 7.359375 -2.28125 C 7.359375 -1.757812 7.222656 -1.3125 6.953125 -0.9375 C 6.679688 -0.570312 6.304688 -0.289062 5.828125 -0.09375 C 5.359375 0.09375 4.816406 0.1875 4.203125 0.1875 C 3.578125 0.1875 3.039062 0.0976562 2.59375 -0.078125 C 2.144531 -0.253906 1.78125 -0.457031 1.5 -0.6875 C 1.21875 -0.925781 1.015625 -1.132812 0.890625 -1.3125 C 0.765625 -1.5 0.703125 -1.59375 0.703125 -1.59375 L 0.703125 -2.703125 L 1.578125 -2.703125 L 1.609375 -2.046875 C 1.710938 -1.890625 1.875 -1.707031 2.09375 -1.5 C 2.3125 -1.289062 2.59375 -1.109375 2.9375 -0.953125 C 3.289062 -0.804688 3.722656 -0.734375 4.234375 -0.734375 C 4.785156 -0.734375 5.226562 -0.847656 5.5625 -1.078125 C 5.90625 -1.316406 6.078125 -1.648438 6.078125 -2.078125 C 6.078125 -2.335938 6.007812 -2.570312 5.875 -2.78125 C 5.75 -3 5.503906 -3.207031 5.140625 -3.40625 L 2.375 -4.890625 C 1.789062 -5.210938 1.363281 -5.539062 1.09375 -5.875 C 0.832031 -6.21875 0.703125 -6.640625 0.703125 -7.140625 C 0.703125 -7.929688 0.972656 -8.5625 1.515625 -9.03125 C 2.066406 -9.5 2.796875 -9.734375 3.703125 -9.734375 C 4.285156 -9.734375 4.78125 -9.644531 5.1875 -9.46875 C 5.601562 -9.289062 5.941406 -9.082031 6.203125 -8.84375 C 6.472656 -8.601562 6.671875 -8.394531 6.796875 -8.21875 C 6.921875 -8.039062 6.984375 -7.953125 6.984375 -7.953125 Z M 6.984375 -6.828125 "/></g></g></g><g fill="#201bde" fill-opacity="1"><g transform="translate(219.02282, 281.911973)"><g><path d="M 4.53125 -9.515625 L 5.90625 -9.515625 L 9.4375 -1.03125 L 10.15625 -1.03125 L 10.15625 0 L 7.3125 0 L 7.3125 -1.03125 L 8.078125 -1.03125 L 7.265625 -3.125 L 3.15625 -3.125 L 2.34375 -1.03125 L 3.109375 -1.03125 L 3.109375 0 L 0.28125 0 L 0.28125 -1.03125 L 1 -1.03125 Z M 3.53125 -4.0625 L 6.890625 -4.0625 L 5.203125 -8.375 Z M 3.53125 -4.0625 "/></g></g></g><g fill="#201bde" fill-opacity="1"><g transform="translate(229.408024, 281.911973)"><g><path d="M 7.671875 -2.140625 L 7.671875 -8.484375 L 6.984375 -8.484375 L 6.984375 -9.53125 L 9.640625 -9.515625 L 9.640625 -8.484375 L 8.96875 -8.484375 L 8.96875 0 L 7.921875 0 L 2.515625 -7.390625 L 2.515625 -1.03125 L 3.171875 -1.03125 L 3.171875 0 L 0.53125 0 L 0.53125 -1.03125 L 1.203125 -1.03125 L 1.203125 -8.484375 L 0.53125 -8.484375 L 0.53125 -9.53125 L 2.234375 -9.515625 Z M 7.671875 -2.140625 "/></g></g></g><g fill="#201bde" fill-opacity="1"><g transform="translate(239.555854, 281.911973)"><g><path d="M 0.28125 -9.53125 L 8.03125 -9.515625 L 8.03125 -7.65625 L 7.046875 -7.65625 L 6.984375 -8.484375 L 4.8125 -8.484375 L 4.8125 -1.03125 L 5.484375 -1.03125 L 5.484375 0 L 2.8125 0 L 2.8125 -1.03125 L 3.5 -1.03125 L 3.5 -8.484375 L 1.3125 -8.484375 L 1.265625 -7.65625 L 0.28125 -7.65625 Z M 0.28125 -9.53125 "/></g></g></g><g fill="#201bde" fill-opacity="1"><g transform="translate(247.819518, 281.911973)"><g><path d="M 6.984375 -6.828125 L 6.09375 -6.828125 L 6.0625 -7.65625 C 5.925781 -7.8125 5.75 -7.976562 5.53125 -8.15625 C 5.3125 -8.332031 5.050781 -8.476562 4.75 -8.59375 C 4.457031 -8.71875 4.117188 -8.78125 3.734375 -8.78125 C 3.203125 -8.78125 2.773438 -8.65625 2.453125 -8.40625 C 2.140625 -8.15625 1.984375 -7.804688 1.984375 -7.359375 C 1.984375 -7.085938 2.066406 -6.847656 2.234375 -6.640625 C 2.398438 -6.441406 2.648438 -6.242188 2.984375 -6.046875 L 5.8125 -4.546875 C 6.363281 -4.253906 6.757812 -3.925781 7 -3.5625 C 7.238281 -3.195312 7.359375 -2.769531 7.359375 -2.28125 C 7.359375 -1.757812 7.222656 -1.3125 6.953125 -0.9375 C 6.679688 -0.570312 6.304688 -0.289062 5.828125 -0.09375 C 5.359375 0.09375 4.816406 0.1875 4.203125 0.1875 C 3.578125 0.1875 3.039062 0.0976562 2.59375 -0.078125 C 2.144531 -0.253906 1.78125 -0.457031 1.5 -0.6875 C 1.21875 -0.925781 1.015625 -1.132812 0.890625 -1.3125 C 0.765625 -1.5 0.703125 -1.59375 0.703125 -1.59375 L 0.703125 -2.703125 L 1.578125 -2.703125 L 1.609375 -2.046875 C 1.710938 -1.890625 1.875 -1.707031 2.09375 -1.5 C 2.3125 -1.289062 2.59375 -1.109375 2.9375 -0.953125 C 3.289062 -0.804688 3.722656 -0.734375 4.234375 -0.734375 C 4.785156 -0.734375 5.226562 -0.847656 5.5625 -1.078125 C 5.90625 -1.316406 6.078125 -1.648438 6.078125 -2.078125 C 6.078125 -2.335938 6.007812 -2.570312 5.875 -2.78125 C 5.75 -3 5.503906 -3.207031 5.140625 -3.40625 L 2.375 -4.890625 C 1.789062 -5.210938 1.363281 -5.539062 1.09375 -5.875 C 0.832031 -6.21875 0.703125 -6.640625 0.703125 -7.140625 C 0.703125 -7.929688 0.972656 -8.5625 1.515625 -9.03125 C 2.066406 -9.5 2.796875 -9.734375 3.703125 -9.734375 C 4.285156 -9.734375 4.78125 -9.644531 5.1875 -9.46875 C 5.601562 -9.289062 5.941406 -9.082031 6.203125 -8.84375 C 6.472656 -8.601562 6.671875 -8.394531 6.796875 -8.21875 C 6.921875 -8.039062 6.984375 -7.953125 6.984375 -7.953125 Z M 6.984375 -6.828125 "/></g></g></g></svg>